<svg width="24" height="24" viewBox="0 0 24 24" fill="none" xmlns="http://www.w3.org/2000/svg">
    <path
        d="M0 11.52C0 6.08942 0 3.37413 1.68707 1.68707C3.37413 0 6.08942 0 11.52 0H12.48C17.9106 0 20.6259 0 22.3129 1.68707C24 3.37413 24 6.08942 24 11.52V12.48C24 17.9106 24 20.6259 22.3129 22.3129C20.6259 24 17.9106 24 12.48 24H11.52C6.08942 24 3.37413 24 1.68707 22.3129C0 20.6259 0 17.9106 0 12.48V11.52Z"
        fill="#0077FF" />
    <path
        d="M12.819 17.5C7.40402 17.5 4.11871 13.743 3.98999 7.5H6.73254C6.81804 12.086 8.9045 14.0293 10.5039 14.4289V7.5H13.1322V11.4577C14.6749 11.2867 16.2897 9.48655 16.8324 7.5H19.4194C19.0054 9.94284 17.2474 11.743 16.0054 12.4856C17.2484 13.086 19.2484 14.6575 20.0198 17.5H17.1764C16.576 15.5999 15.1053 14.1282 13.1331 13.9284V17.5H12.819Z"
        fill="white" />
</svg>
    