<svg width="24" height="24" viewBox="0 0 24 24" fill="none" xmlns="http://www.w3.org/2000/svg">
    <path
        d="M12 24C18.6274 24 24 18.6274 24 12C24 5.37258 18.6274 0 12 0C5.37258 0 0 5.37258 0 12C0 18.6274 5.37258 24 12 24Z"
        fill="#FC3F1D" />
    <path
        d="M13.7692 6.7205H12.5555C10.4726 6.7205 9.43205 7.76193 9.43205 9.32279C9.43205 11.0576 10.1263 11.9251 11.688 12.9656L12.9018 13.8339L9.43205 19.2116H6.65662L9.95233 14.3542C8.04433 12.9656 7.00376 11.7519 7.00376 9.49679C7.00376 6.7205 8.91176 4.8125 12.5555 4.8125H16.1983V19.2116H13.7692V6.7205Z"
        fill="white" />
</svg>
    