<svg xmlns="http://www.w3.org/2000/svg" width="1266" height="232" fill="none">
    <path fill="#5033FF"
        d="m170.404 71.73 99.362 57.366c18.13 10.467 18.13 23.62 0 34.087L163.232 224.69c-16.828 9.716-26.2 9.716-43.032 0L13.666 163.183c-18.13-10.467-18.13-23.62 0-34.087l99.362-57.367c22.438-12.954 34.938-12.954 57.376 0Z"
        opacity=".5" />
    <path fill="#5033FF"
        d="M366.809 155.412V40.128c0-7.109 4.035-10.952 10.952-10.952h40.157c28.437 0 49.38 15.756 49.38 44.961 0 28.821-20.943 46.114-50.533 46.114h-27.476v35.161c0 6.149-4.995 11.337-11.336 11.337-6.148 0-11.144-5.188-11.144-11.337Zm22.48-105.677v50.149h28.629c15.564 0 27.092-8.647 27.092-25.17 0-16.525-11.721-24.979-27.092-24.979h-28.629Zm95.856 105.869V31.482c0-7.301 5.572-11.144 10.952-11.144 5.572 0 10.952 3.843 10.952 11.144v124.122c0 7.302-5.38 11.145-10.952 11.145-5.38 0-10.952-3.843-10.952-11.145Zm137.456-90.498c5.38 0 10.952 3.651 10.952 10.953v79.738c0 7.109-5.38 10.952-10.952 10.952s-11.144-3.843-11.144-10.952v-10.568c-5.572 13.642-19.598 22.288-37.659 22.288-30.166 0-48.996-23.249-48.996-52.07 0-29.59 19.598-51.686 50.149-51.686 14.794 0 29.013 7.302 36.506 20.175v-7.878c0-7.3 5.572-10.952 11.144-10.952Zm-43.231 82.621c18.637 0 31.895-13.834 31.895-32.088 0-18.06-13.258-31.895-31.895-31.895-18.83 0-32.28 13.258-32.28 31.895 0 18.83 13.45 32.088 32.28 32.088Zm109.174-81.852h14.411c4.611 0 8.646 3.843 8.646 8.646 0 4.804-4.035 8.647-8.646 8.647h-14.411v72.436c0 7.302-5.572 11.145-10.952 11.145s-11.144-3.843-11.144-11.145V83.168h-7.877c-4.612 0-8.647-3.843-8.647-8.647 0-4.611 4.035-8.646 8.647-8.646h7.877V46.853c0-7.301 5.764-10.952 11.144-10.952s10.952 3.65 10.952 10.952v19.022Zm68.997 0h18.445c4.611 0 8.646 3.843 8.646 8.646 0 4.804-4.035 8.647-8.646 8.647h-18.445v72.436c0 5.957-4.996 11.145-11.144 11.145-5.957 0-10.952-5.188-10.952-11.145V83.168h-4.228c-4.611 0-8.646-3.843-8.646-8.647 0-4.611 4.035-8.646 8.646-8.646h4.228V54.347c0-24.594 15.179-34.01 33.048-34.01 2.882 0 5.956.193 9.03.77 5.572.96 8.262 4.995 8.262 9.03 0 4.803-3.458 9.415-9.799 9.03-12.489-.768-19.598 3.075-18.445 18.254v8.454Zm83.743 101.642c-30.743 0-53.415-21.904-53.415-51.878 0-29.781 22.672-51.877 53.415-51.877 30.742 0 53.415 22.096 53.415 51.877 0 29.974-22.673 51.878-53.415 51.878Zm0-19.79c18.445 0 32.087-13.834 32.087-32.088 0-18.253-13.642-32.087-32.087-32.087-18.254 0-32.088 13.834-32.088 32.087 0 18.254 13.834 32.088 32.088 32.088Zm116.07-82.236c8.647-.769 12.105 4.227 12.105 8.838 0 3.843-2.498 10.184-12.297 10.376-14.026.192-22.865 7.685-22.865 21.519v49.38c0 7.302-5.38 11.145-10.952 11.145-5.379 0-10.952-3.843-10.952-11.145V75.866c0-7.301 5.573-10.952 10.952-10.952 5.572 0 10.952 3.651 10.952 10.952v4.42c4.42-8.263 11.721-13.835 23.057-14.795Zm134.146-1.73c19.41 0 36.89 12.105 36.89 40.158v51.301c0 7.494-5.57 11.529-11.14 11.529-5.58 0-11.15-4.035-11.15-11.529v-47.843c0-18.83-9.22-24.594-18.83-24.594-12.29 0-20.36 9.223-20.36 25.747v46.69c0 7.494-5.58 11.529-11.15 11.529s-11.14-4.035-11.14-11.529v-47.843c0-18.83-9.23-24.594-18.83-24.594-12.3 0-20.18 9.03-20.37 25.747v47.074c0 7.11-5.571 10.952-11.143 10.952-5.572 0-11.144-3.842-11.144-10.952V75.866c0-7.301 5.764-10.952 11.336-10.952 5.38 0 10.951 3.459 10.951 10.568v3.843c5.19-9.991 14.6-15.564 26.9-15.564 11.91 0 22.48 5.188 28.05 17.101 5.77-10.76 16.33-17.1 31.13-17.1Zm150.87 1.345c5.38 0 10.95 3.651 10.95 10.953v79.738c0 7.109-5.38 10.952-10.95 10.952-5.58 0-11.15-3.843-11.15-10.952v-10.568c-5.57 13.642-19.6 22.288-37.66 22.288-30.16 0-48.99-23.249-48.99-52.07 0-29.59 19.59-51.686 50.14-51.686 14.8 0 29.02 7.302 36.51 20.175v-7.878c0-7.3 5.57-10.952 11.15-10.952Zm-43.24 82.621c18.64 0 31.9-13.834 31.9-32.088 0-18.06-13.26-31.895-31.9-31.895-18.83 0-32.28 13.258-32.28 31.895 0 18.83 13.45 32.088 32.28 32.088ZM113.028 182.261l-99.362-57.367c-18.13-10.468-18.13-23.62 0-34.087L120.2 29.299c16.828-9.716 26.2-9.716 43.032 0l106.534 61.508c18.13 10.467 18.13 23.619 0 34.087l-99.362 57.367c-22.438 12.955-34.938 12.955-57.376 0Z" />
</svg>