<svg width="12" height="12" viewBox="0 0 12 12" fill="none" xmlns="http://www.w3.org/2000/svg">
<g id="Document/Clipboard List">
<path id="Vector" fill-rule="evenodd" clip-rule="evenodd" d="M5.5 2C5.22386 2 5 2.22386 5 2.5C5 2.77614 5.22386 3 5.5 3H6.5C6.77614 3 7 2.77614 7 2.5C7 2.22386 6.77614 2 6.5 2H5.5ZM4.08535 2C4.29127 1.4174 4.84689 1 5.5 1H6.5C7.15311 1 7.70873 1.4174 7.91465 2H8.5C8.89782 2 9.27936 2.15804 9.56066 2.43934C9.84196 2.72064 10 3.10217 10 3.5V9.5C10 9.89783 9.84196 10.2794 9.56066 10.5607C9.27936 10.842 8.89783 11 8.5 11H3.5C3.10217 11 2.72064 10.842 2.43934 10.5607C2.15804 10.2794 2 9.89783 2 9.5V3.5C2 3.10218 2.15804 2.72064 2.43934 2.43934C2.72064 2.15804 3.10218 2 3.5 2H4.08535ZM4.08535 3H3.5C3.36739 3 3.24021 3.05268 3.14645 3.14645C3.05268 3.24021 3 3.36739 3 3.5V9.5C3 9.63261 3.05268 9.75978 3.14645 9.85355C3.24021 9.94732 3.36739 10 3.5 10H8.5C8.63261 10 8.75978 9.94732 8.85355 9.85355C8.94732 9.75978 9 9.63261 9 9.5V3.5C9 3.36739 8.94732 3.24022 8.85355 3.14645C8.75979 3.05268 8.63261 3 8.5 3H7.91465C7.70873 3.5826 7.15311 4 6.5 4H5.5C4.84689 4 4.29127 3.5826 4.08535 3ZM4 6C4 5.72386 4.22386 5.5 4.5 5.5H4.505C4.78114 5.5 5.005 5.72386 5.005 6C5.005 6.27614 4.78114 6.5 4.505 6.5H4.5C4.22386 6.5 4 6.27614 4 6ZM6 6C6 5.72386 6.22386 5.5 6.5 5.5H7.5C7.77614 5.5 8 5.72386 8 6C8 6.27614 7.77614 6.5 7.5 6.5H6.5C6.22386 6.5 6 6.27614 6 6ZM4 8C4 7.72386 4.22386 7.5 4.5 7.5H4.505C4.78114 7.5 5.005 7.72386 5.005 8C5.005 8.27614 4.78114 8.5 4.505 8.5H4.5C4.22386 8.5 4 8.27614 4 8ZM6 8C6 7.72386 6.22386 7.5 6.5 7.5H7.5C7.77614 7.5 8 7.72386 8 8C8 8.27614 7.77614 8.5 7.5 8.5H6.5C6.22386 8.5 6 8.27614 6 8Z" fill="#5033FF"/>
</g>
</svg>
