<svg width="12" height="12" viewBox="0 0 12 12" fill="none" xmlns="http://www.w3.org/2000/svg">
<g id="System/Settings 2">
<path id="Vector" fill-rule="evenodd" clip-rule="evenodd" d="M5.763 2.08425L2.77027 3.86592C2.76597 3.86849 2.76163 3.87098 2.75725 3.87341C2.6793 3.9167 2.61435 3.98005 2.56912 4.05688C2.5239 4.13369 2.50004 4.22118 2.5 4.3103C2.5 4.31026 2.5 4.31034 2.5 4.3103V7.57859C2.5001 7.66765 2.52398 7.75508 2.56918 7.83182C2.61441 7.90861 2.67934 7.97191 2.75725 8.01518C2.76622 8.02016 2.77503 8.02541 2.78368 8.03094L5.76848 9.93773C5.83989 9.97503 5.91931 9.99456 6 9.99456C6.08069 9.99456 6.16011 9.97503 6.23152 9.93773L9.21632 8.03094C9.22497 8.02541 9.23378 8.02016 9.24275 8.01518C9.3207 7.97189 9.38565 7.90855 9.43088 7.83171C9.4761 7.75491 9.49996 7.66742 9.5 7.5783C9.5 7.57826 9.5 7.57834 9.5 7.5783V4.30657C9.50066 4.21817 9.47788 4.13117 9.43397 4.05445C9.39005 3.97772 9.32657 3.91402 9.25001 3.86982C9.2227 3.85405 9.19733 3.83599 9.17406 3.816L6.26597 2.08424C6.18878 2.04243 6.10235 2.02051 6.0145 2.02051C5.92664 2.02051 5.8402 2.04243 5.763 2.08425ZM9.85393 3.06961C9.82869 3.04629 9.80076 3.02532 9.77032 3.0072L6.77033 1.2207C6.76615 1.21821 6.76194 1.21579 6.75769 1.21342C6.53042 1.08691 6.27461 1.02051 6.0145 1.02051C5.75439 1.02051 5.49858 1.08691 5.27131 1.21342C5.26708 1.21578 5.26289 1.21819 5.25873 1.22067L2.26453 3.00321C2.03389 3.13297 1.84164 3.32145 1.70735 3.54958C1.57165 3.78009 1.50006 4.04269 1.5 4.31018V7.5788C1.5002 7.84615 1.57185 8.10897 1.70754 8.33933C1.84036 8.56483 2.02981 8.75157 2.25699 8.88111L5.24532 10.7902C5.25397 10.7957 5.26278 10.8009 5.27175 10.8059C5.49453 10.9296 5.74517 10.9946 6 10.9946C6.25483 10.9946 6.50547 10.9296 6.72825 10.8059C6.73722 10.8009 6.74603 10.7957 6.75468 10.7902L9.74301 8.88111C9.9703 8.75151 10.1598 8.56465 10.2927 8.33901C10.4283 8.1085 10.4999 7.8459 10.5 7.57841V4.31191C10.5016 4.04743 10.4332 3.78722 10.3018 3.55767C10.1905 3.36319 10.0373 3.19659 9.85393 3.06961ZM6 5.0003C5.44772 5.0003 5 5.44801 5 6.0003C5 6.55258 5.44772 7.0003 6 7.0003C6.55228 7.0003 7 6.55258 7 6.0003C7 5.44801 6.55228 5.0003 6 5.0003ZM4 6.0003C4 4.89573 4.89543 4.0003 6 4.0003C7.10457 4.0003 8 4.89573 8 6.0003C8 7.10487 7.10457 8.0003 6 8.0003C4.89543 8.0003 4 7.10487 4 6.0003Z" fill="black"/>
</g>
</svg>
