<svg width="200" height="32" viewBox="0 0 200 32" fill="none" xmlns="http://www.w3.org/2000/svg">
    <path
        d="M52.2058 23.9489C51.3502 23.9489 50.655 23.2002 50.655 22.3713V6.64918C50.655 5.41922 51.3235 4.7775 52.5267 4.7775H63.9172C65.1205 4.7775 65.7889 5.44596 65.7889 6.64918V22.3713C65.7889 23.227 65.067 23.9489 64.2114 23.9489C63.3557 23.9489 62.6605 23.227 62.6605 22.3713V7.61176H53.7834V22.3713C53.7834 23.2002 53.0882 23.9489 52.2058 23.9489ZM70.0113 23.8152C69.8508 23.8687 69.6904 23.8954 69.53 23.8954C68.7011 23.8954 68.1396 23.1467 68.1396 22.3981C68.1396 21.9168 68.3802 21.4355 68.9685 21.1681C69.8241 20.767 70.2787 20.1253 70.4926 18.4408L71.4017 11.1947C71.5086 10.446 71.776 9.88452 72.7118 9.88452H80.4392C81.2949 9.88452 81.7494 10.3658 81.7494 11.1947V22.3713C81.7494 23.1735 81.0809 23.8954 80.2521 23.8954C79.4232 23.8954 78.728 23.1735 78.728 22.3713V12.6118H74.1825L73.4605 18.4943C73.1397 21.1948 72.2573 23.0933 70.0113 23.8152ZM97.7926 9.77757C98.5413 9.77757 99.3167 10.2856 99.3167 11.3017V22.3981C99.3167 23.3874 98.568 23.9221 97.7926 23.9221C97.0172 23.9221 96.2418 23.3874 96.2418 22.3981V20.9275C95.4664 22.8259 93.5145 24.0291 91.0011 24.0291C86.8032 24.0291 84.1828 20.7938 84.1828 16.783C84.1828 12.6653 86.9101 9.5904 91.1615 9.5904C93.2204 9.5904 95.199 10.6065 96.2418 12.3979V11.3017C96.2418 10.2856 97.0172 9.77757 97.7926 9.77757ZM91.7765 21.2751C94.3701 21.2751 96.2151 19.3499 96.2151 16.8098C96.2151 14.2963 94.3701 12.3712 91.7765 12.3712C89.1561 12.3712 87.2844 14.2161 87.2844 16.8098C87.2844 19.4301 89.1561 21.2751 91.7765 21.2751ZM102.29 9.88452H111.194C111.943 9.88452 112.558 10.4995 112.558 11.2482C112.558 11.9969 111.943 12.6118 111.194 12.6118H108.253V22.3981C108.253 23.2002 107.584 23.9221 106.755 23.9221C105.9 23.9221 105.231 23.2002 105.231 22.3981V12.6118H102.29C101.541 12.6118 100.9 11.9969 100.9 11.2482C100.9 10.4995 101.541 9.88452 102.29 9.88452ZM129.773 16.783C129.773 20.8472 126.885 23.8152 122.714 23.9756V28.6548C122.714 29.4035 122.072 30.072 121.297 30.072C120.495 30.072 119.853 29.4035 119.853 28.6548V23.9756C115.709 23.8152 112.848 20.7403 112.848 16.783C112.848 12.8525 115.709 9.83105 119.853 9.67062V4.96467C119.853 4.216 120.495 3.54754 121.297 3.54754C122.072 3.54754 122.714 4.216 122.714 4.96467V9.67062C126.885 9.83105 129.773 12.7723 129.773 16.783ZM115.655 16.783C115.655 19.2697 117.34 21.1948 119.853 21.4087V12.184C117.34 12.3445 115.655 14.2696 115.655 16.783ZM122.714 12.184V21.4087C125.254 21.2483 126.966 19.3499 126.966 16.783C126.966 14.2963 125.254 12.3712 122.714 12.184ZM138.539 24.0291C134.261 24.0291 131.105 20.9809 131.105 16.8098C131.105 12.6653 134.261 9.5904 138.539 9.5904C142.817 9.5904 145.972 12.6653 145.972 16.8098C145.972 20.9809 142.817 24.0291 138.539 24.0291ZM138.539 21.2751C141.106 21.2751 143.004 19.3499 143.004 16.8098C143.004 14.2696 141.106 12.3445 138.539 12.3445C135.999 12.3445 134.073 14.2696 134.073 16.8098C134.073 19.3499 135.999 21.2751 138.539 21.2751ZM156.723 9.61714C160.948 9.61714 163.542 12.8792 163.542 16.8632C163.542 20.9542 160.841 24.0558 156.563 24.0558C154.504 24.0558 152.525 23.0398 151.483 21.2483V28.6281C151.483 29.6174 150.734 30.1522 149.958 30.1522C149.21 30.1522 148.434 29.6174 148.434 28.6281V11.2749C148.434 10.2589 149.21 9.75083 149.958 9.75083C150.734 9.75083 151.483 10.2589 151.483 11.2749V12.7188C152.285 10.7936 154.237 9.61714 156.723 9.61714ZM155.948 21.2751C158.568 21.2751 160.467 19.4301 160.467 16.8365C160.467 14.2161 158.568 12.3712 155.948 12.3712C153.354 12.3712 151.509 14.2963 151.509 16.8365C151.509 19.3499 153.354 21.2751 155.948 21.2751ZM167.532 23.9221C166.676 23.9221 166.008 23.227 166.008 22.4248V11.5958C166.008 10.5797 166.863 9.72409 167.879 9.72409C168.361 9.72409 168.895 9.91126 169.243 10.3658L173.334 15.8472L177.452 10.3658C177.746 9.96474 178.28 9.72409 178.788 9.72409C179.831 9.72409 180.66 10.5797 180.66 11.5958V22.4248C180.66 23.227 179.992 23.9221 179.163 23.9221C178.334 23.9221 177.639 23.227 177.639 22.3981C177.639 17.9595 177.719 15.9006 177.986 13.4675C177.05 15.0183 175.847 16.783 174.537 18.4408C174.189 18.8953 173.762 19.1092 173.334 19.1092C172.906 19.1092 172.478 18.8686 172.131 18.4408C170.713 16.6761 169.484 14.7776 168.681 13.4407C168.949 15.8739 169.029 17.9862 169.029 22.3981C169.029 23.227 168.334 23.9221 167.532 23.9221ZM196.73 9.77757C197.478 9.77757 198.254 10.2856 198.254 11.3017V22.3981C198.254 23.3874 197.505 23.9221 196.73 23.9221C195.954 23.9221 195.179 23.3874 195.179 22.3981V20.9275C194.403 22.8259 192.452 24.0291 189.938 24.0291C185.74 24.0291 183.12 20.7938 183.12 16.783C183.12 12.6653 185.847 9.5904 190.099 9.5904C192.157 9.5904 194.136 10.6065 195.179 12.3979V11.3017C195.179 10.2856 195.954 9.77757 196.73 9.77757ZM190.714 21.2751C193.307 21.2751 195.152 19.3499 195.152 16.8098C195.152 14.2963 193.307 12.3712 190.714 12.3712C188.093 12.3712 186.222 14.2161 186.222 16.8098C186.222 19.4301 188.093 21.2751 190.714 21.2751Z"
        fill="#5033FF" />
    <path
        d="M16.8617 26.042L3.03471 18.0592C0.511867 16.6026 0.511867 14.7723 3.03471 13.3157L17.8598 4.75625C20.2016 3.40417 21.5058 3.40417 23.8481 4.75625L38.6738 13.3157C41.1967 14.7723 41.1967 16.6026 38.6738 18.0592L24.8462 26.042C21.724 27.8452 19.9845 27.8452 16.8617 26.042Z"
        fill="#5033FF" />
</svg>
    