<?xml version="1.0" standalone="no"?>
<!DOCTYPE svg PUBLIC "-//W3C//DTD SVG 1.1//EN" "http://www.w3.org/Graphics/SVG/1.1/DTD/svg11.dtd" >
<svg xmlns="http://www.w3.org/2000/svg" xmlns:xlink="http://www.w3.org/1999/xlink" version="1.1">
<metadata>
Created by FontForge 20190801 at Tue May 18 18:44:31 2021
 By Unknown
Copyright (c) 2021 by Pangram Pangram. All rights reserved.
</metadata>
<defs>
<font id="PPPangramSansRounded-Medium" horiz-adv-x="0" >
  <font-face 
    font-family="PP Pangram Sans Rounded Medium"
    font-weight="400"
    font-stretch="normal"
    units-per-em="1000"
    panose-1="0 0 5 0 0 0 0 0 0 0"
    ascent="800"
    descent="-200"
    x-height="515"
    cap-height="710"
    bbox="-381 -258 1357 1004"
    underline-thickness="20"
    underline-position="-80"
    unicode-range="U+0020-FB01"
  />
<missing-glyph horiz-adv-x="490" 
d="M91 750h311v-980h-311v980zM326 652v32h-161v-32h63v-36h-64v-33h162v33h-64v36h64zM262 489v69h-98v-102h162v33h-64zM196 525h32v-36h-32v36zM326 397v33h-162v-33h64v-36h-64v-32h98v68h64zM326 273v98h-32v-65h-130v-33h162zM326 140v111h-98v-55h34v23h32v-46h-98
v78h-32v-111h162zM326 -29v111h-162v-111h162zM196 49h98v-46h-98v46zM326 -84v32h-162v-32h68l-68 -46v-32h162v32h-100l69 46h31z" />
    <glyph glyph-name="fi" unicode="fi" horiz-adv-x="467" 
d="M188 515h158q57 0 57 -57v-419q0 -18 -12.5 -31.5t-30.5 -13.5t-31 13.5t-13 31.5v407h-128v-407q0 -17 -13 -30t-31 -13t-30.5 13t-12.5 30v407h-32q-14 0 -24.5 10t-10.5 24t10.5 24.5t24.5 10.5h32v82q0 82 43 120t109 38q22 0 49 -5q16 -3 25 -14t9 -25
q0 -15 -11.5 -24.5t-31.5 -7.5q-7 1 -21 1q-89 0 -84 -94v-71z" />
    <glyph glyph-name="f_f_i.liga" unicode="ffi" horiz-adv-x="683" 
d="M404 515h158q57 0 57 -57v-419q0 -18 -13 -31.5t-31 -13.5t-31 13.5t-13 31.5v407h-127v-407q0 -17 -13 -30t-31 -13t-31 13t-13 30v407h-124v-407q0 -17 -13 -30t-30 -13q-18 0 -31 13t-13 30v407h-36q-14 0 -24.5 10t-10.5 24t10.5 24.5t24.5 10.5h36v82q0 82 41.5 120
t101.5 38q22 0 39 -4t26.5 -15t9.5 -24q0 -15 -11.5 -25.5t-31.5 -7.5q-5 1 -15 1q-78 0 -73 -94v-71h124v82q0 83 43.5 120.5t109.5 37.5q21 0 48 -5q35 -7 35 -38q0 -15 -11 -25.5t-30 -8.5q-18 2 -26 2q-41 0 -62 -21t-19 -73v-71z" />
    <glyph glyph-name=".notdef" horiz-adv-x="490" 
d="M91 750h311v-980h-311v980zM326 652v32h-161v-32h63v-36h-64v-33h162v33h-64v36h64zM262 489v69h-98v-102h162v33h-64zM196 525h32v-36h-32v36zM326 397v33h-162v-33h64v-36h-64v-32h98v68h64zM326 273v98h-32v-65h-130v-33h162zM326 140v111h-98v-55h34v23h32v-46h-98
v78h-32v-111h162zM326 -29v111h-162v-111h162zM196 49h98v-46h-98v46zM326 -84v32h-162v-32h68l-68 -46v-32h162v32h-100l69 46h31z" />
    <glyph glyph-name=".null" 
 />
    <glyph glyph-name="nonmarkingreturn" horiz-adv-x="333" 
 />
    <glyph glyph-name="space" unicode=" " horiz-adv-x="227" 
 />
    <glyph glyph-name="exclam" unicode="!" horiz-adv-x="263" 
d="M131 185q-17 0 -28.5 11.5t-11.5 28.5l-3 445q0 17 12.5 31t30.5 14q19 0 31.5 -14t12.5 -31l-3 -445q0 -17 -12 -28.5t-29 -11.5zM132 -10q-22 0 -38 16t-16 38t16 37.5t38 15.5t37.5 -15.5t15.5 -37.5t-15.5 -38t-37.5 -16z" />
    <glyph glyph-name="quotedbl" unicode="&#x22;" horiz-adv-x="355" 
d="M77 525v154q0 16 10.5 25.5t24.5 9.5q15 0 25.5 -9.5t10.5 -25.5v-154q0 -17 -11 -26t-25 -9t-24.5 9.5t-10.5 25.5zM208 525v154q0 16 10.5 25.5t24.5 9.5q15 0 25.5 -9.5t10.5 -25.5v-154q0 -17 -11 -26t-25 -9t-24.5 9.5t-10.5 25.5z" />
    <glyph glyph-name="numbersign" unicode="#" horiz-adv-x="696" 
d="M628 452h-96l-22 -206h87q15 0 26 -11t11 -27q0 -15 -11 -26t-26 -11h-95l-15 -138q-1 -16 -13.5 -26.5t-28.5 -10.5q-18 0 -31 14t-11 32l14 129h-174l-15 -138q-1 -16 -14 -26.5t-28 -10.5q-18 0 -31 14t-11 32l14 129h-91q-15 0 -26 11t-11 26q0 16 11 27t26 11h99
l22 206h-90q-15 0 -26 11t-11 27q0 15 11 26t26 11h98l16 150q1 16 14 26.5t28 10.5q19 0 31.5 -14.5t10.5 -31.5l-15 -141h174l16 150q1 16 14 26.5t28 10.5q19 0 31.5 -14.5t10.5 -31.5l-15 -141h88q15 0 26 -11t11 -26q0 -16 -11 -27t-26 -11zM251 246h174l22 206h-174z
" />
    <glyph glyph-name="dollar" unicode="$" horiz-adv-x="560" 
d="M521 184q0 -81 -56.5 -133t-148.5 -60v-52q0 -15 -11 -26.5t-27 -11.5t-27 11.5t-11 26.5v54q-151 20 -198 160q-3 11 -3 19q0 21 14.5 35.5t32.5 14.5q30 0 39 -37q15 -60 58.5 -89.5t99.5 -29.5q66 0 105 31t39 82q0 39 -27.5 68.5t-68 46.5t-88.5 39t-88.5 44.5
t-68 64t-27.5 95.5q0 74 50.5 123t130.5 58v53q0 15 11 26.5t27 11.5t27 -11.5t11 -26.5v-54q134 -20 179 -147q3 -9 3 -18q0 -20 -14 -33.5t-31 -13.5q-29 0 -40 34q-16 50 -51.5 77.5t-86.5 27.5q-53 0 -89 -28t-36 -76q0 -41 27.5 -71t68.5 -46.5t89.5 -38t89.5 -43
t68.5 -62t27.5 -95.5z" />
    <glyph glyph-name="percent" unicode="%" horiz-adv-x="974" 
d="M235 341q-83 0 -138 53.5t-55 134.5t55 134.5t138 53.5t137.5 -53.5t54.5 -134.5t-55 -134.5t-137 -53.5zM670 667l-306 -651q-10 -20 -31 -20q-13 0 -24 9t-11 22q0 8 4 16l307 651q9 20 31 20q13 0 23.5 -8.5t10.5 -22.5q0 -8 -4 -16zM235 405q53 0 89 36t36 89
t-35.5 88.5t-89.5 35.5q-53 0 -89 -35.5t-36 -88.5q0 -54 36 -89.5t89 -35.5zM739 -10q-83 0 -138 53.5t-55 134.5q0 80 55.5 134t137.5 54t137 -54t55 -134q0 -81 -54.5 -134.5t-137.5 -53.5zM739 53q53 0 89 36t36 89t-36 89t-89 36t-89 -36t-36 -89t36 -89t89 -36z" />
    <glyph glyph-name="ampersand" unicode="&#x26;" horiz-adv-x="821" 
d="M547 301l136 201q12 18 31 18q15 0 27.5 -11t12.5 -26q0 -12 -7 -22l-149 -225l138 -175q11 -16 11 -27q0 -16 -13.5 -27.5t-30.5 -11.5q-22 0 -36 18l-116 151q-73 -101 -126.5 -137.5t-131.5 -36.5q-107 0 -177 69t-70 175q0 102 70 167.5t176 65.5q14 0 29 -3
l-154 189q-12 15 -12 29q0 12 11 20t30 8h375q15 0 25.5 -10.5t10.5 -25.5q0 -14 -10.5 -25t-25.5 -11h-290zM293 73q60 0 99.5 30t107.5 127l-73 94q-55 71 -134 71q-71 0 -116.5 -44.5t-45.5 -116.5q0 -69 46 -115t116 -46z" />
    <glyph glyph-name="quotesingle" unicode="'" horiz-adv-x="224" 
d="M77 525v154q0 16 10.5 25.5t24.5 9.5q15 0 25.5 -9.5t10.5 -25.5v-154q0 -17 -11 -26t-25 -9t-24.5 9.5t-10.5 25.5z" />
    <glyph glyph-name="parenleft" unicode="(" horiz-adv-x="287" 
d="M227 -148q-79 10 -121.5 61t-42.5 140v454q0 180 167 201q18 2 30 -10t12 -30q0 -14 -8.5 -24.5t-21.5 -12.5q-40 -7 -67 -35.5t-27 -81.5v-468q0 -51 26 -81t69 -37q13 -2 20.5 -12.5t7.5 -23.5q0 -18 -11.5 -30.5t-32.5 -9.5z" />
    <glyph glyph-name="parenright" unicode=")" horiz-adv-x="287" 
d="M59 708q78 -9 121 -60t43 -141v-454q0 -180 -167 -201q-18 -2 -30 10t-12 30q0 31 32 37q39 7 66 36t27 81v468q0 52 -27 81.5t-68 36.5q-29 5 -29 36q0 18 12 30.5t32 9.5z" />
    <glyph glyph-name="asterisk" unicode="*" horiz-adv-x="453" 
d="M294 381l-34 50q-28 44 -34 54q-6 -17 -33 -54l-35 -50q-10 -13 -25 -13q-12 0 -22 9t-10 21q0 9 7 19l38 50q35 42 41 48q-42 8 -62 14l-60 18q-21 7 -21 28q0 13 8 22.5t20 9.5q8 0 12 -2l58 -20q46 -17 59 -24q-4 27 -4 64v57q-1 14 8 22t21 8t21 -8t9 -22v-58
q-1 -20 -6 -64q6 5 59 24l60 21q8 2 12 2q12 0 19.5 -9t7.5 -22q0 -23 -21 -29l-60 -18q-45 -13 -62 -14q11 -9 41 -48l38 -50q7 -8 7 -18q0 -13 -10 -23t-22 -10q-15 0 -25 15z" />
    <glyph glyph-name="plus" unicode="+" horiz-adv-x="466" 
d="M276 310h106q16 0 28 -12t12 -28t-12 -27.5t-28 -11.5h-106v-107q0 -17 -13 -29.5t-30 -12.5t-29.5 12.5t-12.5 29.5v107h-108q-16 0 -27.5 11.5t-11.5 27.5t11.5 28t27.5 12h108v107q0 17 12.5 29.5t29.5 12.5t30 -12.5t13 -29.5v-107z" />
    <glyph glyph-name="comma" unicode="," horiz-adv-x="261" 
d="M77 -67l27 123q9 40 46 40q16 0 27 -11t11 -30q0 -12 -4 -23l-42 -120q-7 -22 -30 -22q-14 0 -25 9.5t-11 24.5q0 6 1 9z" />
    <glyph glyph-name="hyphen" unicode="-" horiz-adv-x="497" 
d="M60 271q0 16 11.5 27.5t27.5 11.5h299q16 0 28 -11.5t12 -27.5t-12 -28t-28 -12h-299q-16 0 -27.5 12t-11.5 28z" />
    <glyph glyph-name="period" unicode="." horiz-adv-x="263" 
d="M132 -10q-22 0 -38 16t-16 38t16 37.5t38 15.5t37.5 -15.5t15.5 -37.5t-15.5 -38t-37.5 -16z" />
    <glyph glyph-name="slash" unicode="/" horiz-adv-x="342" 
d="M295 754q15 0 26 -10t11 -25q0 -4 -2 -12l-246 -816q-3 -11 -13 -18.5t-22 -7.5q-14 0 -26 9.5t-12 25.5q0 4 2 12l246 816q3 11 13.5 18.5t22.5 7.5z" />
    <glyph glyph-name="zero" unicode="0" horiz-adv-x="627" 
d="M314 -10q-107 0 -184 69.5t-77 182.5v226q0 113 77 182.5t184 69.5t184 -69.5t77 -182.5v-226q0 -113 -77 -182.5t-184 -69.5zM314 73q72 0 122 48t50 121v226q0 73 -50 121t-122 48t-122 -48t-50 -121v-226q0 -73 50 -121t122 -48z" />
    <glyph glyph-name="one" unicode="1" horiz-adv-x="455" 
d="M279 79h129q16 0 27.5 -12t11.5 -28t-11.5 -27.5t-27.5 -11.5h-348q-16 0 -27.5 11.5t-11.5 27.5t11.5 28t27.5 12h129v540l-108 -35q-5 -2 -13 -2q-15 0 -25 11.5t-10 27.5q0 30 31 39l167 52q5 2 15 2q33 0 33 -40v-595z" />
    <glyph glyph-name="two" unicode="2" horiz-adv-x="548" 
d="M474 0h-384q-26 0 -43 18t-17 52q0 43 21.5 80t56 65t76 53.5t82.5 50.5t75.5 51t56 60t21.5 72q0 59 -40.5 98t-104.5 39q-57 0 -95.5 -34t-53.5 -92q-9 -36 -38 -36q-17 0 -30.5 15t-13.5 37q0 12 4 23q23 75 85 121.5t147 46.5q97 0 163 -60t66 -159q0 -67 -37 -120.5
t-90.5 -88.5t-108.5 -65.5t-97.5 -66.5t-49.5 -77h349q17 0 29.5 -12t12.5 -29t-12.5 -29.5t-29.5 -12.5z" />
    <glyph glyph-name="three" unicode="3" horiz-adv-x="569" 
d="M415 373q54 -18 85.5 -61.5t31.5 -108.5q0 -89 -66 -151t-176 -62q-98 0 -167 52t-84 128q-1 5 -1 14q0 23 14 37t31 14q29 0 35 -32q11 -59 57 -95.5t110 -36.5q73 0 115.5 38.5t42.5 95.5q0 58 -43 90t-121 32h-30q-18 0 -27.5 11.5t-9.5 26.5q0 16 10.5 27.5
t28.5 11.5h30q62 0 98 34t36 85q0 52 -38 84t-99 32q-60 0 -98.5 -36t-51.5 -94q-6 -29 -32 -29q-18 0 -32.5 14.5t-14.5 36.5q0 5 2 15q16 73 77.5 123.5t152.5 50.5q100 0 161.5 -53.5t61.5 -137.5q0 -101 -89 -156z" />
    <glyph glyph-name="four" unicode="4" horiz-adv-x="589" 
d="M457 223h80q15 0 25.5 -11t10.5 -25q0 -15 -10.5 -25.5t-25.5 -10.5h-80v-112q0 -17 -12.5 -30t-30.5 -13t-31 13t-13 30v112h-304q-20 0 -31.5 13t-11.5 31q0 14 7 24l331 472q16 23 44 23q22 0 37 -15t15 -36v-440zM383 605l-262 -382h249v274q0 72 13 108z" />
    <glyph glyph-name="five" unicode="5" horiz-adv-x="579" 
d="M310 479q100 0 167 -66t67 -174q0 -104 -72 -176.5t-181 -72.5q-92 0 -152.5 48t-83.5 125q-2 5 -2 17q0 20 11.5 34t31.5 14q13 0 24 -7t13 -18q10 -58 52 -95t106 -37q67 0 115 47t48 118q0 77 -46 121.5t-115 44.5q-45 0 -86.5 -20t-62.5 -63q-10 -19 -38 -19
q-23 0 -38.5 17.5t-11.5 40.5l48 312q6 40 47 40h307q16 0 28 -11.5t12 -27.5t-12 -28t-28 -12h-277l-31 -208q62 56 160 56z" />
    <glyph glyph-name="six" unicode="6" horiz-adv-x="580" 
d="M291 -10q-111 0 -182 70t-71 173q0 78 52 162l184 298q14 23 39 23q17 0 30 -11t13 -28q0 -13 -8 -26l-129 -203q43 24 94 24q98 0 163.5 -66.5t65.5 -168.5q0 -106 -70.5 -176.5t-180.5 -70.5zM291 73q70 0 115.5 46.5t45.5 117.5t-45.5 117.5t-115.5 46.5
q-72 0 -118 -46.5t-46 -117.5t46.5 -117.5t117.5 -46.5z" />
    <glyph glyph-name="seven" unicode="7" horiz-adv-x="500" 
d="M483 644l-254 -621q-12 -27 -39 -27q-18 0 -30.5 11.5t-12.5 28.5q0 10 4 19l237 576h-341q-16 0 -27.5 12t-11.5 28t11.5 27.5t27.5 11.5h392q22 0 35 -14t13 -33q0 -7 -4 -19z" />
    <glyph glyph-name="eight" unicode="8" horiz-adv-x="563" 
d="M408 380q57 -25 88.5 -71t31.5 -106q0 -93 -69.5 -153t-177.5 -60t-177.5 59.5t-69.5 153.5q0 60 31 106.5t88 70.5q-88 51 -88 151q0 85 63 137t153 52t153 -52t63 -137q0 -102 -89 -151zM281 646q-52 0 -91 -31t-39 -85t39 -85.5t91 -31.5q53 0 92.5 31.5t39.5 85.5
t-39.5 85t-92.5 31zM281 69q68 0 113.5 38.5t45.5 98.5q0 61 -45.5 99t-113.5 38t-113 -38t-45 -99t45 -99t113 -38z" />
    <glyph glyph-name="nine" unicode="9" horiz-adv-x="585" 
d="M289 720q111 0 182 -70t71 -173q0 -78 -52 -162l-184 -298q-14 -23 -40 -23q-17 0 -29.5 10.5t-12.5 27.5q0 14 8 27l128 203q-42 -24 -94 -24q-97 0 -162.5 66.5t-65.5 168.5q0 106 70.5 176.5t180.5 70.5zM289 637q-70 0 -116 -46.5t-46 -117.5t46 -117.5t116 -46.5
q72 0 117.5 46t45.5 118q0 71 -46.5 117.5t-116.5 46.5z" />
    <glyph glyph-name="colon" unicode=":" horiz-adv-x="245" 
d="M123 380q-23 0 -38.5 16t-15.5 38t16 37.5t38 15.5t37.5 -15.5t15.5 -37.5t-15.5 -38t-37.5 -16zM123 -10q-23 0 -38.5 16t-15.5 38t16 37.5t38 15.5t37.5 -15.5t15.5 -37.5t-15.5 -38t-37.5 -16z" />
    <glyph glyph-name="semicolon" unicode=";" horiz-adv-x="290" 
d="M159 380q-23 0 -38.5 16t-15.5 38t16 37.5t38 15.5t37.5 -15.5t15.5 -37.5t-15.5 -38t-37.5 -16zM77 -67l27 123q9 40 46 40q16 0 27 -11t11 -30q0 -12 -4 -23l-42 -120q-7 -22 -30 -22q-14 0 -25 9.5t-11 24.5q0 6 1 9z" />
    <glyph glyph-name="less" unicode="&#x3c;" horiz-adv-x="480" 
d="M80 346l294 119q8 3 14 3q14 0 23.5 -11.5t9.5 -26.5q0 -25 -23 -34q-227 -91 -260 -102q19 -6 108.5 -42.5t151.5 -59.5q26 -10 26 -32q0 -15 -11 -26.5t-26 -11.5q-9 0 -13 2l-294 118q-36 15 -36 52q0 17 10.5 31.5t25.5 20.5z" />
    <glyph glyph-name="equal" unicode="=" horiz-adv-x="560" 
d="M91 363q0 15 11 26t26 11h304q15 0 26 -11t11 -26t-11 -26t-26 -11h-304q-15 0 -26 11t-11 26zM91 181q0 15 11 26t26 11h304q14 0 25.5 -11t11.5 -26t-11.5 -26.5t-25.5 -11.5h-304q-15 0 -26 11t-11 27z" />
    <glyph glyph-name="greater" unicode="&#x3e;" horiz-adv-x="480" 
d="M399 242l-293 -119q-8 -3 -14 -3q-14 0 -23.5 11.5t-9.5 26.5q0 25 23 35q228 91 260 101q-17 6 -107 42.5t-155 60.5q-24 8 -24 32q0 15 10.5 26.5t25.5 11.5q9 0 13 -2l294 -118q15 -6 25.5 -21t10.5 -32q0 -16 -10.5 -31t-25.5 -21z" />
    <glyph glyph-name="question" unicode="?" horiz-adv-x="472" 
d="M102 514q-6 -29 -36 -29q-18 0 -33 13.5t-15 34.5q0 5 2 15q20 80 78.5 126t139.5 46q97 0 156 -54.5t59 -137.5q0 -79 -49.5 -133t-134.5 -67v-101q0 -18 -11.5 -28.5t-27.5 -10.5t-28.5 10.5t-12.5 28.5v121q0 41 46 46q61 7 95 40.5t34 85.5q0 49 -34.5 82t-92.5 33
q-53 0 -88.5 -32.5t-46.5 -88.5zM228 -10q-22 0 -38 16t-16 38t16 37.5t38 15.5t38 -15.5t16 -37.5t-16 -38t-38 -16z" />
    <glyph glyph-name="at" unicode="@" horiz-adv-x="883" 
d="M441 650q169 0 280 -106t111 -267q0 -109 -42.5 -172t-112.5 -63q-56 0 -88 42t-32 106q-13 -51 -52 -80t-93 -29q-75 0 -125.5 54.5t-50.5 131.5q0 79 51 131.5t128 52.5q44 0 80 -19.5t54 -54.5l4 36q2 16 11.5 26.5t24.5 10.5q16 0 26 -10.5t10 -27.5v-208
q0 -48 16 -72.5t41 -24.5q36 0 60.5 44t24.5 126q0 136 -92.5 224.5t-233.5 88.5q-138 0 -230 -92.5t-92 -230.5q0 -77 28.5 -138.5t76 -98.5t105 -56t119.5 -19q52 0 98 12q4 1 10 1q12 0 19 -8.5t7 -19.5q0 -26 -23 -32q-58 -16 -115 -16t-112 14t-106 44t-89.5 73.5
t-61.5 106.5t-23 138q0 164 111.5 273t277.5 109zM430 145q53 0 86.5 34.5t33.5 86.5t-33.5 86.5t-86.5 34.5q-50 0 -85 -35t-35 -86t35 -86t85 -35z" />
    <glyph glyph-name="A" unicode="A" horiz-adv-x="647" 
d="M389 668l222 -612q3 -9 3 -16q0 -20 -15.5 -32t-33.5 -12q-30 0 -41 32q-44 127 -55 158h-294q-8 -25 -27 -78t-28 -81q-12 -32 -41 -32q-17 0 -31 12t-14 30q0 8 3 17l221 614q7 20 22 33t31 13h23q38 0 55 -46zM200 260h244q-113 330 -123 389q-12 -72 -121 -389z" />
    <glyph glyph-name="B" unicode="B" horiz-adv-x="631" 
d="M341 0h-215q-47 0 -47 47v616q0 47 47 47h200q110 0 167.5 -46.5t57.5 -128.5q0 -61 -27.5 -100.5t-77.5 -52.5q67 -13 106 -62.5t39 -119.5q0 -93 -64.5 -146.5t-185.5 -53.5zM168 633v-228h158q135 0 135 114q0 54 -34.5 84t-100.5 30h-158zM168 337v-260h173
q77 0 118.5 32.5t41.5 91.5q0 62 -41 99t-114 37h-178z" />
    <glyph glyph-name="C" unicode="C" horiz-adv-x="653" 
d="M587 39q-78 -48 -182 -48q-68 0 -131 22.5t-115.5 65.5t-84.5 114.5t-32 161.5q0 91 32 162.5t85 113.5t116 64t131 22q104 0 181 -46q23 -14 23 -41q0 -14 -8 -24t-22 -10q-10 0 -23 6q-68 34 -146 34q-54 0 -103 -17t-89 -50t-64 -88.5t-24 -125.5q0 -135 82 -208.5
t198 -73.5q78 0 148 35q9 5 19 5q14 0 23 -10.5t9 -25.5q0 -25 -23 -38z" />
    <glyph glyph-name="D" unicode="D" horiz-adv-x="705" 
d="M305 0h-179q-47 0 -47 47v616q0 47 47 47h179q158 0 252.5 -101t94.5 -254t-94.5 -254t-252.5 -101zM168 629v-548h137q117 0 187 74.5t70 199.5t-70 199.5t-187 74.5h-137z" />
    <glyph glyph-name="E" unicode="E" horiz-adv-x="545" 
d="M470 0h-344q-47 0 -47 47v616q0 47 47 47h344q17 0 29 -12t12 -28q0 -17 -12 -29t-29 -12h-302v-228h237q16 0 27.5 -12t11.5 -28t-11.5 -27.5t-27.5 -11.5h-237v-241h302q17 0 29 -12t12 -29q0 -16 -12 -28t-29 -12z" />
    <glyph glyph-name="F" unicode="F" horiz-adv-x="522" 
d="M79 40v623q0 47 47 47h334q17 0 29 -12t12 -29t-12 -28.5t-29 -11.5h-292v-235h248q16 0 27.5 -11.5t11.5 -27.5t-11.5 -28t-27.5 -12h-248v-275q0 -20 -13 -32t-31 -12t-31.5 11.5t-13.5 32.5z" />
    <glyph glyph-name="G" unicode="G" horiz-adv-x="784" 
d="M398 -10q-155 0 -255.5 104.5t-100.5 260.5q0 155 102 260t260 105q157 0 256 -106q18 -19 18 -42q0 -17 -10 -28.5t-25 -11.5q-19 0 -36 18q-86 88 -202 88q-120 0 -197 -80.5t-77 -203.5q0 -122 74 -202t192 -80q103 0 173.5 64t82.5 166h-290q-18 0 -28.5 12t-10.5 28
t10.5 27.5t28.5 11.5h338q49 0 44 -62q-10 -134 -103.5 -231.5t-243.5 -97.5z" />
    <glyph glyph-name="H" unicode="H" horiz-adv-x="707" 
d="M79 40v630q0 21 13.5 32.5t31.5 11.5t31 -11.5t13 -32.5v-272h370v272q0 21 13.5 32.5t31.5 11.5t31.5 -11.5t13.5 -32.5v-630q0 -20 -13.5 -31.5t-31.5 -11.5t-31.5 11.5t-13.5 31.5v279h-370v-279q0 -20 -13 -31.5t-31 -11.5t-31.5 11.5t-13.5 31.5z" />
    <glyph glyph-name="I" unicode="I" horiz-adv-x="248" 
d="M79 40v630q0 21 13.5 32.5t31.5 11.5t31 -11.5t13 -32.5v-630q0 -20 -13 -32t-31 -12t-31.5 11.5t-13.5 32.5z" />
    <glyph glyph-name="J" unicode="J" horiz-adv-x="415" 
d="M161 -10q-62 0 -118 47q-18 15 -18 38q0 16 9.5 28.5t23.5 12.5q10 0 21 -7q6 -3 16.5 -10.5t17 -11t17.5 -7t23 -3.5q100 0 100 131v462q0 21 13.5 32.5t31.5 11.5t31.5 -11.5t13.5 -32.5v-467q0 -106 -52.5 -159.5t-129.5 -53.5z" />
    <glyph glyph-name="K" unicode="K" horiz-adv-x="600" 
d="M537 642l-281 -275l281 -300q13 -13 13 -30t-13 -29t-32 -12q-21 0 -39 21l-302 334q4 -85 4 -311q0 -20 -13 -32t-31 -12t-31.5 11.5t-13.5 32.5v630q0 21 13.5 32.5t31.5 11.5t31 -11.5t13 -32.5q0 -209 -4 -285l306 308q21 21 41 21q17 0 30 -11.5t13 -26.5
q0 -18 -17 -34z" />
    <glyph glyph-name="L" unicode="L" horiz-adv-x="510" 
d="M444 0h-321q-44 0 -44 44v626q0 18 13 31t32 13q18 0 31 -13t13 -31v-589h276q16 0 28 -12t12 -29q0 -16 -12 -28t-28 -12z" />
    <glyph glyph-name="M" unicode="M" horiz-adv-x="860" 
d="M727 714q22 0 38 -16t16 -38v-620q0 -18 -13 -31t-32 -13q-18 0 -31.5 13t-13.5 31q0 457 6 527l-237 -364q-12 -20 -30 -20q-17 0 -31 20l-236 363q5 -59 5 -526q0 -18 -13 -31t-31 -13q-19 0 -32 13t-13 31v620q0 22 16 38t38 16q28 0 43 -22l254 -389l254 389
q14 22 43 22z" />
    <glyph glyph-name="N" unicode="N" horiz-adv-x="728" 
d="M605 714q18 0 31 -13t13 -30v-622q0 -22 -16 -37.5t-38 -15.5q-28 0 -43 22l-391 551q5 -55 5 -530q0 -17 -12.5 -30t-30.5 -13t-31 13t-13 30v622q0 22 15.5 37.5t37.5 15.5q28 0 43 -22l390 -552q-4 86 -4 531q0 17 13 30t31 13z" />
    <glyph glyph-name="O" unicode="O" horiz-adv-x="801" 
d="M401 -10q-154 0 -256.5 105t-102.5 260t102.5 260t256.5 105q153 0 255.5 -105t102.5 -260t-102.5 -260t-255.5 -105zM401 73q114 0 191.5 82t77.5 200t-77.5 200t-191.5 82q-115 0 -192.5 -82t-77.5 -200t77.5 -200t192.5 -82z" />
    <glyph glyph-name="P" unicode="P" horiz-adv-x="612" 
d="M79 40v626q0 44 44 44h202q112 0 182 -60t70 -170q0 -109 -71 -171t-186 -62h-152v-207q0 -18 -13 -31t-31 -13q-19 0 -32 13t-13 31zM168 629v-300h157q73 0 117.5 38t44.5 111t-44.5 112t-117.5 39h-157z" />
    <glyph glyph-name="Q" unicode="Q" horiz-adv-x="801" 
d="M759 355q0 -149 -95 -249t-237 -100q-40 0 -70 9l124 -116q16 -15 16 -34q0 -16 -11.5 -27.5t-27.5 -11.5q-19 0 -35 15l-244 225q-137 126 -137 289q0 156 103 260.5t256 104.5q152 0 255 -104.5t103 -260.5zM131 355q0 -116 78 -199t192 -83q116 0 192.5 81.5
t76.5 200.5t-76.5 200.5t-192.5 81.5q-117 0 -193.5 -81t-76.5 -201z" />
    <glyph glyph-name="R" unicode="R" horiz-adv-x="608" 
d="M336 298h-52q56 -46 247 -235q12 -12 12 -26q0 -16 -13.5 -28t-31.5 -12q-17 0 -32 15l-303 302q5 -95 5 -274q0 -18 -13 -31t-31 -13q-19 0 -32 13t-13 31v626q0 44 44 44h206q109 0 172.5 -56t63.5 -150q0 -99 -67 -152.5t-162 -53.5zM319 629h-151v-266h151
q75 0 116 37t41 97q0 59 -41 95.5t-116 36.5z" />
    <glyph glyph-name="S" unicode="S" horiz-adv-x="560" 
d="M283 -10q-86 0 -150 41t-91 122q-3 11 -3 19q0 21 14.5 35.5t32.5 14.5q30 0 39 -37q15 -60 58.5 -89.5t99.5 -29.5q66 0 105 31t39 82q0 39 -27.5 68.5t-68 46.5t-88.5 39t-88.5 44.5t-68 64t-27.5 95.5q0 82 61 132.5t154 50.5q82 0 139.5 -40t81.5 -110q3 -9 3 -18
q0 -20 -14 -33.5t-31 -13.5q-29 0 -40 34q-16 50 -51.5 77.5t-86.5 27.5q-53 0 -89 -28t-36 -76q0 -41 27.5 -71t68.5 -46.5t89.5 -38t89.5 -43t68.5 -62t27.5 -95.5q0 -89 -66.5 -141.5t-171.5 -52.5z" />
    <glyph glyph-name="T" unicode="T" horiz-adv-x="537" 
d="M269 -4q-19 0 -32 13t-13 31v589h-163q-16 0 -28 12t-12 29q0 16 12 28t28 12h415q16 0 28 -12t12 -28q0 -17 -12 -29t-28 -12h-163v-589q0 -18 -13 -31t-31 -13z" />
    <glyph glyph-name="U" unicode="U" horiz-adv-x="695" 
d="M348 -10q-129 0 -204.5 77t-75.5 221v382q0 18 13 31t32 13q18 0 31 -13t13 -31v-384q0 -107 52 -161t139 -54q86 0 138 54t52 161v384q0 18 13 31t32 13q18 0 31 -13t13 -31v-382q0 -144 -75 -221t-204 -77z" />
    <glyph glyph-name="V" unicode="V" horiz-adv-x="653" 
d="M530 684q11 31 41 31q17 0 31 -12t14 -30q0 -8 -3 -17l-221 -614q-17 -46 -53 -46h-23q-38 0 -55 46l-222 612q-3 9 -3 17q0 19 14.5 31.5t33.5 12.5q31 0 42 -31q128 -375 163 -481.5t40 -141.5q8 47 45 163t156 460z" />
    <glyph glyph-name="W" unicode="W" horiz-adv-x="946" 
d="M871 715q17 0 31 -11.5t14 -29.5q0 -4 -2 -14l-175 -616q-13 -48 -63 -48t-63 50q-128 482 -139 553q-16 -96 -143 -555q-13 -48 -62 -48t-63 47l-173 614q-2 10 -2 14q0 19 14.5 31t32.5 12q34 0 44 -37q134 -485 151 -572q17 88 144 562q12 47 59 47t59 -46
q126 -464 145 -556q17 86 149 570q9 33 42 33z" />
    <glyph glyph-name="X" unicode="X" horiz-adv-x="659" 
d="M605 641l-224 -281l224 -287q13 -16 13 -33q0 -18 -13.5 -31t-31.5 -13q-24 0 -41 22q-114 149 -153.5 204t-47.5 77q-8 -24 -46 -76t-157 -205q-19 -25 -44 -25q-18 0 -30 11t-12 29q0 21 17 42l219 281l-221 284q-13 16 -13 32q0 18 14 30.5t33 12.5q23 0 41 -23
q116 -151 153.5 -203t45.5 -73q11 32 202 275q20 24 44 24q18 0 30 -11t12 -28q0 -18 -14 -35z" />
    <glyph glyph-name="Y" unicode="Y" horiz-adv-x="588" 
d="M294 -5q-19 0 -32 13.5t-13 31.5v260l-219 347q-7 11 -7 23q0 18 14 30.5t32 12.5q25 0 39 -23q160 -258 186 -315q25 54 188 314q15 25 40 25q18 0 31 -11.5t13 -29.5q0 -13 -8 -25l-220 -348v-260q0 -18 -13 -31.5t-31 -13.5z" />
    <glyph glyph-name="Z" unicode="Z" horiz-adv-x="591" 
d="M26 671q0 16 11.5 27.5t27.5 11.5h446q18 0 28.5 -8t10.5 -20q0 -10 -9 -24l-381 -579h365q16 0 27.5 -12t11.5 -28t-11.5 -27.5t-27.5 -11.5h-451q-38 0 -38 28q0 10 9 24l384 579h-364q-16 0 -27.5 12t-11.5 28z" />
    <glyph glyph-name="bracketleft" unicode="[" horiz-adv-x="298" 
d="M246 -151h-123q-46 0 -46 45v770q0 46 46 46h123q16 0 26.5 -11t10.5 -26q0 -16 -11 -26.5t-26 -10.5h-87v-713h87q16 0 26.5 -11t10.5 -26q0 -16 -11 -26.5t-26 -10.5z" />
    <glyph glyph-name="backslash" unicode="\" horiz-adv-x="342" 
d="M259 -109l-246 816q-2 8 -2 12q0 15 12.5 25t25.5 10q12 0 22 -7.5t13 -18.5l246 -816q2 -8 2 -11q0 -14 -10.5 -25t-26.5 -11q-12 0 -22.5 7.5t-13.5 18.5z" />
    <glyph glyph-name="bracketright" unicode="]" horiz-adv-x="298" 
d="M52 710h124q45 0 45 -46v-770q0 -45 -45 -45h-124q-15 0 -26 10.5t-11 26.5q0 15 11 26t26 11h87v713h-87q-15 0 -26 11t-11 26t11 26t26 11z" />
    <glyph glyph-name="asciicircum" unicode="^" horiz-adv-x="519" 
d="M90 306q-16 0 -26 11.5t-10 26.5q0 8 3 14l149 322q16 34 53 34q39 0 54 -34l148 -322q3 -6 3 -14q0 -15 -10 -26.5t-26 -11.5q-25 0 -35 23q-19 43 -66 151t-68 157q-17 -41 -59.5 -137t-74.5 -172q-8 -22 -35 -22z" />
    <glyph glyph-name="underscore" unicode="_" horiz-adv-x="618" 
d="M0 -35q0 14 10.5 24.5t24.5 10.5h548q14 0 24.5 -10.5t10.5 -24.5t-10.5 -24.5t-24.5 -10.5h-548q-14 0 -24.5 10t-10.5 25z" />
    <glyph glyph-name="grave" unicode="`" horiz-adv-x="216" 
d="M119 712l53 -94q5 -9 5 -19q0 -12 -9 -20t-22 -8q-20 0 -34 19l-58 83q-11 17 -11 31t10.5 22.5t25.5 8.5q27 0 40 -23z" />
    <glyph glyph-name="a" unicode="a" horiz-adv-x="656" 
d="M548 517q18 0 31 -11.5t13 -31.5v-436q0 -20 -13 -31.5t-31 -11.5t-31.5 11.5t-13.5 31.5v83q-23 -59 -78 -95t-131 -36q-115 0 -186.5 77t-71.5 192q0 116 72.5 191.5t189.5 75.5q67 0 121.5 -32.5t83.5 -89.5v70q0 20 13.5 31.5t31.5 11.5zM314 68q82 0 135.5 54.5
t53.5 135.5q0 80 -53.5 134.5t-135.5 54.5q-83 0 -136.5 -53.5t-53.5 -135.5t54 -136t136 -54z" />
    <glyph glyph-name="b" unicode="b" horiz-adv-x="655" 
d="M361 525q115 0 186.5 -77t71.5 -192q0 -116 -72.5 -191t-189.5 -75q-67 0 -121.5 32t-84.5 90v-73q0 -20 -13 -31.5t-30 -11.5q-18 0 -31 11.5t-13 31.5v672q0 20 13 31.5t31 11.5t30.5 -11.5t12.5 -31.5v-316q24 60 79.5 95t130.5 35zM340 68q83 0 137 53.5t54 135.5
q0 83 -54 136.5t-137 53.5q-81 0 -134.5 -54.5t-53.5 -135.5q0 -80 53 -134.5t135 -54.5z" />
    <glyph glyph-name="c" unicode="c" horiz-adv-x="526" 
d="M461 36q-69 -45 -156 -45q-108 0 -187.5 70.5t-79.5 196.5t79.5 196t187.5 70q87 0 156 -46q23 -16 23 -40q0 -14 -8.5 -24.5t-21.5 -10.5q-9 0 -18 6q-54 36 -120 36q-78 0 -134.5 -50t-56.5 -137q0 -85 56 -136.5t134 -51.5q64 0 119 35q10 6 18 6q13 0 21.5 -11
t8.5 -26q0 -24 -21 -38z" />
    <glyph glyph-name="d" unicode="d" horiz-adv-x="655" 
d="M547 754q17 0 30.5 -11.5t13.5 -31.5v-672q0 -20 -13 -31.5t-31 -11.5q-17 0 -30.5 11.5t-13.5 31.5v82q-23 -59 -78 -95t-131 -36q-115 0 -186.5 77t-71.5 192q0 116 72.5 191.5t189.5 75.5q67 0 121.5 -32.5t83.5 -89.5v307q0 20 13.5 31.5t30.5 11.5zM314 68
q82 0 135.5 54.5t53.5 135.5q0 80 -53.5 134.5t-135.5 54.5q-83 0 -136.5 -53.5t-53.5 -135.5t54 -136t136 -54z" />
    <glyph glyph-name="e" unicode="e" horiz-adv-x="594" 
d="M558 280q2 -22 -10 -34t-33 -12h-392q4 -76 55.5 -123.5t127.5 -47.5q98 0 154 83q12 18 30 18q14 0 25.5 -12t11.5 -28q0 -13 -9 -25q-79 -109 -213 -109q-117 0 -193 74t-76 194q0 114 74.5 191t187.5 77q108 0 179 -67t81 -179zM298 454q-72 0 -121.5 -45.5
t-53.5 -113.5h350q-5 68 -53 113.5t-122 45.5z" />
    <glyph glyph-name="f" unicode="f" horiz-adv-x="351" 
d="M187 515h107q14 0 24 -10t10 -25q0 -14 -10 -24t-24 -10h-107v-407q0 -17 -13 -30t-31 -13t-30.5 13t-12.5 30v407h-31q-14 0 -24.5 10t-10.5 24t10.5 24.5t24.5 10.5h31v82q0 82 43 120t110 38q21 0 48 -5q34 -6 34 -38q0 -15 -11 -25.5t-29 -8.5q-8 1 -24 1
q-42 0 -64 -20.5t-20 -72.5v-71z" />
    <glyph glyph-name="g" unicode="g" horiz-adv-x="655" 
d="M548 519q17 0 30 -11.5t13 -31.5v-430q0 -138 -74 -213.5t-201 -75.5q-116 0 -200 52q-26 16 -26 41q0 14 9 23t24 9q11 0 20 -4q4 -2 27 -12t39 -15.5t44.5 -11.5t56.5 -6q93 0 143 54t50 159v75q-23 -59 -78 -95t-131 -36q-115 0 -186.5 77t-71.5 192q0 116 72.5 191.5
t189.5 75.5q67 0 121.5 -32.5t83.5 -89.5v69q0 22 13.5 34t31.5 12zM314 68q82 0 135.5 54.5t53.5 135.5q0 80 -53.5 134.5t-135.5 54.5q-83 0 -136.5 -53.5t-53.5 -135.5t54 -136t136 -54z" />
    <glyph glyph-name="h" unicode="h" horiz-adv-x="595" 
d="M332 526q90 0 149 -55.5t59 -167.5v-262q0 -21 -13.5 -33t-31.5 -12q-17 0 -30.5 12t-13.5 33v250q0 84 -41 121.5t-103 37.5q-71 0 -113 -44.5t-43 -123.5v-243q0 -20 -13 -31.5t-30 -11.5q-18 0 -31 11.5t-13 31.5v672q0 20 13 31.5t31 11.5t30.5 -11.5t12.5 -31.5
v-292q52 107 181 107z" />
    <glyph glyph-name="i" unicode="i" horiz-adv-x="215" 
d="M108 592q-22 0 -38.5 16t-16.5 39t16 39.5t39 16.5t39.5 -16.5t16.5 -39.5t-16.5 -39t-39.5 -16zM64 39v437q0 20 13.5 31.5t30.5 11.5q18 0 31 -11.5t13 -31.5v-437q0 -20 -13 -31.5t-31 -11.5q-17 0 -30.5 11.5t-13.5 31.5z" />
    <glyph glyph-name="j" unicode="j" horiz-adv-x="215" 
d="M108 592q-22 0 -38.5 16t-16.5 39t16 39.5t39 16.5t39.5 -16.5t16.5 -39.5t-16.5 -39t-39.5 -16zM64 -193v669q0 20 13.5 31.5t30.5 11.5q18 0 31 -11.5t13 -31.5v-669q0 -21 -13 -32.5t-31 -11.5q-17 0 -30.5 11.5t-13.5 32.5z" />
    <glyph glyph-name="k" unicode="k" horiz-adv-x="518" 
d="M237 276l236 -216q11 -10 11 -24q0 -15 -13 -27t-30 -12q-18 0 -30 12l-263 243q3 -96 3 -212q0 -17 -12 -30.5t-31 -13.5q-18 0 -31 13t-13 30v672q0 17 13 30t31 13t30.5 -13t12.5 -30q0 -301 -3 -410l260 204q20 15 39 15q16 0 27.5 -9t11.5 -22q0 -16 -18 -30z" />
    <glyph glyph-name="l" unicode="l" horiz-adv-x="215" 
d="M64 39v672q0 20 13 31.5t31 11.5t30.5 -11.5t12.5 -31.5v-672q0 -20 -13 -31.5t-30 -11.5q-18 0 -31 11.5t-13 31.5z" />
    <glyph glyph-name="m" unicode="m" horiz-adv-x="864" 
d="M622 526q81 0 134 -52t53 -156v-277q0 -21 -13.5 -33t-31.5 -12q-17 0 -30.5 12t-13.5 33v264q0 77 -32 111t-82 34q-58 0 -91.5 -41t-33.5 -112v-256q0 -21 -13 -33t-31 -12t-31.5 12t-13.5 33v264q0 77 -32 111t-82 34q-58 0 -91.5 -40.5t-34.5 -112.5v-257
q0 -20 -13 -32t-31 -12t-31 12t-13 32v435q0 21 13.5 32.5t31.5 11.5t30.5 -11t12.5 -31v-44q44 93 151 93q52 0 92.5 -26t59.5 -79q44 105 167 105z" />
    <glyph glyph-name="n" unicode="n" horiz-adv-x="596" 
d="M333 526q89 0 148 -55.5t59 -167.5v-262q0 -21 -13 -33t-31 -12t-31 12t-13 33v250q0 84 -41 121.5t-103 37.5q-72 0 -113.5 -44.5t-42.5 -123.5v-242q0 -20 -13 -32t-31 -12t-31 12t-13 32v435q0 21 13 32.5t31 11.5t31 -11.5t13 -32.5v-56q52 107 181 107z" />
    <glyph glyph-name="o" unicode="o" horiz-adv-x="621" 
d="M310 -10q-117 0 -195.5 76.5t-78.5 191.5t78.5 191.5t195.5 76.5q118 0 196 -76.5t78 -191.5t-78 -191.5t-196 -76.5zM310 69q80 0 134.5 54.5t54.5 135.5q0 80 -54 134t-135 54q-80 0 -134.5 -54t-54.5 -134q0 -81 54.5 -135.5t134.5 -54.5z" />
    <glyph glyph-name="p" unicode="p" horiz-adv-x="655" 
d="M361 525q115 0 186.5 -77t71.5 -192q0 -116 -72.5 -191t-189.5 -75q-67 0 -121.5 32t-84.5 90v-305q0 -21 -12.5 -32.5t-30.5 -11.5t-31 11.5t-13 32.5v669q0 20 13 31.5t31 11.5q17 0 30 -11.5t13 -31.5v-81q24 60 79.5 95t130.5 35zM340 68q83 0 137 53.5t54 135.5
q0 83 -54 136.5t-137 53.5q-81 0 -134.5 -54.5t-53.5 -135.5q0 -80 53 -134.5t135 -54.5z" />
    <glyph glyph-name="q" unicode="q" horiz-adv-x="655" 
d="M547 519q18 0 31 -11.5t13 -31.5v-669q0 -21 -13 -32.5t-31 -11.5q-17 0 -30.5 11.5t-13.5 32.5v314q-23 -59 -78 -95t-131 -36q-115 0 -186.5 77t-71.5 192q0 116 72.5 191.5t189.5 75.5q67 0 121.5 -32.5t83.5 -89.5v72q0 20 13.5 31.5t30.5 11.5zM314 68
q82 0 135.5 54.5t53.5 135.5q0 80 -53.5 134.5t-135.5 54.5q-83 0 -136.5 -53.5t-53.5 -135.5t54 -136t136 -54z" />
    <glyph glyph-name="r" unicode="r" horiz-adv-x="352" 
d="M294 518q22 0 33 -10.5t11 -25.5q0 -16 -11.5 -29t-38.5 -12q-64 1 -100.5 -31.5t-36.5 -91.5v-279q0 -20 -13 -31.5t-30 -11.5q-18 0 -31 11.5t-13 31.5v437q0 20 13 31.5t31 11.5q17 0 30 -11.5t13 -31.5v-42q42 84 143 84z" />
    <glyph glyph-name="s" unicode="s" horiz-adv-x="482" 
d="M248 -10q-144 0 -202 100q-8 13 -8 29q0 18 12 30.5t27 12.5q22 0 35 -24q42 -78 137 -78q51 0 81.5 20t30.5 55q0 33 -32 53.5t-78 33t-92 27.5t-78 47t-32 82q0 67 53 107t134 40q58 0 107 -24.5t73 -64.5q9 -15 9 -29q0 -16 -10 -28t-24 -12q-19 0 -35 22
q-48 68 -121 68q-44 0 -72.5 -20t-28.5 -52q0 -27 23.5 -45.5t58.5 -27.5t75.5 -22t75.5 -27.5t58.5 -46t23.5 -75.5q0 -72 -55 -111.5t-146 -39.5z" />
    <glyph glyph-name="t" unicode="t" horiz-adv-x="331" 
d="M191 515h79q14 0 24.5 -10.5t10.5 -24.5t-10.5 -24t-24.5 -10h-79v-407q0 -20 -13 -31.5t-30 -11.5q-18 0 -31 11.5t-13 31.5v407h-46q-14 0 -24.5 10t-10.5 24t10.5 24.5t24.5 10.5h46v109q0 20 13.5 31.5t30.5 11.5t30 -11.5t13 -31.5v-109z" />
    <glyph glyph-name="u" unicode="u" horiz-adv-x="596" 
d="M488 519q18 0 31 -11.5t13 -32.5v-435q0 -21 -13 -32.5t-31 -11.5t-31 12t-13 32v55q-52 -105 -180 -105q-90 0 -149 55t-59 167v262q0 21 13 33t31 12t31 -12t13 -33v-250q0 -83 41 -121t104 -38q70 0 112 43.5t43 124.5v242q0 21 13.5 32.5t30.5 11.5z" />
    <glyph glyph-name="v" unicode="v" horiz-adv-x="526" 
d="M265 -4q-43 0 -60 41l-175 422q-4 9 -4 19q0 18 14.5 30t31.5 12q30 0 41 -31q127 -326 153 -403q17 62 148 404q11 30 40 30q18 0 32.5 -12t14.5 -30q0 -9 -4 -17l-172 -424q-16 -41 -60 -41z" />
    <glyph glyph-name="w" unicode="w" horiz-adv-x="818" 
d="M233 -5q-19 0 -35 12t-22 31l-140 425q-3 9 -3 16q0 18 13.5 29.5t32.5 11.5q32 0 41 -34q18 -70 64.5 -215.5t53.5 -172.5q17 67 119 378q14 45 55 45t55 -43q97 -296 116 -374q14 55 119 382q11 33 41 33q17 0 30 -11t13 -28q0 -8 -3 -15l-141 -428q-6 -18 -22 -30
t-35 -12q-42 0 -57 44q-101 307 -117 375q-22 -78 -121 -375q-14 -44 -57 -44z" />
    <glyph glyph-name="x" unicode="x" horiz-adv-x="519" 
d="M415 16q-94 109 -156 190q-65 -86 -158 -192q-14 -17 -37 -17q-16 0 -27.5 9.5t-11.5 24.5q0 17 16 36l170 192l-168 190q-14 15 -14 33q0 16 11.5 27t27.5 11q19 0 37 -19q94 -104 154 -184q61 80 159 184q19 19 39 19q15 0 25.5 -10t10.5 -25q0 -19 -15 -35l-164 -188
l168 -198q12 -15 12 -30q0 -16 -12 -27t-28 -11q-22 0 -39 20z" />
    <glyph glyph-name="y" unicode="y" horiz-adv-x="545" 
d="M433 491q12 29 41 29q18 0 31.5 -11.5t13.5 -29.5q0 -11 -4 -20l-277 -666q-12 -28 -41 -28q-17 0 -30 11.5t-13 28.5q0 9 4 18l72 175l-200 460q-4 8 -4 18q0 18 14.5 30.5t33.5 12.5q29 0 40 -28q98 -240 162 -406q54 144 157 406z" />
    <glyph glyph-name="z" unicode="z" horiz-adv-x="468" 
d="M35 478q0 15 11 26t26 11h315q39 0 39 -28q0 -11 -9 -24l-260 -389h242q15 0 26 -11t11 -26t-11 -26t-26 -11h-318q-18 0 -28.5 8t-10.5 21q0 12 8 23l260 389h-238q-15 0 -26 11t-11 26z" />
    <glyph glyph-name="braceleft" unicode="{" horiz-adv-x="287" 
d="M237 -152q-162 -9 -162 127q0 17 1 26l20 190q2 24 -7.5 35t-35.5 17q-28 7 -28 38t28 37q25 6 35.5 16t7.5 36l-20 189q-1 9 -1 26q0 135 161 128q18 -1 28 -11.5t10 -25.5q0 -14 -8.5 -24.5t-27.5 -11.5q-83 -2 -83 -74q0 -12 1 -18l22 -190q1 -4 1 -13q0 -50 -43 -65
q49 -21 42 -79l-22 -189q-1 -7 -1 -18q0 -42 23 -57t62 -16q15 -1 24.5 -11.5t9.5 -24.5q0 -15 -9.5 -25.5t-27.5 -11.5z" />
    <glyph glyph-name="bar" unicode="|" horiz-adv-x="262" 
d="M130 -84q-14 0 -24.5 10.5t-10.5 24.5v808q0 14 10.5 24.5t24.5 10.5q15 0 25.5 -10.5t10.5 -24.5v-808q0 -14 -10.5 -24.5t-25.5 -10.5z" />
    <glyph glyph-name="braceright" unicode="}" horiz-adv-x="287" 
d="M49 712q163 9 163 -126q0 -17 -1 -27l-20 -189q-3 -25 8 -36t36 -17q27 -6 27 -37t-28 -38q-26 -7 -36 -16.5t-7 -35.5l21 -188q2 -20 2 -28q0 -133 -164 -126q-18 1 -27.5 11.5t-9.5 25.5q0 13 9.5 24t26.5 12q37 1 60 16t23 58q0 11 -1 18l-21 189q-1 5 -1 13
q0 50 43 65q-49 22 -42 80l21 188q1 6 1 17q0 41 -22.5 57t-63.5 18q-15 1 -24 11t-9 24t9 25t27 12z" />
    <glyph glyph-name="asciitilde" unicode="~" horiz-adv-x="571" 
d="M83 262q30 74 106 74q41 0 101.5 -34.5t84.5 -34.5q35 0 51 33q9 18 29 18q14 0 25 -9.5t11 -24.5q0 -8 -4 -16q-31 -72 -105 -72q-40 0 -102 34.5t-86 34.5q-35 0 -52 -33q-9 -16 -27 -16q-13 0 -24 9t-11 23q0 6 3 14z" />
    <glyph glyph-name="exclamdown" unicode="&#xa1;" horiz-adv-x="263" 
d="M132 523q22 0 37.5 -16t15.5 -38t-15.5 -37.5t-37.5 -15.5t-38 15.5t-16 37.5q0 23 16 38.5t38 15.5zM132 328q16 0 28 -12t12 -28l4 -445q0 -17 -12.5 -31t-31.5 -14q-20 0 -32 14t-12 31l4 445q0 16 12 28t28 12z" />
    <glyph glyph-name="cent" unicode="&#xa2;" horiz-adv-x="526" 
d="M434 105q10 6 18 6q13 0 21.5 -11t8.5 -26q0 -24 -21 -38q-53 -35 -120 -43v-65q0 -15 -11 -26.5t-26 -11.5q-16 0 -27 11.5t-11 26.5v65q-96 13 -162 82t-66 183t66 182.5t162 80.5v67q0 15 11 26.5t27 11.5q15 0 26 -11.5t11 -26.5v-67q69 -8 120 -43q23 -16 23 -40
q0 -14 -8.5 -24.5t-21.5 -10.5q-9 0 -18 6q-54 36 -120 36q-78 0 -134.5 -50t-56.5 -137q0 -85 56 -136.5t134 -51.5q64 0 119 35z" />
    <glyph glyph-name="sterling" unicode="&#xa3;" horiz-adv-x="594" 
d="M498 83q9 3 15 3q16 0 25.5 -11t9.5 -25q0 -28 -27 -38q-55 -21 -102 -21t-110.5 18.5t-97.5 18.5q-22 0 -39 -5t-35 -13.5t-26 -11.5q-8 -2 -12 -2q-14 0 -23.5 11.5t-9.5 26.5q0 22 20 33q64 33 91.5 66t27.5 76q0 23 -10 50h-97q-12 0 -21 9t-9 21q0 13 9 22t21 9h62
q-2 2 -14 20t-15 23t-13 21.5t-13.5 24.5l-10.5 24t-9.5 27.5t-5 27t-2.5 31.5q0 91 62.5 146t160.5 55q85 0 142 -49.5t75 -134.5q1 -3 1 -11q0 -19 -11.5 -34t-32.5 -15q-13 0 -25.5 8t-14.5 24q-8 61 -43 97t-94 36q-57 0 -94 -34.5t-37 -93.5q0 -35 13 -66t40 -71
t36 -56h162q12 0 21 -9t9 -22q0 -12 -9 -21t-21 -9h-138q4 -24 4 -39q0 -72 -55 -117q30 -2 90 -18.5t100 -16.5q32 0 80 15z" />
    <glyph glyph-name="currency" unicode="&#xa4;" horiz-adv-x="633" 
d="M316 133q-70 0 -126 43l-47 -49q-12 -12 -26 -12q-16 0 -29 12t-13 28q0 14 12 26l50 52q-38 51 -38 116q0 64 36 114l-48 49q-12 12 -12 27t12.5 26.5t28.5 11.5t27 -11l44 -46q57 44 129 44q73 0 128 -44l45 46q11 12 28 12q16 0 28 -11.5t12 -26.5q0 -16 -12 -28
l-48 -50q34 -49 34 -113t-36 -116l51 -51q12 -12 12 -26q0 -16 -12.5 -28.5t-29.5 -12.5q-15 0 -27 12l-48 49q-54 -43 -125 -43zM315 208q59 0 99.5 41t40.5 100t-40.5 100t-98.5 41t-99.5 -41t-41.5 -100t40.5 -100t99.5 -41z" />
    <glyph glyph-name="yen" unicode="&#xa5;" horiz-adv-x="588" 
d="M522 714q18 0 31 -11.5t13 -29.5q0 -13 -8 -25l-185 -292h137q12 0 21 -9t9 -21q0 -13 -9 -21.5t-21 -8.5h-172v-73h172q12 0 21 -9t9 -21q0 -13 -9 -21.5t-21 -8.5h-172v-123q0 -18 -13 -31.5t-31 -13.5q-19 0 -32 13.5t-13 31.5v123h-171q-12 0 -21 9t-9 21t9 21t21 9
h171v73h-171q-12 0 -21 9t-9 21t9 21t21 9h136l-184 291q-7 11 -7 23q0 18 14 30.5t32 12.5q25 0 39 -23q160 -258 186 -315q25 54 188 314q15 25 40 25z" />
    <glyph glyph-name="brokenbar" unicode="&#xa6;" horiz-adv-x="262" 
d="M130 496q-14 0 -24.5 10.5t-10.5 24.5v228q0 14 10.5 24.5t24.5 10.5q15 0 25.5 -10.5t10.5 -24.5v-228q0 -14 -10.5 -24.5t-25.5 -10.5zM130 -84q-14 0 -24.5 10.5t-10.5 24.5v228q0 14 10.5 24.5t24.5 10.5q15 0 25.5 -10.5t10.5 -24.5v-228q0 -14 -10.5 -24.5
t-25.5 -10.5z" />
    <glyph glyph-name="section" unicode="&#xa7;" horiz-adv-x="519" 
d="M382 238q66 -43 66 -106q0 -65 -51.5 -103.5t-135.5 -38.5q-129 0 -184 100q-8 16 -8 27q0 18 12 30t27 12q22 0 36 -24q25 -42 52 -60.5t68 -18.5q43 0 69.5 19.5t26.5 53.5q0 26 -21.5 43.5t-66.5 35.5l-81 32q-51 20 -89 56t-38 89q0 41 23.5 74.5t64.5 54.5
q-73 41 -73 109q0 62 50 99.5t124 37.5q115 0 165 -92q6 -10 6 -22q0 -17 -10 -30t-25 -13q-18 0 -34 24q-23 35 -46.5 52t-58.5 17q-37 0 -61 -17.5t-24 -48.5q0 -20 16 -36.5t33 -25t46 -20.5l66 -26q138 -55 138 -157q0 -87 -82 -127zM247 295l65 -23q33 10 51.5 33
t18.5 52q0 65 -111 107l-47 18q-37 -10 -58.5 -33.5t-21.5 -54.5q0 -62 103 -99z" />
    <glyph glyph-name="dieresis" unicode="&#xa8;" horiz-adv-x="390" 
d="M104 599q-21 0 -35.5 14.5t-14.5 35.5t14.5 35.5t35.5 14.5q22 0 36.5 -14.5t14.5 -35.5t-15 -35.5t-36 -14.5zM284 599q-21 0 -35.5 14.5t-14.5 35.5t14.5 35.5t35.5 14.5q22 0 36.5 -14.5t14.5 -35.5t-15 -35.5t-36 -14.5z" />
    <glyph glyph-name="copyright" unicode="&#xa9;" horiz-adv-x="910" 
d="M455 -43q-169 0 -286.5 117t-117.5 285q0 169 117.5 286t286.5 117q170 0 287.5 -117t117.5 -286t-117.5 -285.5t-287.5 -116.5zM455 10q145 0 245.5 101.5t100.5 247.5t-100.5 248t-245.5 102q-144 0 -244.5 -102t-100.5 -248t100.5 -247.5t244.5 -101.5zM593 172
q-48 -37 -117 -37q-89 0 -157 58.5t-68 164.5q0 107 68 165.5t157 58.5q69 0 115 -35q16 -12 16 -28q0 -12 -9 -21t-20 -9q-8 0 -13 4q-37 24 -86 24q-64 0 -111.5 -42t-47.5 -117t47 -117t111 -42q48 0 87 25q5 4 12 4q11 0 20.5 -9t9.5 -21q0 -15 -14 -26z" />
    <glyph glyph-name="ordfeminine" unicode="&#xaa;" horiz-adv-x="489" 
d="M390 715q15 0 25 -10.5t10 -25.5v-300q0 -15 -10 -25.5t-25 -10.5q-14 0 -25 10.5t-11 24.5v40q-46 -77 -141 -77q-81 0 -130.5 54.5t-49.5 134.5q0 81 50.5 134t132.5 53q44 0 80.5 -19t56.5 -54v37q0 14 11 24t26 10zM229 404q54 0 89.5 36t35.5 89t-35.5 89t-89.5 36
q-55 0 -90 -35.5t-35 -89.5t35 -89.5t90 -35.5z" />
    <glyph glyph-name="guillemotleft" unicode="&#xab;" horiz-adv-x="424" 
d="M205 358l-86 -118l85 -118q8 -11 8 -23q0 -15 -12 -25.5t-27 -10.5q-19 0 -31 16l-95 129q-11 14 -11 30t12 33l94 129q11 15 30 15q15 0 27.5 -10.5t12.5 -25.5q0 -11 -7 -21zM363 358l-86 -118l85 -118q8 -11 8 -23q0 -15 -12 -25.5t-27 -10.5q-19 0 -31 16l-95 129
q-11 16 -11 31q0 17 12 32l94 129q11 15 30 15q15 0 27.5 -10.5t12.5 -25.5q0 -11 -7 -21z" />
    <glyph glyph-name="logicalnot" unicode="&#xac;" horiz-adv-x="518" 
d="M49 300q0 16 11.5 27t26.5 11h288q47 0 47 -48v-140q0 -17 -12 -29t-28 -12q-17 0 -29.5 12t-12.5 29v113h-253q-15 0 -26.5 11t-11.5 26z" />
    <glyph glyph-name="registered" unicode="&#xae;" horiz-adv-x="548" 
d="M272 715q100 0 166.5 -65t66.5 -163q0 -96 -66.5 -160.5t-166.5 -64.5q-98 0 -163.5 64.5t-65.5 160.5q0 97 66 162.5t163 65.5zM272 301q82 0 136.5 52t54.5 134q0 80 -54.5 134t-136.5 54q-80 0 -134 -53t-54 -135q0 -79 54.5 -132.5t133.5 -53.5zM375 545
q0 -37 -24.5 -56.5t-58.5 -19.5h-15l76 -78q5 -5 5 -12t-6.5 -13t-14.5 -6t-14 6l-95 103v-89q-11 -21 -27 -21q-13 0 -13 21v223q0 20 20 20h78q41 0 65 -21.5t24 -56.5zM228 585v-88h54q24 0 38 12t14 33q0 43 -52 43h-54z" />
    <glyph glyph-name="macron" unicode="&#xaf;" horiz-adv-x="441" 
d="M346 600h-251q-14 0 -24.5 10.5t-10.5 24.5t10.5 24.5t24.5 10.5h251q14 0 24.5 -10.5t10.5 -24.5t-10.5 -24.5t-24.5 -10.5z" />
    <glyph glyph-name="degree" unicode="&#xb0;" horiz-adv-x="468" 
d="M234 385q-71 0 -120 49t-49 119t49 118.5t120 48.5q70 0 119 -48.5t49 -118.5t-49 -119t-119 -49zM234 447q43 0 73 31t30 75t-30 75t-73 31t-73.5 -31t-30.5 -75t30.5 -75t73.5 -31z" />
    <glyph glyph-name="plusminus" unicode="&#xb1;" horiz-adv-x="466" 
d="M191 340h-108q-16 0 -27.5 11.5t-11.5 27.5t11.5 28t27.5 12h108v107q0 17 12.5 29.5t29.5 12.5t30 -12.5t13 -29.5v-107h106q16 0 28 -12t12 -28t-12 -27.5t-28 -11.5h-106v-107q0 -17 -13 -29.5t-30 -12.5t-29.5 12.5t-12.5 29.5v107zM83 137h299q16 0 28 -12t12 -28
t-12 -27.5t-28 -11.5h-299q-16 0 -27.5 11.5t-11.5 27.5t11.5 28t27.5 12z" />
    <glyph glyph-name="uni00B2" unicode="&#xb2;" horiz-adv-x="379" 
d="M316 354h-221q-27 0 -43 12t-16 34q0 41 24.5 74t59 54.5t69 41.5t59 45t24.5 55q0 33 -22.5 54.5t-58.5 21.5q-34 0 -56.5 -20.5t-28.5 -53.5q-1 -9 -10 -14.5t-19 -5.5q-15 0 -23.5 10.5t-8.5 25.5q0 6 2 14q15 46 52.5 76t91.5 30q63 0 105.5 -37.5t42.5 -99.5
q0 -43 -22 -76t-55 -54t-66 -38.5t-58.5 -39t-30.5 -46.5h209q12 0 21.5 -9t9.5 -22t-9.5 -22.5t-21.5 -9.5z" />
    <glyph glyph-name="uni00B3" unicode="&#xb3;" horiz-adv-x="385" 
d="M197 348q-58 0 -100.5 29.5t-56.5 77.5q-2 10 -2 14q0 15 9 24.5t22 9.5q25 0 28 -19q7 -35 33.5 -56t62.5 -21q40 0 65 22t25 55q0 36 -28 54.5t-63 18.5h-20q-13 0 -20 8.5t-7 19.5t8 19t21 8h18q33 0 53.5 19.5t20.5 49.5q0 29 -22 48t-57 19q-34 0 -55.5 -20.5
t-27.5 -50.5q-3 -21 -28 -21q-14 0 -23 9.5t-9 24.5q0 7 3 16q15 47 53.5 74.5t91.5 27.5q63 0 102 -33t39 -87q0 -66 -57 -100q74 -30 74 -106q0 -57 -41 -95.5t-112 -38.5z" />
    <glyph glyph-name="acute" unicode="&#xb4;" horiz-adv-x="216" 
d="M44 618l52 94q14 24 40 24q15 0 26 -9t11 -23q0 -13 -12 -31l-58 -83q-14 -20 -34 -20q-12 0 -21.5 8.5t-9.5 20.5q0 9 6 19z" />
    <glyph glyph-name="uni00B5" unicode="&#xb5;" horiz-adv-x="647" 
d="M526 519q19 0 32 -13t13 -31v-435q0 -17 -13 -30.5t-31 -13.5q-16 0 -28.5 10.5t-12.5 31.5v58q-48 -106 -167 -106q-100 0 -137 70v-251q0 -17 -13 -30t-31 -13t-30.5 13t-12.5 30v667q0 18 12.5 30.5t31.5 12.5q18 0 30.5 -13t12.5 -30v-252q0 -83 41 -121t104 -38
q72 0 113.5 45.5t41.5 125.5v239q0 18 13 31t31 13z" />
    <glyph glyph-name="paragraph" unicode="&#xb6;" horiz-adv-x="636" 
d="M505 -4q-14 0 -24.5 10.5t-10.5 24.5v648q0 14 10.5 24.5t24.5 10.5q15 0 25.5 -10.5t10.5 -24.5v-648q0 -14 -10.5 -24.5t-25.5 -10.5zM329 -4q-15 0 -25.5 10.5t-10.5 24.5v225q-108 0 -177.5 60t-69.5 167q0 108 73.5 167.5t198.5 59.5q46 0 46 -46v-633
q0 -14 -10.5 -24.5t-24.5 -10.5z" />
    <glyph glyph-name="periodcentered" unicode="&#xb7;" horiz-adv-x="263" 
d="M132 200q-22 0 -38 15.5t-16 37.5q0 23 16 38.5t38 15.5t37.5 -16t15.5 -38t-15.5 -37.5t-37.5 -15.5z" />
    <glyph glyph-name="cedilla" unicode="&#xb8;" horiz-adv-x="248" 
d="M76 -56l27 74l62 -3l-29 -79q32 -6 54 -28.5t22 -54.5q0 -39 -29 -63.5t-80 -24.5q-22 0 -53 10q-17 6 -17 25q0 23 20 23q6 0 9 -1q18 -5 35 -5q50 0 50 38q0 18 -14 30t-36 15q-24 4 -24 28q0 7 3 16z" />
    <glyph glyph-name="uni00B9" unicode="&#xb9;" horiz-adv-x="333" 
d="M201 413h76q11 0 20 -8.5t9 -20.5t-9 -21t-20 -9h-217q-12 0 -21 9t-9 21t9 20.5t21 8.5h74v321l-62 -19q-3 -1 -9 -1q-12 0 -19 8.5t-7 20.5q0 23 22 29l94 27q5 2 15 2q33 0 33 -40v-348z" />
    <glyph glyph-name="ordmasculine" unicode="&#xba;" horiz-adv-x="449" 
d="M225 341q-83 0 -138 53.5t-55 134.5t55 134.5t138 53.5t137.5 -53.5t54.5 -134.5t-55 -134.5t-137 -53.5zM225 405q53 0 89 36t36 89t-35.5 88.5t-89.5 35.5q-53 0 -89 -35.5t-36 -88.5q0 -54 36 -89.5t89 -35.5z" />
    <glyph glyph-name="guillemotright" unicode="&#xbb;" horiz-adv-x="424" 
d="M124 400l95 -129q11 -16 11 -32q0 -17 -11 -31l-95 -128q-12 -16 -30 -16q-15 0 -27.5 10.5t-12.5 24.5q0 9 8 22l85 119l-85 117q-8 11 -8 22q0 15 12.5 26t27.5 11q18 0 30 -16zM282 400l95 -129q11 -16 11 -32q0 -17 -11 -31l-95 -128q-12 -16 -30 -16
q-15 0 -27.5 10.5t-12.5 24.5q0 9 8 22l85 119l-85 117q-8 11 -8 22q0 15 12.5 26t27.5 11q18 0 30 -16z" />
    <glyph glyph-name="onequarter" unicode="&#xbc;" horiz-adv-x="837" 
d="M570 713q14 0 25 -8.5t11 -22.5q0 -8 -4 -15l-308 -651q-10 -20 -32 -20q-13 0 -23 8t-10 22q0 9 4 17l307 651q9 19 30 19zM306 293q0 -13 -9 -21.5t-20 -8.5h-217q-12 0 -21 9t-9 21t9 20.5t21 8.5h74v321l-62 -19q-3 -1 -9 -1q-12 0 -19 8.5t-7 20.5q0 23 22 29l94 27
q5 2 15 2q33 0 33 -40v-348h76q11 0 20 -8.5t9 -20.5zM742 146h44q11 0 19 -8t8 -19t-8 -19t-19 -8h-44v-63q0 -13 -10 -23t-23 -10t-23 10t-10 23v63h-182q-14 0 -22.5 9.5t-8.5 22.5q0 9 5 17l203 293q12 17 32 17q16 0 27.5 -11.5t11.5 -27.5v-266zM537 146h139
q0 134 5 221q-60 -97 -144 -221z" />
    <glyph glyph-name="onehalf" unicode="&#xbd;" horiz-adv-x="881" 
d="M570 713q14 0 25 -8.5t11 -22.5q0 -8 -4 -15l-308 -651q-10 -20 -32 -20q-13 0 -23 8t-10 22q0 9 4 17l307 651q9 19 30 19zM306 293q0 -13 -9 -21.5t-20 -8.5h-217q-12 0 -21 9t-9 21t9 20.5t21 8.5h74v321l-62 -19q-3 -1 -9 -1q-12 0 -19 8.5t-7 20.5q0 23 22 29l94 27
q5 2 15 2q33 0 33 -40v-348h76q11 0 20 -8.5t9 -20.5zM608 63h209q12 0 21.5 -9t9.5 -22t-9.5 -22.5t-21.5 -9.5h-221q-27 0 -43 12t-16 34q0 41 24.5 74t59 54.5t69 41.5t59 45t24.5 55q0 33 -22.5 54.5t-58.5 21.5q-34 0 -56.5 -20.5t-28.5 -53.5q-1 -9 -10 -14.5
t-19 -5.5q-15 0 -23.5 10.5t-8.5 25.5q0 6 2 14q15 46 52.5 76t91.5 30q63 0 105.5 -37.5t42.5 -99.5q0 -43 -22 -76t-55 -54t-66 -38.5t-58.5 -39t-30.5 -46.5z" />
    <glyph glyph-name="threequarters" unicode="&#xbe;" horiz-adv-x="889" 
d="M197 257q-58 0 -100.5 29.5t-56.5 77.5q-2 10 -2 14q0 15 9 24.5t22 9.5q25 0 28 -19q7 -35 33.5 -56t62.5 -21q40 0 65 22t25 55q0 36 -28 54.5t-63 18.5h-20q-13 0 -20 8.5t-7 19.5t8 19t21 8h18q33 0 53.5 19.5t20.5 49.5q0 29 -22 48t-57 19q-34 0 -55.5 -20.5
t-27.5 -50.5q-3 -21 -28 -21q-14 0 -23 9.5t-9 24.5q0 7 3 16q15 47 53.5 74.5t91.5 27.5q63 0 102 -33t39 -87q0 -66 -57 -100q74 -30 74 -106q0 -57 -41 -95.5t-112 -38.5zM654 667l-308 -651q-10 -20 -32 -20q-13 0 -23 8t-10 22q0 9 4 17l307 651q9 19 30 19
q14 0 25 -8.5t11 -22.5q0 -8 -4 -15zM761 -4q-13 0 -23 10t-10 23v63h-182q-14 0 -22.5 9.5t-8.5 22.5q0 9 5 17l203 293q12 17 32 17q16 0 27.5 -11.5t11.5 -27.5v-266h44q11 0 19 -8t8 -19t-8 -19t-19 -8h-44v-63q0 -13 -10 -23t-23 -10zM589 146h139q0 134 5 221
q-49 -82 -144 -221z" />
    <glyph glyph-name="questiondown" unicode="&#xbf;" horiz-adv-x="472" 
d="M244 522q22 0 38 -16t16 -38t-16 -37.5t-38 -15.5t-37.5 15.5t-15.5 37.5t15.5 38t37.5 16zM370 -3q6 30 35 30q19 0 34.5 -13.5t15.5 -34.5q0 -4 -2 -12q-21 -84 -79 -129.5t-139 -45.5q-97 0 -156.5 54t-59.5 137q0 81 49.5 134t134.5 67v101q0 18 11.5 28.5t27.5 10.5
t28.5 -10.5t12.5 -28.5v-122q0 -41 -46 -46q-62 -7 -95.5 -40t-33.5 -85q0 -49 34.5 -82.5t92.5 -33.5q51 0 87 31.5t48 89.5z" />
    <glyph glyph-name="Agrave" unicode="&#xc0;" horiz-adv-x="647" 
d="M280 785l-58 83q-11 16 -11 31q0 14 11 22.5t26 8.5q27 0 40 -23l52 -94q5 -9 5 -19q0 -12 -9 -20t-22 -8q-20 0 -34 19zM389 668l222 -612q3 -9 3 -16q0 -20 -15.5 -32t-33.5 -12q-30 0 -41 32q-44 127 -55 158h-294q-8 -25 -27 -78t-28 -81q-12 -32 -41 -32
q-17 0 -31 12t-14 30q0 8 3 17l221 614q7 20 22 33t31 13h23q38 0 55 -46zM200 260h244q-113 330 -123 389q-12 -72 -121 -389z" />
    <glyph glyph-name="Aacute" unicode="&#xc1;" horiz-adv-x="647" 
d="M427 868l-58 -83q-14 -20 -34 -20q-12 0 -21 8t-9 20q0 10 5 19l51 94q13 24 40 24q16 0 26.5 -8.5t10.5 -23.5t-11 -30zM389 668l222 -612q3 -9 3 -16q0 -20 -15.5 -32t-33.5 -12q-30 0 -41 32q-44 127 -55 158h-294q-8 -25 -27 -78t-28 -81q-12 -32 -41 -32
q-17 0 -31 12t-14 30q0 8 3 17l221 614q7 20 22 33t31 13h23q38 0 55 -46zM200 260h244q-113 330 -123 389q-12 -72 -121 -389z" />
    <glyph glyph-name="Acircumflex" unicode="&#xc2;" horiz-adv-x="647" 
d="M263 791q-13 -15 -32 -15q-12 0 -20.5 7t-8.5 19q0 17 15 33l67 76q16 18 41 18q27 0 42 -17l67 -77q15 -18 15 -32q0 -12 -8.5 -19.5t-20.5 -7.5q-20 0 -33 17q-43 53 -61 82q-34 -51 -63 -84zM389 668l222 -612q3 -9 3 -16q0 -20 -15.5 -32t-33.5 -12q-30 0 -41 32
q-44 127 -55 158h-294q-8 -25 -27 -78t-28 -81q-12 -32 -41 -32q-17 0 -31 12t-14 30q0 8 3 17l221 614q7 20 22 33t31 13h23q38 0 55 -46zM200 260h244q-113 330 -123 389q-12 -72 -121 -389z" />
    <glyph glyph-name="Atilde" unicode="&#xc3;" horiz-adv-x="647" 
d="M227 808q-10 -16 -26 -16q-13 0 -23 10t-10 25q0 11 5 20q27 56 86 56q29 0 68 -23t57 -23q13 0 20 5.5t16 19.5q12 18 28 18q14 0 24 -10.5t10 -26.5q0 -11 -5 -20q-27 -54 -85 -54q-31 0 -70.5 22.5t-57.5 22.5q-22 0 -37 -26zM389 668l222 -612q3 -9 3 -16
q0 -20 -15.5 -32t-33.5 -12q-30 0 -41 32q-44 127 -55 158h-294q-8 -25 -27 -78t-28 -81q-12 -32 -41 -32q-17 0 -31 12t-14 30q0 8 3 17l221 614q7 20 22 33t31 13h23q38 0 55 -46zM200 260h244q-113 330 -123 389q-12 -72 -121 -389z" />
    <glyph glyph-name="Adieresis" unicode="&#xc4;" horiz-adv-x="647" 
d="M234 794q-21 0 -35.5 14.5t-14.5 35.5t14.5 35.5t35.5 14.5t36 -14.5t15 -35.5t-15 -35.5t-36 -14.5zM414 794q-21 0 -35.5 14.5t-14.5 35.5t14.5 35.5t35.5 14.5t36 -14.5t15 -35.5t-15 -35.5t-36 -14.5zM389 668l222 -612q3 -9 3 -16q0 -20 -15.5 -32t-33.5 -12
q-30 0 -41 32q-44 127 -55 158h-294q-8 -25 -27 -78t-28 -81q-12 -32 -41 -32q-17 0 -31 12t-14 30q0 8 3 17l221 614q7 20 22 33t31 13h23q38 0 55 -46zM200 260h244q-113 330 -123 389q-12 -72 -121 -389z" />
    <glyph glyph-name="Aring" unicode="&#xc5;" horiz-adv-x="647" 
d="M325 770q-40 0 -69 28.5t-29 68.5q0 41 28.5 69.5t69.5 28.5t69.5 -28.5t28.5 -69.5q0 -40 -28.5 -68.5t-69.5 -28.5zM325 916q-20 0 -34.5 -14t-14.5 -35q0 -20 14.5 -34.5t34.5 -14.5t34.5 14.5t14.5 34.5q0 21 -14.5 35t-34.5 14zM389 668l222 -612q3 -9 3 -16
q0 -20 -15.5 -32t-33.5 -12q-30 0 -41 32q-44 127 -55 158h-294q-8 -25 -27 -78t-28 -81q-12 -32 -41 -32q-17 0 -31 12t-14 30q0 8 3 17l221 614q7 20 22 33t31 13h23q38 0 55 -46zM200 260h244q-113 330 -123 389q-12 -72 -121 -389z" />
    <glyph glyph-name="AE" unicode="&#xc6;" horiz-adv-x="891" 
d="M514 81h302q17 0 29 -12t12 -29q0 -16 -12 -28t-29 -12h-344q-22 0 -34.5 12.5t-12.5 34.5v132h-242l-83 -159q-13 -24 -37 -24q-17 0 -31 12t-14 29q0 11 5 20l329 619q19 34 56 34h408q17 0 29 -12t12 -28q0 -17 -12 -29t-29 -12h-302v-228h237q16 0 28 -12t12 -28
t-12 -27.5t-28 -11.5h-237v-241zM421 632l-198 -378h202v378h-4z" />
    <glyph glyph-name="Ccedilla" unicode="&#xc7;" horiz-adv-x="653" 
d="M559 108q9 5 19 5q14 0 23 -10.5t9 -25.5q0 -25 -23 -38q-73 -45 -170 -48l-20 -55q35 -7 55.5 -29t20.5 -55q0 -40 -29.5 -63.5t-78.5 -23.5q-24 0 -54 10q-18 6 -18 25q0 9 6 16t16 7q6 0 9 -1q18 -5 35 -5q49 0 49 38q0 18 -14 30t-35 15q-25 4 -25 29q0 6 3 15l18 50
q-131 16 -222 109.5t-91 251.5q0 91 32 162.5t85 113.5t116 64t131 22q104 0 181 -46q23 -14 23 -41q0 -14 -8 -24t-22 -10q-10 0 -23 6q-68 34 -146 34q-54 0 -103 -17t-89 -50t-64 -88.5t-24 -125.5q0 -135 82 -208.5t198 -73.5q78 0 148 35z" />
    <glyph glyph-name="Egrave" unicode="&#xc8;" horiz-adv-x="545" 
d="M256 907l53 -94q5 -9 5 -19q0 -12 -9 -20t-22 -8q-20 0 -34 19l-58 83q-11 16 -11 31q0 14 10.5 22.5t25.5 8.5q27 0 40 -23zM470 0h-344q-47 0 -47 47v616q0 47 47 47h344q17 0 29 -12t12 -28q0 -17 -12 -29t-29 -12h-302v-228h237q16 0 27.5 -12t11.5 -28t-11.5 -27.5
t-27.5 -11.5h-237v-241h302q17 0 29 -12t12 -29q0 -16 -12 -28t-29 -12z" />
    <glyph glyph-name="Eacute" unicode="&#xc9;" horiz-adv-x="545" 
d="M277 812l52 94q13 24 41 24q15 0 25 -8.5t10 -22.5q0 -15 -11 -31l-58 -83q-14 -20 -35 -20q-12 0 -21 8t-9 20q0 9 6 19zM470 0h-344q-47 0 -47 47v616q0 47 47 47h344q17 0 29 -12t12 -28q0 -17 -12 -29t-29 -12h-302v-228h237q16 0 27.5 -12t11.5 -28t-11.5 -27.5
t-27.5 -11.5h-237v-241h302q17 0 29 -12t12 -29q0 -16 -12 -28t-29 -12z" />
    <glyph glyph-name="Ecircumflex" unicode="&#xca;" horiz-adv-x="545" 
d="M185 835l67 76q16 18 41 18q26 0 41 -17l67 -77q15 -16 15 -32q0 -12 -9 -19.5t-21 -7.5q-16 0 -30 15q-42 52 -62 84q-33 -50 -64 -85q-13 -14 -30 -14q-12 0 -21 7t-9 19q0 15 15 33zM470 0h-344q-47 0 -47 47v616q0 47 47 47h344q17 0 29 -12t12 -28q0 -17 -12 -29
t-29 -12h-302v-228h237q16 0 27.5 -12t11.5 -28t-11.5 -27.5t-27.5 -11.5h-237v-241h302q17 0 29 -12t12 -29q0 -16 -12 -28t-29 -12z" />
    <glyph glyph-name="Edieresis" unicode="&#xcb;" horiz-adv-x="545" 
d="M203 794q-22 0 -36.5 14.5t-14.5 35.5t14.5 35.5t36.5 14.5q21 0 35.5 -14.5t14.5 -35.5t-14.5 -35.5t-35.5 -14.5zM383 794q-22 0 -36.5 14.5t-14.5 35.5t14.5 35.5t36.5 14.5q21 0 35.5 -14.5t14.5 -35.5t-14.5 -35.5t-35.5 -14.5zM470 0h-344q-47 0 -47 47v616
q0 47 47 47h344q17 0 29 -12t12 -28q0 -17 -12 -29t-29 -12h-302v-228h237q16 0 27.5 -12t11.5 -28t-11.5 -27.5t-27.5 -11.5h-237v-241h302q17 0 29 -12t12 -29q0 -16 -12 -28t-29 -12z" />
    <glyph glyph-name="Igrave" unicode="&#xcc;" horiz-adv-x="248" 
d="M86 907l53 -94q5 -9 5 -19q0 -12 -9 -20t-22 -8q-20 0 -34 19l-58 83q-11 16 -11 31q0 14 10.5 22.5t25.5 8.5q27 0 40 -23zM79 40v630q0 21 13.5 32.5t31.5 11.5t31 -11.5t13 -32.5v-630q0 -20 -13 -32t-31 -12t-31.5 11.5t-13.5 32.5z" />
    <glyph glyph-name="Iacute" unicode="&#xcd;" horiz-adv-x="248" 
d="M108 812l52 94q14 24 41 24q15 0 25 -8.5t10 -22.5q0 -15 -11 -31l-58 -83q-14 -20 -35 -20q-12 0 -21 8t-9 20q0 9 6 19zM79 40v630q0 21 13.5 32.5t31.5 11.5t31 -11.5t13 -32.5v-630q0 -20 -13 -32t-31 -12t-31.5 11.5t-13.5 32.5z" />
    <glyph glyph-name="Icircumflex" unicode="&#xce;" horiz-adv-x="248" 
d="M16 835l67 76q16 18 41 18q26 0 41 -17l67 -77q15 -16 15 -32q0 -12 -9 -19.5t-21 -7.5q-17 0 -30 15q-43 52 -62 84q-28 -42 -64 -85q-13 -14 -30 -14q-12 0 -21 7t-9 19q0 15 15 33zM79 40v630q0 21 13.5 32.5t31.5 11.5t31 -11.5t13 -32.5v-630q0 -20 -13 -32t-31 -12
t-31.5 11.5t-13.5 32.5z" />
    <glyph glyph-name="Idieresis" unicode="&#xcf;" horiz-adv-x="248" 
d="M33 794q-21 0 -35.5 14.5t-14.5 35.5t14.5 35.5t35.5 14.5q22 0 36.5 -14.5t14.5 -35.5t-15 -35.5t-36 -14.5zM213 794q-21 0 -35.5 14.5t-14.5 35.5t14.5 35.5t35.5 14.5q22 0 36.5 -14.5t14.5 -35.5t-15 -35.5t-36 -14.5zM79 40v630q0 20 13.5 32t30.5 12
q18 0 31.5 -11.5t13.5 -32.5v-630q0 -20 -13.5 -32t-31.5 -12q-17 0 -30.5 12t-13.5 32z" />
    <glyph glyph-name="Eth" unicode="&#xd0;" horiz-adv-x="740" 
d="M162 710h179q158 0 252.5 -101t94.5 -254t-94.5 -254t-252.5 -101h-179q-22 0 -34.5 12.5t-12.5 34.5v279h-86q-13 0 -23 10t-10 23t9.5 22.5t23.5 9.5h86v272q0 22 12.5 34.5t34.5 12.5zM204 81h137q117 0 187.5 74.5t70.5 199.5t-70.5 199.5t-187.5 74.5h-137v-238h109
q14 0 23.5 -9.5t9.5 -22.5t-10 -23t-23 -10h-109v-245z" />
    <glyph glyph-name="Ntilde" unicode="&#xd1;" horiz-adv-x="728" 
d="M273 808q-10 -16 -26 -16q-13 0 -23 10t-10 25q0 11 5 20q27 56 86 56q29 0 68 -23t57 -23q21 0 37 25q12 18 28 18q13 0 23 -11t10 -26q0 -12 -5 -21q-27 -53 -85 -53q-31 0 -70.5 22.5t-57.5 22.5q-21 0 -37 -26zM605 714q18 0 31 -13t13 -30v-622q0 -22 -16 -37.5
t-38 -15.5q-28 0 -43 22l-391 551q5 -55 5 -530q0 -17 -12.5 -30t-30.5 -13t-31 13t-13 30v622q0 22 15.5 37.5t37.5 15.5q28 0 43 -22l390 -552q-4 86 -4 531q0 17 13 30t31 13z" />
    <glyph glyph-name="Ograve" unicode="&#xd2;" horiz-adv-x="801" 
d="M363 907l53 -94q5 -9 5 -19q0 -12 -9 -20t-22 -8q-20 0 -34 19l-58 83q-11 16 -11 31q0 14 10.5 22.5t25.5 8.5q27 0 40 -23zM401 -10q-154 0 -256.5 105t-102.5 260t102.5 260t256.5 105q153 0 255.5 -105t102.5 -260t-102.5 -260t-255.5 -105zM401 73q114 0 191.5 82
t77.5 200t-77.5 200t-191.5 82q-115 0 -192.5 -82t-77.5 -200t77.5 -200t192.5 -82z" />
    <glyph glyph-name="Oacute" unicode="&#xd3;" horiz-adv-x="801" 
d="M385 812l52 94q13 24 41 24q15 0 25 -8.5t10 -22.5q0 -15 -11 -31l-58 -83q-14 -20 -35 -20q-12 0 -21 8t-9 20q0 9 6 19zM401 -10q-154 0 -256.5 105t-102.5 260t102.5 260t256.5 105q153 0 255.5 -105t102.5 -260t-102.5 -260t-255.5 -105zM401 73q114 0 191.5 82
t77.5 200t-77.5 200t-191.5 82q-115 0 -192.5 -82t-77.5 -200t77.5 -200t192.5 -82z" />
    <glyph glyph-name="Ocircumflex" unicode="&#xd4;" horiz-adv-x="801" 
d="M293 835l67 76q16 18 41 18q26 0 41 -17l67 -77q15 -18 15 -32q0 -12 -9 -19.5t-21 -7.5q-18 0 -30 15q-48 59 -62 84q-27 -41 -64 -85q-13 -14 -30 -14q-12 0 -21 7t-9 19q0 15 15 33zM401 -10q-154 0 -256.5 105t-102.5 260t102.5 260t256.5 105q153 0 255.5 -105
t102.5 -260t-102.5 -260t-255.5 -105zM401 73q114 0 191.5 82t77.5 200t-77.5 200t-191.5 82q-115 0 -192.5 -82t-77.5 -200t77.5 -200t192.5 -82z" />
    <glyph glyph-name="Otilde" unicode="&#xd5;" horiz-adv-x="801" 
d="M467 789q-31 0 -70.5 22.5t-56.5 22.5q-22 0 -37 -25q-10 -17 -27 -17q-13 0 -23 9.5t-10 24.5q0 8 5 20q28 57 86 57q29 0 68 -23t57 -23q21 0 37 25q11 17 28 17q14 0 24 -10.5t10 -25.5q0 -11 -5 -20q-27 -54 -86 -54zM401 -10q-154 0 -256.5 105t-102.5 260
t102.5 260t256.5 105q153 0 255.5 -105t102.5 -260t-102.5 -260t-255.5 -105zM401 73q114 0 191.5 82t77.5 200t-77.5 200t-191.5 82q-115 0 -192.5 -82t-77.5 -200t77.5 -200t192.5 -82z" />
    <glyph glyph-name="Odieresis" unicode="&#xd6;" horiz-adv-x="801" 
d="M311 794q-21 0 -36 14.5t-15 35.5t15 35.5t36 14.5t35.5 -14.5t14.5 -35.5t-14.5 -35.5t-35.5 -14.5zM491 794q-21 0 -36 14.5t-15 35.5t15 35.5t36 14.5t35.5 -14.5t14.5 -35.5t-14.5 -35.5t-35.5 -14.5zM401 -10q-154 0 -256.5 105t-102.5 260t102.5 260t256.5 105
q153 0 255.5 -105t102.5 -260t-102.5 -260t-255.5 -105zM401 73q114 0 191.5 82t77.5 200t-77.5 200t-191.5 82q-115 0 -192.5 -82t-77.5 -200t77.5 -200t192.5 -82z" />
    <glyph glyph-name="multiply" unicode="&#xd7;" horiz-adv-x="425" 
d="M271 275l76 -77q11 -11 11 -27q0 -18 -12.5 -32.5t-30.5 -14.5q-15 0 -29 14l-76 76l-75 -75q-11 -11 -26 -11q-16 0 -29 12t-13 27t12 27l75 76l-75 75q-14 14 -14 30q0 17 13.5 30t30.5 13q18 0 30 -12l76 -76l75 76q11 12 27 12t28.5 -12.5t12.5 -28.5q0 -15 -12 -27z
" />
    <glyph glyph-name="Oslash" unicode="&#xd8;" horiz-adv-x="801" 
d="M683 673l-36 -48q112 -106 112 -270q0 -155 -102.5 -260t-255.5 -105q-105 0 -188 51l-37 -50q-11 -15 -30 -15q-18 0 -28.5 11.5t-10.5 27.5q0 14 7 22l38 51q-110 105 -110 267q0 155 102.5 260t256.5 105q101 0 185 -49l36 48q11 15 30 15q18 0 28.5 -11.5t10.5 -26.5
q0 -12 -8 -23zM131 355q0 -114 74 -196l329 442q-61 36 -133 36q-115 0 -192.5 -82t-77.5 -200zM401 73q114 0 191.5 82t77.5 200q0 116 -76 198l-329 -443q63 -37 136 -37z" />
    <glyph glyph-name="Ugrave" unicode="&#xd9;" horiz-adv-x="695" 
d="M311 907l52 -94q5 -9 5 -19q0 -12 -9 -20t-22 -8q-20 0 -34 19l-58 83q-11 16 -11 31q0 14 11 22.5t26 8.5q27 0 40 -23zM348 -10q-129 0 -204.5 77t-75.5 221v382q0 18 13 31t32 13q18 0 31 -13t13 -31v-384q0 -107 52 -161t139 -54q86 0 138 54t52 161v384q0 18 13 31
t32 13q18 0 31 -13t13 -31v-382q0 -144 -75 -221t-204 -77z" />
    <glyph glyph-name="Uacute" unicode="&#xda;" horiz-adv-x="695" 
d="M332 812l51 94q13 24 40 24q16 0 26.5 -8.5t10.5 -23.5t-11 -30l-58 -83q-14 -20 -34 -20q-12 0 -21 8t-9 20q0 10 5 19zM348 -10q-129 0 -204.5 77t-75.5 221v382q0 18 13 31t32 13q18 0 31 -13t13 -31v-384q0 -107 52 -161t139 -54q86 0 138 54t52 161v384q0 18 13 31
t32 13q18 0 31 -13t13 -31v-382q0 -144 -75 -221t-204 -77z" />
    <glyph glyph-name="Ucircumflex" unicode="&#xdb;" horiz-adv-x="695" 
d="M239 835l67 76q18 18 41 18q27 0 42 -17l66 -77q15 -16 15 -33q0 -12 -8 -19t-20 -7q-19 0 -33 17q-39 48 -61 82q-34 -50 -63 -84q-13 -15 -32 -15q-12 0 -20.5 7t-8.5 19q0 17 15 33zM348 -10q-129 0 -204.5 77t-75.5 221v382q0 18 13 31t32 13q18 0 31 -13t13 -31
v-384q0 -107 52 -161t139 -54q86 0 138 54t52 161v384q0 18 13 31t32 13q18 0 31 -13t13 -31v-382q0 -144 -75 -221t-204 -77z" />
    <glyph glyph-name="Udieresis" unicode="&#xdc;" horiz-adv-x="695" 
d="M257 794q-21 0 -35.5 14.5t-14.5 35.5t14.5 35.5t35.5 14.5t36 -14.5t15 -35.5t-15 -35.5t-36 -14.5zM437 794q-21 0 -35.5 14.5t-14.5 35.5t14.5 35.5t35.5 14.5t35.5 -14.5t14.5 -35.5t-14.5 -35.5t-35.5 -14.5zM348 -10q-129 0 -204.5 77t-75.5 221v382q0 18 13 31
t32 13q18 0 31 -13t13 -31v-384q0 -107 52 -161t139 -54q86 0 138 54t52 161v384q0 18 13 31t32 13q18 0 31 -13t13 -31v-382q0 -144 -75 -221t-204 -77z" />
    <glyph glyph-name="Yacute" unicode="&#xdd;" horiz-adv-x="588" 
d="M278 812l51 94q13 24 40 24q16 0 26.5 -8.5t10.5 -23.5t-11 -30l-58 -83q-14 -20 -34 -20q-12 0 -21 8t-9 20q0 10 5 19zM294 -5q-19 0 -32 13.5t-13 31.5v260l-219 347q-7 11 -7 23q0 18 14 30.5t32 12.5q25 0 39 -23q160 -258 186 -315q25 54 188 314q15 25 40 25
q18 0 31 -11.5t13 -29.5q0 -13 -8 -25l-220 -348v-260q0 -18 -13 -31.5t-31 -13.5z" />
    <glyph glyph-name="Thorn" unicode="&#xde;" horiz-adv-x="608" 
d="M168 590h157q112 0 182 -59.5t70 -169.5t-71 -172.5t-186 -62.5h-152v-86q0 -20 -13 -32t-31 -12t-31.5 11.5t-13.5 32.5v630q0 21 13.5 32.5t31.5 11.5t31 -11.5t13 -32.5v-80zM168 208h157q73 0 117.5 38.5t44.5 111.5q0 74 -44.5 112.5t-117.5 38.5h-157v-301z" />
    <glyph glyph-name="germandbls" unicode="&#xdf;" horiz-adv-x="598" 
d="M108 -4q-18 0 -31 13t-13 30v458q0 104 56.5 170t166.5 66q98 0 153 -51t55 -128q0 -47 -20.5 -84.5t-58.5 -55.5q75 -17 117 -71t42 -133q0 -105 -63.5 -158.5t-154.5 -53.5q-62 0 -113 24q-27 13 -27 41q0 16 9 27t23 11q9 0 17 -4q44 -18 84 -18q59 0 98 33.5t39 99.5
q0 71 -48.5 109.5t-122.5 38.5q-19 0 -29.5 10t-10.5 25q0 14 9.5 24t26.5 11q47 3 71.5 32.5t24.5 74.5q0 53 -32 84t-89 31q-62 0 -99 -40.5t-37 -114.5v-458q0 -17 -12.5 -30t-30.5 -13z" />
    <glyph glyph-name="agrave" unicode="&#xe0;" horiz-adv-x="656" 
d="M283 590l-57 83q-11 17 -11 31t10.5 22.5t25.5 8.5q27 0 40 -23l53 -94q5 -9 5 -19q0 -12 -9.5 -20t-22.5 -8q-20 0 -34 19zM548 517q18 0 31 -11.5t13 -31.5v-436q0 -20 -13 -31.5t-31 -11.5t-31.5 11.5t-13.5 31.5v83q-23 -59 -78 -95t-131 -36q-115 0 -186.5 77
t-71.5 192q0 116 72.5 191.5t189.5 75.5q67 0 121.5 -32.5t83.5 -89.5v70q0 20 13.5 31.5t31.5 11.5zM314 68q82 0 135.5 54.5t53.5 135.5q0 80 -53.5 134.5t-135.5 54.5q-83 0 -136.5 -53.5t-53.5 -135.5t54 -136t136 -54z" />
    <glyph glyph-name="aacute" unicode="&#xe1;" horiz-adv-x="656" 
d="M429 673l-58 -83q-14 -20 -34 -20q-12 0 -21.5 8.5t-9.5 20.5q0 9 6 19l52 94q14 24 40 24q15 0 26 -9t11 -23q0 -13 -12 -31zM548 517q18 0 31 -11.5t13 -31.5v-436q0 -20 -13 -31.5t-31 -11.5t-31.5 11.5t-13.5 31.5v83q-23 -59 -78 -95t-131 -36q-115 0 -186.5 77
t-71.5 192q0 116 72.5 191.5t189.5 75.5q67 0 121.5 -32.5t83.5 -89.5v70q0 20 13.5 31.5t31.5 11.5zM314 68q82 0 135.5 54.5t53.5 135.5q0 80 -53.5 134.5t-135.5 54.5q-83 0 -136.5 -53.5t-53.5 -135.5t54 -136t136 -54z" />
    <glyph glyph-name="acircumflex" unicode="&#xe2;" horiz-adv-x="656" 
d="M265 595q-13 -14 -30 -14q-12 0 -21.5 7.5t-9.5 19.5q0 16 15 32l67 76q16 18 42 18q23 0 41 -18l67 -76q15 -16 15 -32q0 -12 -8.5 -19.5t-20.5 -7.5q-19 0 -32 16q-42 51 -61 83q-35 -54 -64 -85zM548 517q18 0 31 -11.5t13 -31.5v-436q0 -20 -13 -31.5t-31 -11.5
t-31.5 11.5t-13.5 31.5v83q-23 -59 -78 -95t-131 -36q-115 0 -186.5 77t-71.5 192q0 116 72.5 191.5t189.5 75.5q67 0 121.5 -32.5t83.5 -89.5v70q0 20 13.5 31.5t31.5 11.5zM314 68q82 0 135.5 54.5t53.5 135.5q0 80 -53.5 134.5t-135.5 54.5q-83 0 -136.5 -53.5
t-53.5 -135.5t54 -136t136 -54z" />
    <glyph glyph-name="atilde" unicode="&#xe3;" horiz-adv-x="656" 
d="M230 613q-10 -16 -26 -16q-13 0 -23 10t-10 25q0 11 5 20q27 56 86 56q29 0 68 -23t57 -23q21 0 36 24q12 19 29 19q13 0 23 -11t10 -26q0 -12 -5 -21q-26 -53 -85 -53q-31 0 -70.5 22.5t-57.5 22.5q-21 0 -37 -26zM548 517q18 0 31 -11.5t13 -31.5v-436q0 -20 -13 -31.5
t-31 -11.5t-31.5 11.5t-13.5 31.5v83q-23 -59 -78 -95t-131 -36q-115 0 -186.5 77t-71.5 192q0 116 72.5 191.5t189.5 75.5q67 0 121.5 -32.5t83.5 -89.5v70q0 20 13.5 31.5t31.5 11.5zM314 68q82 0 135.5 54.5t53.5 135.5q0 80 -53.5 134.5t-135.5 54.5q-83 0 -136.5 -53.5
t-53.5 -135.5t54 -136t136 -54z" />
    <glyph glyph-name="adieresis" unicode="&#xe4;" horiz-adv-x="656" 
d="M237 599q-21 0 -35.5 14.5t-14.5 35.5t14.5 35.5t35.5 14.5q22 0 36.5 -14.5t14.5 -35.5t-15 -35.5t-36 -14.5zM417 599q-21 0 -35.5 14.5t-14.5 35.5t14.5 35.5t35.5 14.5q22 0 36.5 -14.5t14.5 -35.5t-15 -35.5t-36 -14.5zM548 517q18 0 31 -11.5t13 -31.5v-436
q0 -20 -13 -31.5t-31 -11.5t-31.5 11.5t-13.5 31.5v83q-23 -59 -78 -95t-131 -36q-115 0 -186.5 77t-71.5 192q0 116 72.5 191.5t189.5 75.5q67 0 121.5 -32.5t83.5 -89.5v70q0 20 13.5 31.5t31.5 11.5zM314 68q82 0 135.5 54.5t53.5 135.5q0 80 -53.5 134.5t-135.5 54.5
q-83 0 -136.5 -53.5t-53.5 -135.5t54 -136t136 -54z" />
    <glyph glyph-name="aring" unicode="&#xe5;" horiz-adv-x="656" 
d="M328 575q-40 0 -69 28.5t-29 68.5t29 69t69 29t69 -29t29 -69t-28.5 -68.5t-69.5 -28.5zM328 721q-20 0 -34 -14.5t-14 -34.5t14 -34.5t34 -14.5q21 0 35 14.5t14 34.5q0 21 -14.5 35t-34.5 14zM548 517q18 0 31 -11.5t13 -31.5v-436q0 -20 -13 -31.5t-31 -11.5
t-31.5 11.5t-13.5 31.5v83q-23 -59 -78 -95t-131 -36q-115 0 -186.5 77t-71.5 192q0 116 72.5 191.5t189.5 75.5q67 0 121.5 -32.5t83.5 -89.5v70q0 20 13.5 31.5t31.5 11.5zM314 68q82 0 135.5 54.5t53.5 135.5q0 80 -53.5 134.5t-135.5 54.5q-83 0 -136.5 -53.5
t-53.5 -135.5t54 -136t136 -54z" />
    <glyph glyph-name="ae" unicode="&#xe6;" horiz-adv-x="955" 
d="M876 229h-388v-32q13 -63 62.5 -101t116.5 -38q97 0 154 83q12 18 29 18q15 0 26.5 -12t11.5 -28q0 -13 -9 -25q-79 -109 -213 -109q-74 0 -133.5 31t-94.5 87q-23 -57 -77.5 -85t-123.5 -28q-93 0 -151.5 48.5t-58.5 128.5t57 128.5t145 48.5q55 0 100 -19t69 -52
q0 7 2 23v8q0 147 -160 147q-57 0 -143 -26q-8 -2 -12 -2q-15 0 -25 11t-10 25q0 26 30 36q97 31 175 31q150 0 204 -95q77 90 199 90q109 0 180 -67.5t81 -179.5q2 -21 -10.5 -33t-32.5 -12zM658 449q-64 0 -111 -37t-59 -95v-13v-14h346q-5 68 -53.5 113.5t-122.5 45.5z
M254 56q64 0 105 32t41 82q0 47 -41.5 79t-104.5 32q-59 0 -98.5 -31.5t-39.5 -80.5q0 -50 39 -81.5t99 -31.5z" />
    <glyph glyph-name="ccedilla" unicode="&#xe7;" horiz-adv-x="526" 
d="M434 105q10 6 18 6q13 0 21.5 -11t8.5 -26q0 -24 -21 -38q-61 -40 -140 -45l-20 -55q35 -7 55.5 -29t20.5 -55q0 -40 -29.5 -63.5t-78.5 -23.5q-24 0 -54 10q-17 6 -17 25q0 23 20 23q6 0 9 -1q18 -5 35 -5q50 0 50 38q0 18 -14 30t-35 15q-25 3 -25 29q0 7 3 15l18 50
q-94 15 -157.5 83.5t-63.5 180.5q0 126 79.5 196t187.5 70q87 0 156 -46q23 -16 23 -40q0 -14 -8.5 -24.5t-21.5 -10.5q-9 0 -18 6q-54 36 -120 36q-78 0 -134.5 -50t-56.5 -137q0 -85 56 -136.5t134 -51.5q64 0 119 35z" />
    <glyph glyph-name="egrave" unicode="&#xe8;" horiz-adv-x="594" 
d="M257 590l-58 83q-11 17 -11 31t10.5 22.5t25.5 8.5q27 0 40 -23l53 -94q5 -9 5 -19q0 -12 -9 -20t-22 -8q-20 0 -34 19zM558 280q2 -22 -10 -34t-33 -12h-392q4 -76 55.5 -123.5t127.5 -47.5q98 0 154 83q12 18 30 18q14 0 25.5 -12t11.5 -28q0 -13 -9 -25
q-79 -109 -213 -109q-117 0 -193 74t-76 194q0 114 74.5 191t187.5 77q108 0 179 -67t81 -179zM298 454q-72 0 -121.5 -45.5t-53.5 -113.5h350q-5 68 -53 113.5t-122 45.5z" />
    <glyph glyph-name="eacute" unicode="&#xe9;" horiz-adv-x="594" 
d="M403 673l-58 -83q-14 -20 -34 -20q-12 0 -21.5 8.5t-9.5 20.5q0 9 6 19l52 94q14 24 40 24q15 0 26 -9t11 -23q0 -13 -12 -31zM558 280q2 -22 -10 -34t-33 -12h-392q4 -76 55.5 -123.5t127.5 -47.5q98 0 154 83q12 18 30 18q14 0 25.5 -12t11.5 -28q0 -13 -9 -25
q-79 -109 -213 -109q-117 0 -193 74t-76 194q0 114 74.5 191t187.5 77q108 0 179 -67t81 -179zM298 454q-72 0 -121.5 -45.5t-53.5 -113.5h350q-5 68 -53 113.5t-122 45.5z" />
    <glyph glyph-name="ecircumflex" unicode="&#xea;" horiz-adv-x="594" 
d="M239 595q-13 -15 -30 -15q-12 0 -21 7.5t-9 19.5q0 17 15 33l67 76q15 18 41 18q25 0 41 -18l67 -76q15 -16 15 -32q0 -12 -9 -19.5t-21 -7.5q-17 0 -30 15q-44 55 -62 84q-33 -50 -64 -85zM558 280q2 -22 -10 -34t-33 -12h-392q4 -76 55.5 -123.5t127.5 -47.5
q98 0 154 83q12 18 30 18q14 0 25.5 -12t11.5 -28q0 -13 -9 -25q-79 -109 -213 -109q-117 0 -193 74t-76 194q0 114 74.5 191t187.5 77q108 0 179 -67t81 -179zM298 454q-72 0 -121.5 -45.5t-53.5 -113.5h350q-5 68 -53 113.5t-122 45.5z" />
    <glyph glyph-name="edieresis" unicode="&#xeb;" horiz-adv-x="594" 
d="M212 599q-21 0 -36 14.5t-15 35.5t15 35.5t36 14.5t35.5 -14.5t14.5 -35.5t-14.5 -35.5t-35.5 -14.5zM392 599q-21 0 -36 14.5t-15 35.5t15 35.5t36 14.5t35.5 -14.5t14.5 -35.5t-14.5 -35.5t-35.5 -14.5zM558 280q2 -22 -10 -34t-33 -12h-392q4 -76 55.5 -123.5
t127.5 -47.5q98 0 154 83q12 18 30 18q14 0 25.5 -12t11.5 -28q0 -13 -9 -25q-79 -109 -213 -109q-117 0 -193 74t-76 194q0 114 74.5 191t187.5 77q108 0 179 -67t81 -179zM298 454q-72 0 -121.5 -45.5t-53.5 -113.5h350q-5 68 -53 113.5t-122 45.5z" />
    <glyph glyph-name="igrave" unicode="&#xec;" horiz-adv-x="215" 
d="M70 712l53 -94q5 -9 5 -19q0 -12 -9 -20t-22 -8q-20 0 -34 19l-58 83q-11 17 -11 31t10.5 22.5t25.5 8.5q27 0 40 -23zM64 39v437q0 20 13.5 31.5t30.5 11.5t30 -11.5t13 -31.5v-437q0 -20 -13 -31.5t-30 -11.5q-18 0 -31 11.5t-13 31.5z" />
    <glyph glyph-name="iacute" unicode="&#xed;" horiz-adv-x="215" 
d="M92 618l52 94q14 24 40 24q15 0 26 -9t11 -23q0 -13 -12 -31l-58 -83q-14 -20 -34 -20q-12 0 -21.5 8.5t-9.5 20.5q0 9 6 19zM64 39v437q0 20 13 31.5t31 11.5q17 0 30 -11.5t13 -31.5v-437q0 -20 -13 -31.5t-30 -11.5q-18 0 -31 11.5t-13 31.5z" />
    <glyph glyph-name="icircumflex" unicode="&#xee;" horiz-adv-x="215" 
d="M0 640l67 76q16 18 41 18q26 0 41 -18l67 -76q15 -16 15 -32q0 -12 -8.5 -19.5t-20.5 -7.5q-19 0 -32 16q-39 47 -61 83q-29 -43 -64 -85q-14 -15 -30 -15q-12 0 -21 7.5t-9 19.5q0 17 15 33zM64 39v437q0 20 13 31.5t30 11.5q18 0 31 -11.5t13 -31.5v-437
q0 -20 -13 -31.5t-31 -11.5q-17 0 -30 11.5t-13 31.5z" />
    <glyph glyph-name="idieresis" unicode="&#xef;" horiz-adv-x="215" 
d="M17 599q-21 0 -35.5 14.5t-14.5 35.5t14.5 35.5t35.5 14.5q22 0 36.5 -14.5t14.5 -35.5t-15 -35.5t-36 -14.5zM197 599q-21 0 -35.5 14.5t-14.5 35.5t14.5 35.5t35.5 14.5q22 0 36.5 -14.5t14.5 -35.5t-15 -35.5t-36 -14.5zM64 39v437q0 20 13 31.5t30 11.5
q18 0 31 -11.5t13 -31.5v-437q0 -20 -13 -31.5t-31 -11.5q-17 0 -30 11.5t-13 31.5z" />
    <glyph glyph-name="eth" unicode="&#xf0;" horiz-adv-x="595" 
d="M372 628l115 -149q79 -103 79 -212q0 -122 -76 -200t-194 -78t-193 73.5t-75 187.5q0 117 71 186.5t183 69.5q58 0 102 -27l-90 116l-118 -50q-4 -2 -12 -2q-12 0 -20 9t-8 20q0 18 19 26l103 43l-36 46q-11 16 -11 29q0 17 12 29t29 12q20 0 34 -18l50 -64l114 48
q4 2 12 2q12 0 21 -9t9 -20q0 -18 -21 -26zM296 71q80 0 131.5 51t51.5 131q0 81 -50.5 131.5t-132.5 50.5q-79 0 -130 -51t-51 -131t51 -131t130 -51z" />
    <glyph glyph-name="ntilde" unicode="&#xf1;" horiz-adv-x="596" 
d="M201 614q-10 -17 -27 -17q-13 0 -23 9.5t-10 24.5q0 8 5 20q28 57 86 57q29 0 68 -23t57 -23q21 0 37 25q11 17 28 17q14 0 24 -10.5t10 -25.5q0 -11 -5 -20q-27 -54 -86 -54q-31 0 -70.5 22.5t-56.5 22.5q-22 0 -37 -25zM333 526q89 0 148 -55.5t59 -167.5v-262
q0 -21 -13 -33t-31 -12t-31 12t-13 33v250q0 84 -41 121.5t-103 37.5q-72 0 -113.5 -44.5t-42.5 -123.5v-242q0 -20 -13 -32t-31 -12t-31 12t-13 32v435q0 21 13 32.5t31 11.5t31 -11.5t13 -32.5v-56q52 107 181 107z" />
    <glyph glyph-name="ograve" unicode="&#xf2;" horiz-adv-x="621" 
d="M273 712l53 -94q5 -9 5 -19q0 -12 -9.5 -20t-22.5 -8q-20 0 -34 19l-57 83q-11 17 -11 31t10.5 22.5t25.5 8.5q27 0 40 -23zM310 -10q-117 0 -195.5 76.5t-78.5 191.5t78.5 191.5t195.5 76.5q118 0 196 -76.5t78 -191.5t-78 -191.5t-196 -76.5zM310 69q80 0 134.5 54.5
t54.5 135.5q0 80 -54 134t-135 54q-80 0 -134.5 -54t-54.5 -134q0 -81 54.5 -135.5t134.5 -54.5z" />
    <glyph glyph-name="oacute" unicode="&#xf3;" horiz-adv-x="621" 
d="M294 618l52 94q14 24 40 24q15 0 26 -9t11 -23q0 -13 -12 -31l-58 -83q-14 -20 -34 -20q-12 0 -21.5 8.5t-9.5 20.5q0 9 6 19zM310 -10q-117 0 -195.5 76.5t-78.5 191.5t78.5 191.5t195.5 76.5q118 0 196 -76.5t78 -191.5t-78 -191.5t-196 -76.5zM310 69q80 0 134.5 54.5
t54.5 135.5q0 80 -54 134t-135 54q-80 0 -134.5 -54t-54.5 -134q0 -81 54.5 -135.5t134.5 -54.5z" />
    <glyph glyph-name="ocircumflex" unicode="&#xf4;" horiz-adv-x="621" 
d="M201 640l67 76q16 18 42 18t41 -18l67 -76q15 -16 15 -32q0 -12 -8.5 -19.5t-20.5 -7.5q-19 0 -32 16q-42 51 -61 83q-35 -54 -64 -85q-13 -14 -30 -14q-12 0 -21.5 7.5t-9.5 19.5q0 16 15 32zM310 -10q-117 0 -195.5 76.5t-78.5 191.5t78.5 191.5t195.5 76.5
q118 0 196 -76.5t78 -191.5t-78 -191.5t-196 -76.5zM310 69q80 0 134.5 54.5t54.5 135.5q0 80 -54 134t-135 54q-80 0 -134.5 -54t-54.5 -134q0 -81 54.5 -135.5t134.5 -54.5z" />
    <glyph glyph-name="otilde" unicode="&#xf5;" horiz-adv-x="621" 
d="M376 594q-31 0 -70.5 22.5t-57.5 22.5q-21 0 -37 -26q-10 -16 -26 -16q-13 0 -23 10t-10 25q0 11 5 20q27 56 86 56q29 0 68 -23t57 -23q21 0 36 24q12 19 29 19q13 0 23 -11t10 -26q0 -12 -5 -21q-27 -53 -85 -53zM310 -10q-117 0 -195.5 76.5t-78.5 191.5t78.5 191.5
t195.5 76.5q118 0 196 -76.5t78 -191.5t-78 -191.5t-196 -76.5zM310 69q80 0 134.5 54.5t54.5 135.5q0 80 -54 134t-135 54q-80 0 -134.5 -54t-54.5 -134q0 -81 54.5 -135.5t134.5 -54.5z" />
    <glyph glyph-name="odieresis" unicode="&#xf6;" horiz-adv-x="621" 
d="M219 599q-21 0 -35.5 14.5t-14.5 35.5t14.5 35.5t35.5 14.5q22 0 36.5 -14.5t14.5 -35.5t-15 -35.5t-36 -14.5zM399 599q-21 0 -35.5 14.5t-14.5 35.5t14.5 35.5t35.5 14.5q22 0 36.5 -14.5t14.5 -35.5t-15 -35.5t-36 -14.5zM310 -10q-117 0 -195.5 76.5t-78.5 191.5
t78.5 191.5t195.5 76.5q118 0 196 -76.5t78 -191.5t-78 -191.5t-196 -76.5zM310 69q80 0 134.5 54.5t54.5 135.5q0 80 -54 134t-135 54q-80 0 -134.5 -54t-54.5 -134q0 -81 54.5 -135.5t134.5 -54.5z" />
    <glyph glyph-name="divide" unicode="&#xf7;" horiz-adv-x="467" 
d="M233 362q-21 0 -36 14.5t-15 36.5q0 21 15 35.5t36 14.5t35.5 -14.5t14.5 -35.5t-14.5 -36t-35.5 -15zM383 231h-299q-16 0 -27.5 12t-11.5 28t11.5 27.5t27.5 11.5h299q16 0 28 -11.5t12 -27.5t-12 -28t-28 -12zM233 78q-21 0 -36 14.5t-15 36.5q0 21 15 35.5t36 14.5
t35.5 -15t14.5 -35q0 -21 -14.5 -36t-35.5 -15z" />
    <glyph glyph-name="oslash" unicode="&#xf8;" horiz-adv-x="621" 
d="M535 491l-31 -40q80 -77 80 -193q0 -115 -78 -191.5t-196 -76.5q-79 0 -142 37l-35 -44q-9 -12 -25 -12q-14 0 -24.5 9t-10.5 22q0 12 8 21l34 43q-79 77 -79 192t78.5 191.5t195.5 76.5q76 0 140 -35l32 40q10 13 27 13q14 0 24.5 -8.5t10.5 -21.5t-9 -23zM121 259
q0 -73 46 -127l232 294q-42 21 -89 21q-80 0 -134.5 -54t-54.5 -134zM310 69q80 0 134.5 54.5t54.5 135.5q0 74 -47 127l-233 -295q42 -22 91 -22z" />
    <glyph glyph-name="ugrave" unicode="&#xf9;" horiz-adv-x="596" 
d="M254 590l-58 83q-11 17 -11 31t11 22.5t26 8.5q27 0 40 -23l52 -94q5 -9 5 -19q0 -12 -9 -20t-22 -8q-20 0 -34 19zM488 519q18 0 31 -11.5t13 -32.5v-435q0 -21 -13 -32.5t-31 -11.5t-31 12t-13 32v55q-52 -105 -180 -105q-90 0 -149 55t-59 167v262q0 21 13 33t31 12
t31 -12t13 -33v-250q0 -83 41 -121t104 -38q70 0 112 43.5t43 124.5v242q0 21 13.5 32.5t30.5 11.5z" />
    <glyph glyph-name="uacute" unicode="&#xfa;" horiz-adv-x="596" 
d="M401 673l-58 -83q-14 -20 -34 -20q-12 0 -21.5 8.5t-9.5 20.5q0 9 6 19l51 94q13 24 40 24q16 0 27 -9t11 -23q0 -13 -12 -31zM488 519q18 0 31 -11.5t13 -32.5v-435q0 -21 -13 -32.5t-31 -11.5t-31 12t-13 32v55q-52 -105 -180 -105q-90 0 -149 55t-59 167v262
q0 21 13 33t31 12t31 -12t13 -33v-250q0 -83 41 -121t104 -38q70 0 112 43.5t43 124.5v242q0 21 13.5 32.5t30.5 11.5z" />
    <glyph glyph-name="ucircumflex" unicode="&#xfb;" horiz-adv-x="596" 
d="M237 596q-12 -15 -32 -15q-12 0 -20.5 7t-8.5 19q0 17 15 33l67 76q15 18 41 18q28 0 42 -18l66 -76q15 -18 15 -32q0 -12 -8.5 -19.5t-21.5 -7.5q-18 0 -30 15q-45 55 -62 84q-33 -50 -63 -84zM488 519q18 0 31 -11.5t13 -32.5v-435q0 -21 -13 -32.5t-31 -11.5t-31 12
t-13 32v55q-52 -105 -180 -105q-90 0 -149 55t-59 167v262q0 21 13 33t31 12t31 -12t13 -33v-250q0 -83 41 -121t104 -38q70 0 112 43.5t43 124.5v242q0 21 13.5 32.5t30.5 11.5z" />
    <glyph glyph-name="udieresis" unicode="&#xfc;" horiz-adv-x="596" 
d="M208 599q-21 0 -35.5 14.5t-14.5 35.5t14.5 35.5t35.5 14.5t35.5 -14.5t14.5 -35.5t-14.5 -35.5t-35.5 -14.5zM388 599q-21 0 -35.5 14.5t-14.5 35.5t14.5 35.5t35.5 14.5t35.5 -14.5t14.5 -35.5t-14.5 -35.5t-35.5 -14.5zM488 519q18 0 31 -11.5t13 -32.5v-435
q0 -21 -13 -32.5t-31 -11.5t-31 12t-13 32v55q-52 -105 -180 -105q-90 0 -149 55t-59 167v262q0 21 13 33t31 12t31 -12t13 -33v-250q0 -83 41 -121t104 -38q70 0 112 43.5t43 124.5v242q0 21 13.5 32.5t30.5 11.5z" />
    <glyph glyph-name="yacute" unicode="&#xfd;" horiz-adv-x="545" 
d="M374 673l-58 -83q-14 -20 -34 -20q-12 0 -21.5 8.5t-9.5 20.5q0 9 6 19l51 94q14 24 40 24q16 0 27 -9t11 -23q0 -13 -12 -31zM433 491q12 29 41 29q18 0 31.5 -11.5t13.5 -29.5q0 -11 -4 -20l-277 -666q-12 -28 -41 -28q-17 0 -30 11.5t-13 28.5q0 9 4 18l72 175
l-200 460q-4 8 -4 18q0 18 14.5 30.5t33.5 12.5q29 0 40 -28q98 -240 162 -406q54 144 157 406z" />
    <glyph glyph-name="thorn" unicode="&#xfe;" horiz-adv-x="654" 
d="M360 525q115 0 186.5 -77t71.5 -192q0 -116 -72.5 -191t-189.5 -75q-66 0 -120 31.5t-85 88.5v-300q0 -18 -12.5 -31t-30.5 -13t-31 13t-13 31v900q0 18 13 31t31 13t30.5 -13t12.5 -31v-313q25 59 80 93.5t129 34.5zM339 68q83 0 137 53.5t54 135.5q0 83 -54 136.5
t-137 53.5q-81 0 -134.5 -54.5t-53.5 -135.5q0 -80 53 -134.5t135 -54.5z" />
    <glyph glyph-name="ydieresis" unicode="&#xff;" horiz-adv-x="545" 
d="M182 599q-21 0 -35.5 14.5t-14.5 35.5t14.5 35.5t35.5 14.5t35.5 -14.5t14.5 -35.5t-14.5 -35.5t-35.5 -14.5zM362 599q-21 0 -35.5 14.5t-14.5 35.5t14.5 35.5t35.5 14.5t35.5 -14.5t14.5 -35.5t-14.5 -35.5t-35.5 -14.5zM433 491q12 29 41 29q18 0 31.5 -11.5
t13.5 -29.5q0 -11 -4 -20l-277 -666q-12 -28 -41 -28q-17 0 -30 11.5t-13 28.5q0 9 4 18l72 175l-200 460q-4 8 -4 18q0 18 14.5 30.5t33.5 12.5q29 0 40 -28q98 -240 162 -406q54 144 157 406z" />
    <glyph glyph-name="Amacron" unicode="&#x100;" horiz-adv-x="647" 
d="M450 795h-250q-14 0 -24.5 10.5t-10.5 24.5t10.5 24.5t24.5 10.5h250q14 0 24.5 -10.5t10.5 -24.5t-10.5 -24.5t-24.5 -10.5zM389 668l222 -612q3 -9 3 -16q0 -20 -15.5 -32t-33.5 -12q-30 0 -41 32q-44 127 -55 158h-294q-8 -25 -27 -78t-28 -81q-12 -32 -41 -32
q-17 0 -31 12t-14 30q0 8 3 17l221 614q7 20 22 33t31 13h23q38 0 55 -46zM200 260h244q-113 330 -123 389q-12 -72 -121 -389z" />
    <glyph glyph-name="amacron" unicode="&#x101;" horiz-adv-x="656" 
d="M454 600h-251q-14 0 -24.5 10.5t-10.5 24.5t10.5 24.5t24.5 10.5h251q14 0 24.5 -10.5t10.5 -24.5q0 -15 -10.5 -25t-24.5 -10zM548 517q18 0 31 -11.5t13 -31.5v-436q0 -20 -13 -31.5t-31 -11.5t-31.5 11.5t-13.5 31.5v83q-23 -59 -78 -95t-131 -36q-115 0 -186.5 77
t-71.5 192q0 116 72.5 191.5t189.5 75.5q67 0 121.5 -32.5t83.5 -89.5v70q0 20 13.5 31.5t31.5 11.5zM314 68q82 0 135.5 54.5t53.5 135.5q0 80 -53.5 134.5t-135.5 54.5q-83 0 -136.5 -53.5t-53.5 -135.5t54 -136t136 -54z" />
    <glyph glyph-name="Abreve" unicode="&#x102;" horiz-adv-x="647" 
d="M325 769q-54 0 -92 25t-53 69q-3 7 -3 15q0 16 11.5 26.5t26.5 10.5q21 0 27 -22q16 -65 83 -65q66 0 82 64q6 23 28 23q14 0 25.5 -10t11.5 -26q0 -8 -2 -13q-16 -46 -53.5 -71.5t-91.5 -25.5zM389 668l222 -612q3 -9 3 -16q0 -20 -15.5 -32t-33.5 -12q-30 0 -41 32
q-44 127 -55 158h-294q-8 -25 -27 -78t-28 -81q-12 -32 -41 -32q-17 0 -31 12t-14 30q0 8 3 17l221 614q7 20 22 33t31 13h23q38 0 55 -46zM200 260h244q-113 330 -123 389q-12 -72 -121 -389z" />
    <glyph glyph-name="abreve" unicode="&#x103;" horiz-adv-x="656" 
d="M328 574q-54 0 -91.5 25t-53.5 70q-2 5 -2 14q0 16 11.5 26.5t25.5 10.5q22 0 28 -25q15 -62 82 -62t82 63q6 24 28 24q14 0 25.5 -10.5t11.5 -26.5q0 -8 -2 -13q-16 -46 -54 -71t-91 -25zM548 517q18 0 31 -11.5t13 -31.5v-436q0 -20 -13 -31.5t-31 -11.5t-31.5 11.5
t-13.5 31.5v83q-23 -59 -78 -95t-131 -36q-115 0 -186.5 77t-71.5 192q0 116 72.5 191.5t189.5 75.5q67 0 121.5 -32.5t83.5 -89.5v70q0 20 13.5 31.5t31.5 11.5zM314 68q82 0 135.5 54.5t53.5 135.5q0 80 -53.5 134.5t-135.5 54.5q-83 0 -136.5 -53.5t-53.5 -135.5t54 -136
t136 -54z" />
    <glyph glyph-name="Aogonek" unicode="&#x104;" horiz-adv-x="647" 
d="M637 -152q6 2 9 2q10 0 17 -8.5t7 -19.5q0 -16 -16 -25q-36 -19 -76 -19q-47 0 -75.5 26.5t-28.5 70.5q0 57 59 136q-7 9 -9 17q-44 127 -55 158h-294q-8 -25 -27 -78t-28 -81q-12 -32 -41 -32q-17 0 -31 12t-14 30q0 8 3 17l221 614q7 20 22 33t31 13h23q38 0 55 -46
l222 -612q3 -9 3 -16q0 -21 -17 -33q-54 -68 -54 -113q0 -28 16 -41t40 -13q20 0 38 8zM200 260h244q-113 330 -123 389q-12 -72 -121 -389z" />
    <glyph glyph-name="aogonek" unicode="&#x105;" horiz-adv-x="656" 
d="M613 -149q6 2 9 2q10 0 17 -8.5t7 -19.5q0 -16 -16 -25q-36 -19 -76 -19q-47 0 -75.5 26.5t-28.5 70.5q0 58 60 136q-7 12 -7 24v83q-23 -59 -78 -95t-131 -36q-115 0 -186.5 77t-71.5 192q0 116 72.5 191.5t189.5 75.5q67 0 121.5 -32.5t83.5 -89.5v70q0 20 13.5 31.5
t31.5 11.5t31 -11.5t13 -31.5v-436q0 -31 -28 -40q-45 -61 -45 -101q0 -28 16 -41t40 -13q20 0 38 8zM314 68q82 0 135.5 54.5t53.5 135.5q0 80 -53.5 134.5t-135.5 54.5q-83 0 -136.5 -53.5t-53.5 -135.5t54 -136t136 -54z" />
    <glyph glyph-name="Cacute" unicode="&#x106;" horiz-adv-x="653" 
d="M373 812l52 94q13 24 41 24q15 0 25 -8.5t10 -22.5q0 -15 -11 -31l-58 -83q-14 -20 -35 -20q-12 0 -21 8t-9 20q0 9 6 19zM587 39q-78 -48 -182 -48q-68 0 -131 22.5t-115.5 65.5t-84.5 114.5t-32 161.5q0 91 32 162.5t85 113.5t116 64t131 22q104 0 181 -46
q23 -14 23 -41q0 -14 -8 -24t-22 -10q-10 0 -23 6q-68 34 -146 34q-54 0 -103 -17t-89 -50t-64 -88.5t-24 -125.5q0 -135 82 -208.5t198 -73.5q78 0 148 35q9 5 19 5q14 0 23 -10.5t9 -25.5q0 -25 -23 -38z" />
    <glyph glyph-name="cacute" unicode="&#x107;" horiz-adv-x="526" 
d="M283 618l52 94q13 24 40 24q15 0 26 -9t11 -23q0 -13 -12 -31l-58 -83q-14 -20 -34 -20q-12 0 -21.5 8.5t-9.5 20.5q0 9 6 19zM461 36q-69 -45 -156 -45q-108 0 -187.5 70.5t-79.5 196.5t79.5 196t187.5 70q87 0 156 -46q23 -16 23 -40q0 -14 -8.5 -24.5t-21.5 -10.5
q-9 0 -18 6q-54 36 -120 36q-78 0 -134.5 -50t-56.5 -137q0 -85 56 -136.5t134 -51.5q64 0 119 35q10 6 18 6q13 0 21.5 -11t8.5 -26q0 -24 -21 -38z" />
    <glyph glyph-name="Cdotaccent" unicode="&#x10a;" horiz-adv-x="653" 
d="M389 787q-23 0 -39 16.5t-16 38.5q0 23 16 39.5t39 16.5t39.5 -16.5t16.5 -39.5t-16.5 -39t-39.5 -16zM587 39q-78 -48 -182 -48q-68 0 -131 22.5t-115.5 65.5t-84.5 114.5t-32 161.5q0 91 32 162.5t85 113.5t116 64t131 22q104 0 181 -46q23 -14 23 -41q0 -14 -8 -24
t-22 -10q-10 0 -23 6q-68 34 -146 34q-54 0 -103 -17t-89 -50t-64 -88.5t-24 -125.5q0 -135 82 -208.5t198 -73.5q78 0 148 35q9 5 19 5q14 0 23 -10.5t9 -25.5q0 -25 -23 -38z" />
    <glyph glyph-name="cdotaccent" unicode="&#x10b;" horiz-adv-x="526" 
d="M299 592q-23 0 -39.5 16t-16.5 39t16.5 39.5t39.5 16.5t39 -16.5t16 -39.5t-16 -39t-39 -16zM461 36q-69 -45 -156 -45q-108 0 -187.5 70.5t-79.5 196.5t79.5 196t187.5 70q87 0 156 -46q23 -16 23 -40q0 -14 -8.5 -24.5t-21.5 -10.5q-9 0 -18 6q-54 36 -120 36
q-78 0 -134.5 -50t-56.5 -137q0 -85 56 -136.5t134 -51.5q64 0 119 35q10 6 18 6q13 0 21.5 -11t8.5 -26q0 -24 -21 -38z" />
    <glyph glyph-name="Ccaron" unicode="&#x10c;" horiz-adv-x="653" 
d="M496 867l-67 -76q-16 -18 -41 -18q-26 0 -41 18l-67 76q-15 18 -15 32q0 12 9 19.5t21 7.5q18 0 31 -16q40 -48 61 -83q35 53 64 85q13 15 30 15q12 0 21 -7.5t9 -19.5q0 -17 -15 -33zM587 39q-78 -48 -182 -48q-68 0 -131 22.5t-115.5 65.5t-84.5 114.5t-32 161.5
q0 91 32 162.5t85 113.5t116 64t131 22q104 0 181 -46q23 -14 23 -41q0 -14 -8 -24t-22 -10q-10 0 -23 6q-68 34 -146 34q-54 0 -103 -17t-89 -50t-64 -88.5t-24 -125.5q0 -135 82 -208.5t198 -73.5q78 0 148 35q9 5 19 5q14 0 23 -10.5t9 -25.5q0 -25 -23 -38z" />
    <glyph glyph-name="ccaron" unicode="&#x10d;" horiz-adv-x="526" 
d="M406 672l-67 -76q-15 -17 -41 -17t-41 17l-67 76q-15 16 -15 33q0 12 8.5 19t20.5 7q19 0 32 -16q41 -50 61 -82q36 52 63 83q13 16 32 16q12 0 20.5 -7.5t8.5 -19.5q0 -17 -15 -33zM461 36q-69 -45 -156 -45q-108 0 -187.5 70.5t-79.5 196.5t79.5 196t187.5 70
q87 0 156 -46q23 -16 23 -40q0 -14 -8.5 -24.5t-21.5 -10.5q-9 0 -18 6q-54 36 -120 36q-78 0 -134.5 -50t-56.5 -137q0 -85 56 -136.5t134 -51.5q64 0 119 35q10 6 18 6q13 0 21.5 -11t8.5 -26q0 -24 -21 -38z" />
    <glyph glyph-name="Dcaron" unicode="&#x10e;" horiz-adv-x="705" 
d="M409 867l-67 -76q-15 -18 -41 -18q-25 0 -41 18l-67 76q-15 16 -15 32q0 12 9 19.5t21 7.5q18 0 30 -15q39 -47 62 -84q31 46 64 85q14 15 30 15q12 0 21 -7.5t9 -19.5q0 -17 -15 -33zM305 0h-179q-47 0 -47 47v616q0 47 47 47h179q158 0 252.5 -101t94.5 -254
t-94.5 -254t-252.5 -101zM168 629v-548h137q117 0 187 74.5t70 199.5t-70 199.5t-187 74.5h-137z" />
    <glyph glyph-name="dcaron" unicode="&#x10f;" horiz-adv-x="730" 
d="M633 591l28 122q10 42 47 42q16 0 28 -10.5t12 -26.5q0 -8 -3 -17l-47 -131q-7 -22 -30 -22q-14 0 -25 9.5t-11 24.5q0 6 1 9zM547 754q17 0 30.5 -11.5t13.5 -31.5v-672q0 -20 -13 -31.5t-31 -11.5q-17 0 -30.5 11.5t-13.5 31.5v82q-23 -59 -78 -95t-131 -36
q-115 0 -186.5 77t-71.5 192q0 116 72.5 191.5t189.5 75.5q67 0 121.5 -32.5t83.5 -89.5v307q0 20 13.5 31.5t30.5 11.5zM314 68q82 0 135.5 54.5t53.5 135.5q0 80 -53.5 134.5t-135.5 54.5q-83 0 -136.5 -53.5t-53.5 -135.5t54 -136t136 -54z" />
    <glyph glyph-name="Dcroat" unicode="&#x110;" horiz-adv-x="740" 
d="M162 710h179q158 0 252.5 -101t94.5 -254t-94.5 -254t-252.5 -101h-179q-22 0 -34.5 12.5t-12.5 34.5v279h-86q-13 0 -23 10t-10 23t9.5 22.5t23.5 9.5h86v272q0 22 12.5 34.5t34.5 12.5zM204 81h137q117 0 187.5 74.5t70.5 199.5t-70.5 199.5t-187.5 74.5h-137v-238h109
q14 0 23.5 -9.5t9.5 -22.5t-10 -23t-23 -10h-109v-245z" />
    <glyph glyph-name="dcroat" unicode="&#x111;" horiz-adv-x="655" 
d="M591 650h99q13 0 22.5 -9.5t9.5 -22.5t-9.5 -23t-22.5 -10h-99v-546q0 -20 -13 -31.5t-31 -11.5q-17 0 -30.5 11.5t-13.5 31.5v82q-23 -59 -78 -95t-131 -36q-115 0 -186.5 77t-71.5 192q0 116 72.5 191.5t189.5 75.5q67 0 121.5 -32.5t83.5 -89.5v181h-98q-13 0 -23 10
t-10 23t10 22.5t23 9.5h98v61q0 20 13.5 31.5t30.5 11.5t30.5 -11.5t13.5 -31.5v-61zM314 68q82 0 135.5 54.5t53.5 135.5q0 80 -53.5 134.5t-135.5 54.5q-83 0 -136.5 -53.5t-53.5 -135.5t54 -136t136 -54z" />
    <glyph glyph-name="Emacron" unicode="&#x112;" horiz-adv-x="545" 
d="M418 795h-251q-14 0 -24.5 10.5t-10.5 24.5t10.5 24.5t24.5 10.5h251q14 0 24.5 -10.5t10.5 -24.5t-10.5 -24.5t-24.5 -10.5zM470 0h-344q-47 0 -47 47v616q0 47 47 47h344q17 0 29 -12t12 -28q0 -17 -12 -29t-29 -12h-302v-228h237q16 0 27.5 -12t11.5 -28t-11.5 -27.5
t-27.5 -11.5h-237v-241h302q17 0 29 -12t12 -29q0 -16 -12 -28t-29 -12z" />
    <glyph glyph-name="emacron" unicode="&#x113;" horiz-adv-x="594" 
d="M427 600h-251q-14 0 -24.5 10.5t-10.5 24.5t10.5 24.5t24.5 10.5h251q14 0 24.5 -10.5t10.5 -24.5t-10.5 -24.5t-24.5 -10.5zM558 280q2 -22 -10 -34t-33 -12h-392q4 -76 55.5 -123.5t127.5 -47.5q98 0 154 83q12 18 30 18q14 0 25.5 -12t11.5 -28q0 -13 -9 -25
q-79 -109 -213 -109q-117 0 -193 74t-76 194q0 114 74.5 191t187.5 77q108 0 179 -67t81 -179zM298 454q-72 0 -121.5 -45.5t-53.5 -113.5h350q-5 68 -53 113.5t-122 45.5z" />
    <glyph glyph-name="Edotaccent" unicode="&#x116;" horiz-adv-x="545" 
d="M293 787q-23 0 -39.5 16t-16.5 39t16.5 39.5t39.5 16.5t39 -16.5t16 -39.5q0 -22 -16 -38.5t-39 -16.5zM470 0h-344q-47 0 -47 47v616q0 47 47 47h344q17 0 29 -12t12 -28q0 -17 -12 -29t-29 -12h-302v-228h237q16 0 27.5 -12t11.5 -28t-11.5 -27.5t-27.5 -11.5h-237
v-241h302q17 0 29 -12t12 -29q0 -16 -12 -28t-29 -12z" />
    <glyph glyph-name="edotaccent" unicode="&#x117;" horiz-adv-x="594" 
d="M301 592q-23 0 -39 16t-16 39t16 39.5t39 16.5t39.5 -16.5t16.5 -39.5t-16.5 -39t-39.5 -16zM558 280q2 -22 -10 -34t-33 -12h-392q4 -76 55.5 -123.5t127.5 -47.5q98 0 154 83q12 18 30 18q14 0 25.5 -12t11.5 -28q0 -13 -9 -25q-79 -109 -213 -109q-117 0 -193 74
t-76 194q0 114 74.5 191t187.5 77q108 0 179 -67t81 -179zM298 454q-72 0 -121.5 -45.5t-53.5 -113.5h350q-5 68 -53 113.5t-122 45.5z" />
    <glyph glyph-name="Eogonek" unicode="&#x118;" horiz-adv-x="545" 
d="M533 -152q6 2 9 2q10 0 17 -8.5t7 -19.5q0 -16 -16 -25q-35 -19 -76 -19q-47 0 -75.5 26.5t-28.5 70.5q0 56 52 125h-296q-47 0 -47 47v616q0 47 47 47h344q17 0 29 -12t12 -28q0 -17 -12 -29t-29 -12h-302v-228h237q16 0 27.5 -12t11.5 -28t-11.5 -27.5t-27.5 -11.5
h-237v-241h302q17 0 29 -12t12 -29q0 -22 -18 -33q-54 -68 -54 -113q0 -28 16 -41t40 -13q20 0 38 8z" />
    <glyph glyph-name="eogonek" unicode="&#x119;" horiz-adv-x="594" 
d="M558 280q2 -22 -10 -34t-33 -12h-392q4 -76 55.5 -123.5t127.5 -47.5q98 0 154 83q12 18 30 18q14 0 25.5 -12t11.5 -28q0 -13 -9 -25q-79 -109 -213 -109q-15 0 -22 1q-48 -62 -48 -104q0 -28 16 -41t40 -13q20 0 38 8q6 2 9 2q10 0 17 -8.5t7 -20.5q0 -16 -14 -23
q-37 -20 -78 -20q-47 0 -75.5 26.5t-28.5 70.5q0 56 57 133q-85 24 -136 92t-51 165q0 114 74.5 191t187.5 77q108 0 179 -67t81 -179zM298 454q-72 0 -121.5 -45.5t-53.5 -113.5h350q-5 68 -53 113.5t-122 45.5z" />
    <glyph glyph-name="Ecaron" unicode="&#x11a;" horiz-adv-x="545" 
d="M401 867l-67 -76q-15 -18 -41 -18q-25 0 -41 18l-67 76q-15 16 -15 32q0 12 9 19.5t21 7.5q18 0 30 -15q39 -47 62 -84q31 46 64 85q13 15 30 15q12 0 21 -7.5t9 -19.5q0 -17 -15 -33zM470 0h-344q-47 0 -47 47v616q0 47 47 47h344q17 0 29 -12t12 -28q0 -17 -12 -29
t-29 -12h-302v-228h237q16 0 27.5 -12t11.5 -28t-11.5 -27.5t-27.5 -11.5h-237v-241h302q17 0 29 -12t12 -29q0 -16 -12 -28t-29 -12z" />
    <glyph glyph-name="ecaron" unicode="&#x11b;" horiz-adv-x="594" 
d="M260 596l-67 76q-15 16 -15 32q0 12 9 19.5t22 7.5q18 0 29 -14q49 -60 62 -84q35 51 64 84q14 15 31 15q12 0 20.5 -7.5t8.5 -19.5q0 -14 -15 -32l-67 -77q-15 -17 -41 -17t-41 17zM558 280q2 -22 -10 -34t-33 -12h-392q4 -76 55.5 -123.5t127.5 -47.5q98 0 154 83
q12 18 30 18q14 0 25.5 -12t11.5 -28q0 -13 -9 -25q-79 -109 -213 -109q-117 0 -193 74t-76 194q0 114 74.5 191t187.5 77q108 0 179 -67t81 -179zM298 454q-72 0 -121.5 -45.5t-53.5 -113.5h350q-5 68 -53 113.5t-122 45.5z" />
    <glyph glyph-name="Gbreve" unicode="&#x11e;" horiz-adv-x="784" 
d="M399 769q-111 0 -145 96q-2 5 -2 13q0 16 12 26.5t26 10.5q21 0 27 -24q16 -63 82 -63q67 0 82 63q6 24 29 24q14 0 25 -10.5t11 -26.5q0 -9 -2 -14q-15 -44 -53 -69.5t-92 -25.5zM398 -10q-155 0 -255.5 104.5t-100.5 260.5q0 155 102 260t260 105q157 0 256 -106
q18 -19 18 -42q0 -17 -10 -28.5t-25 -11.5q-19 0 -36 18q-86 88 -202 88q-120 0 -197 -80.5t-77 -203.5q0 -122 74 -202t192 -80q103 0 173.5 64t82.5 166h-290q-18 0 -28.5 12t-10.5 28t10.5 27.5t28.5 11.5h338q49 0 44 -62q-10 -134 -103.5 -231.5t-243.5 -97.5z" />
    <glyph glyph-name="gbreve" unicode="&#x11f;" horiz-adv-x="655" 
d="M334 574q-54 0 -91.5 25t-53.5 70q-2 5 -2 14q0 16 11.5 26.5t25.5 10.5q22 0 28 -25q15 -62 82 -62t82 63q6 24 28 24q14 0 25.5 -10.5t11.5 -26.5q0 -8 -2 -13q-16 -46 -54 -71t-91 -25zM548 519q17 0 30 -11.5t13 -31.5v-430q0 -138 -74 -213.5t-201 -75.5
q-116 0 -200 52q-26 16 -26 41q0 14 9 23t24 9q11 0 20 -4q4 -2 27 -12t39 -15.5t44.5 -11.5t56.5 -6q93 0 143 54t50 159v75q-23 -59 -78 -95t-131 -36q-115 0 -186.5 77t-71.5 192q0 116 72.5 191.5t189.5 75.5q67 0 121.5 -32.5t83.5 -89.5v69q0 22 13.5 34t31.5 12z
M314 68q82 0 135.5 54.5t53.5 135.5q0 80 -53.5 134.5t-135.5 54.5q-83 0 -136.5 -53.5t-53.5 -135.5t54 -136t136 -54z" />
    <glyph glyph-name="Gdotaccent" unicode="&#x120;" horiz-adv-x="784" 
d="M399 787q-23 0 -39 16.5t-16 38.5q0 23 16 39.5t39 16.5t39.5 -16.5t16.5 -39.5t-16.5 -39t-39.5 -16zM398 -10q-155 0 -255.5 104.5t-100.5 260.5q0 155 102 260t260 105q157 0 256 -106q18 -19 18 -42q0 -17 -10 -28.5t-25 -11.5q-19 0 -36 18q-86 88 -202 88
q-120 0 -197 -80.5t-77 -203.5q0 -122 74 -202t192 -80q103 0 173.5 64t82.5 166h-290q-18 0 -28.5 12t-10.5 28t10.5 27.5t28.5 11.5h338q49 0 44 -62q-10 -134 -103.5 -231.5t-243.5 -97.5z" />
    <glyph glyph-name="gdotaccent" unicode="&#x121;" horiz-adv-x="655" 
d="M334 592q-23 0 -39.5 16t-16.5 39t16.5 39.5t39.5 16.5t39 -16.5t16 -39.5t-16.5 -39t-38.5 -16zM548 519q17 0 30 -11.5t13 -31.5v-430q0 -138 -74 -213.5t-201 -75.5q-116 0 -200 52q-26 16 -26 41q0 14 9 23t24 9q11 0 20 -4q4 -2 27 -12t39 -15.5t44.5 -11.5t56.5 -6
q93 0 143 54t50 159v75q-23 -59 -78 -95t-131 -36q-115 0 -186.5 77t-71.5 192q0 116 72.5 191.5t189.5 75.5q67 0 121.5 -32.5t83.5 -89.5v69q0 22 13.5 34t31.5 12zM314 68q82 0 135.5 54.5t53.5 135.5q0 80 -53.5 134.5t-135.5 54.5q-83 0 -136.5 -53.5t-53.5 -135.5
t54 -136t136 -54z" />
    <glyph glyph-name="uni0122" unicode="&#x122;" horiz-adv-x="784" 
d="M398 -10q-155 0 -255.5 104.5t-100.5 260.5q0 155 102 260t260 105q157 0 256 -106q18 -19 18 -42q0 -17 -10 -28.5t-25 -11.5q-19 0 -36 18q-86 88 -202 88q-120 0 -197 -80.5t-77 -203.5q0 -122 74 -202t192 -80q103 0 173.5 64t82.5 166h-290q-18 0 -28.5 12t-10.5 28
t10.5 27.5t28.5 11.5h338q49 0 44 -62q-10 -134 -103.5 -231.5t-243.5 -97.5zM318 -215l27 122q9 40 46 40q15 0 26.5 -11t11.5 -30q0 -11 -4 -22l-42 -121q-7 -21 -30 -21q-14 0 -25 9t-11 25q0 6 1 9z" />
    <glyph glyph-name="uni0123" unicode="&#x123;" horiz-adv-x="655" 
d="M336 563q-16 0 -27.5 11t-11.5 30q0 12 4 23l42 120q7 22 31 22q14 0 25 -10t11 -25q0 -6 -1 -9l-28 -122q-9 -40 -45 -40zM548 519q17 0 30 -11.5t13 -31.5v-430q0 -138 -74 -213.5t-201 -75.5q-116 0 -200 52q-26 16 -26 41q0 14 9 23t24 9q11 0 20 -4q4 -2 27 -12
t39 -15.5t44.5 -11.5t56.5 -6q93 0 143 54t50 159v75q-23 -59 -78 -95t-131 -36q-115 0 -186.5 77t-71.5 192q0 116 72.5 191.5t189.5 75.5q67 0 121.5 -32.5t83.5 -89.5v69q0 22 13.5 34t31.5 12zM314 68q82 0 135.5 54.5t53.5 135.5q0 80 -53.5 134.5t-135.5 54.5
q-83 0 -136.5 -53.5t-53.5 -135.5t54 -136t136 -54z" />
    <glyph glyph-name="Hbar" unicode="&#x126;" horiz-adv-x="707" 
d="M628 568h66q13 0 22.5 -9.5t9.5 -22.5t-9.5 -22.5t-22.5 -9.5h-66v-464q0 -20 -13.5 -31.5t-31.5 -11.5q-17 0 -30.5 11.5t-13.5 31.5v279h-370v-279q0 -20 -13.5 -31.5t-31.5 -11.5t-31.5 11.5t-13.5 31.5v464h-67q-13 0 -22.5 9.5t-9.5 22.5t9.5 22.5t22.5 9.5h67v102
q0 21 13.5 32.5t31.5 11.5t31.5 -11.5t13.5 -32.5v-102h370v102q0 20 13.5 32t30.5 12q18 0 31.5 -11.5t13.5 -32.5v-102zM169 398h370v106h-370v-106z" />
    <glyph glyph-name="hbar" unicode="&#x127;" horiz-adv-x="592" 
d="M332 526q90 0 149 -55.5t59 -167.5v-262q0 -21 -13 -33t-31 -12t-31 12t-13 33v250q0 84 -41 121.5t-104 37.5q-71 0 -112.5 -44.5t-42.5 -123.5v-243q0 -20 -13 -31.5t-31 -11.5q-17 0 -30.5 11.5t-13.5 31.5v547h-98q-14 0 -23.5 9.5t-9.5 22.5q0 14 9.5 23.5t23.5 9.5
h98v60q0 20 13.5 31.5t30.5 11.5q18 0 31 -11.5t13 -31.5v-60h98q14 0 23.5 -9.5t9.5 -23.5q0 -13 -9.5 -22.5t-23.5 -9.5h-98v-165q52 105 180 105z" />
    <glyph glyph-name="Imacron" unicode="&#x12a;" horiz-adv-x="248" 
d="M249 795h-251q-14 0 -24.5 10.5t-10.5 24.5t10.5 24.5t24.5 10.5h251q14 0 24.5 -10.5t10.5 -24.5t-10.5 -24.5t-24.5 -10.5zM79 40v630q0 21 13.5 32.5t31.5 11.5t31 -11.5t13 -32.5v-630q0 -20 -13 -32t-31 -12t-31.5 11.5t-13.5 32.5z" />
    <glyph glyph-name="imacron" unicode="&#x12b;" horiz-adv-x="215" 
d="M233 600h-251q-14 0 -24.5 10.5t-10.5 24.5t10.5 24.5t24.5 10.5h251q14 0 24.5 -10.5t10.5 -24.5t-10.5 -24.5t-24.5 -10.5zM64 39v437q0 20 13 31.5t30 11.5q18 0 31 -11.5t13 -31.5v-437q0 -20 -13 -31.5t-31 -11.5q-17 0 -30 11.5t-13 31.5z" />
    <glyph glyph-name="Iogonek" unicode="&#x12e;" horiz-adv-x="248" 
d="M194 -152q6 2 9 2q10 0 17 -8.5t7 -19.5q0 -16 -16 -25q-36 -19 -76 -19q-47 0 -75.5 26.5t-28.5 70.5q0 58 59 135q-11 11 -11 30v630q0 21 13.5 32.5t31.5 11.5t31 -11.5t13 -32.5v-630q0 -19 -14 -33q-54 -69 -54 -113q0 -28 16 -41t40 -13q20 0 38 8z" />
    <glyph glyph-name="iogonek" unicode="&#x12f;" horiz-adv-x="215" 
d="M108 592q-23 0 -39.5 16t-16.5 39t16.5 39.5t39.5 16.5t39 -16.5t16 -39.5t-16.5 -39t-38.5 -16zM178 -152q6 2 9 2q10 0 17 -8.5t7 -19.5q0 -16 -16 -25q-36 -19 -76 -19q-47 0 -75.5 26.5t-28.5 70.5q0 58 59 135q-10 12 -10 29v437q0 20 13 31.5t30 11.5
q18 0 31 -11.5t13 -31.5v-437q0 -21 -14 -32h1q-54 -69 -54 -113q0 -28 16 -41t40 -13q20 0 38 8z" />
    <glyph glyph-name="Idotaccent" unicode="&#x130;" horiz-adv-x="248" 
d="M124 787q-22 0 -38.5 16.5t-16.5 38.5q0 23 16 39.5t39 16.5t39.5 -16.5t16.5 -39.5t-16.5 -39t-39.5 -16zM80 40v630q0 21 13 32.5t31 11.5t31.5 -11.5t13.5 -32.5v-630q0 -20 -13.5 -32t-31.5 -12t-31 12t-13 32z" />
    <glyph glyph-name="dotlessi" unicode="&#x131;" horiz-adv-x="215" 
d="M64 39v437q0 20 13 31.5t31 11.5q17 0 30 -11.5t13 -31.5v-437q0 -20 -13 -31.5t-30 -11.5q-18 0 -31 11.5t-13 31.5z" />
    <glyph glyph-name="uni0136" unicode="&#x136;" horiz-adv-x="600" 
d="M537 642l-281 -275l281 -300q13 -13 13 -30t-13 -29t-32 -12q-21 0 -39 21l-302 334q4 -85 4 -311q0 -20 -13 -32t-31 -12t-31.5 11.5t-13.5 32.5v630q0 21 13.5 32.5t31.5 11.5t31 -11.5t13 -32.5q0 -209 -4 -285l306 308q21 21 41 21q17 0 30 -11.5t13 -26.5
q0 -18 -17 -34zM291 -53q16 0 27.5 -11t11.5 -30q0 -11 -4 -22l-42 -121q-7 -21 -31 -21q-14 0 -24.5 9t-10.5 25q0 6 1 9l27 122q9 40 45 40z" />
    <glyph glyph-name="uni0137" unicode="&#x137;" horiz-adv-x="518" 
d="M237 276l236 -216q11 -10 11 -24q0 -15 -13 -27t-30 -12q-18 0 -30 12l-263 243q3 -96 3 -212q0 -17 -12 -30.5t-31 -13.5q-18 0 -31 13t-13 30v672q0 17 13 30t31 13t30.5 -13t12.5 -30q0 -301 -3 -410l260 204q20 15 39 15q16 0 27.5 -9t11.5 -22q0 -16 -18 -30z
M246 -53q15 0 26.5 -11t11.5 -30q0 -11 -4 -22l-42 -121q-7 -21 -30 -21q-14 0 -25 9t-11 25q0 6 1 9l27 122q9 40 46 40z" />
    <glyph glyph-name="kgreenlandic" unicode="&#x138;" horiz-adv-x="519" 
d="M238 276l236 -216q11 -10 11 -24q0 -15 -13 -27t-30 -12q-18 0 -30 12l-263 243q3 -96 3 -212q0 -17 -12 -30.5t-31 -13.5q-18 0 -31 13t-13 30l-1 438q0 18 13 31t31 13t30.5 -13t12.5 -31v-76q0 -66 -2 -100l260 204q19 15 39 15q16 0 27.5 -9t11.5 -22q0 -16 -18 -30z
" />
    <glyph glyph-name="Lacute" unicode="&#x139;" horiz-adv-x="510" 
d="M109 812l52 94q13 24 41 24q15 0 25 -8.5t10 -22.5q0 -15 -11 -31l-58 -83q-14 -20 -35 -20q-12 0 -21 8t-9 20q0 9 6 19zM444 0h-321q-44 0 -44 44v626q0 18 13 31t32 13q18 0 31 -13t13 -31v-589h276q16 0 28 -12t12 -29q0 -16 -12 -28t-28 -12z" />
    <glyph glyph-name="lacute" unicode="&#x13a;" horiz-adv-x="215" 
d="M94 853l52 94q13 24 40 24q15 0 26 -9t11 -23q0 -13 -12 -31l-58 -83q-14 -20 -34 -20q-12 0 -21.5 8.5t-9.5 20.5q0 8 6 19zM64 39v672q0 20 13 31.5t31 11.5t30.5 -11.5t12.5 -31.5v-672q0 -20 -13 -31.5t-30 -11.5q-18 0 -31 11.5t-13 31.5z" />
    <glyph glyph-name="uni013B" unicode="&#x13b;" horiz-adv-x="510" 
d="M444 0h-321q-44 0 -44 44v626q0 18 13 31t32 13q18 0 31 -13t13 -31v-589h276q16 0 28 -12t12 -29q0 -16 -12 -28t-28 -12zM190 -215l27 122q9 40 45 40q16 0 27.5 -11t11.5 -30q0 -11 -4 -22l-42 -121q-7 -21 -31 -21q-14 0 -24.5 9t-10.5 25q0 6 1 9z" />
    <glyph glyph-name="uni013C" unicode="&#x13c;" horiz-adv-x="215" 
d="M64 39v672q0 20 13 31.5t31 11.5t30.5 -11.5t12.5 -31.5v-672q0 -20 -12.5 -31.5t-30.5 -11.5q-17 0 -30.5 11.5t-13.5 31.5zM26 -215l27 122q9 40 46 40q15 0 26.5 -11t11.5 -30q0 -11 -4 -22l-42 -121q-7 -21 -30 -21q-16 0 -27.5 11.5t-7.5 31.5z" />
    <glyph glyph-name="Lcaron" unicode="&#x13d;" horiz-adv-x="501" 
d="M300 551l28 122q10 41 47 41q17 0 29 -10t12 -27q0 -7 -3 -16l-48 -131q-7 -22 -30 -22q-14 0 -25 9.5t-11 24.5q0 6 1 9zM444 0h-321q-44 0 -44 44v626q0 18 13 31t32 13q18 0 31 -13t13 -31v-589h276q16 0 28 -12t12 -29q0 -16 -12 -28t-28 -12z" />
    <glyph glyph-name="lcaron" unicode="&#x13e;" horiz-adv-x="290" 
d="M193 591l29 122q10 41 47 41q16 0 28 -10t12 -27q0 -7 -3 -16l-47 -131q-7 -22 -31 -22q-14 0 -25 9.5t-11 24.5q0 6 1 9zM64 39v672q0 20 13 31.5t31 11.5t30.5 -11.5t12.5 -31.5v-672q0 -20 -13 -31.5t-30 -11.5q-18 0 -31 11.5t-13 31.5z" />
    <glyph glyph-name="Ldot" unicode="&#x13f;" horiz-adv-x="510" 
d="M444 0h-321q-44 0 -44 44v626q0 18 13 31t32 13q18 0 31 -13t13 -31v-589h276q16 0 28 -12t12 -29q0 -16 -12 -28t-28 -12zM350 300q-22 0 -38 15.5t-16 37.5t16 38t38 16t37.5 -16t15.5 -38t-15.5 -37.5t-37.5 -15.5z" />
    <glyph glyph-name="ldot" unicode="&#x140;" horiz-adv-x="361" 
d="M64 39v672q0 20 13 31.5t31 11.5t30.5 -11.5t12.5 -31.5v-672q0 -20 -13 -31.5t-30 -11.5q-18 0 -31 11.5t-13 31.5zM288 300q-22 0 -38 15.5t-16 37.5t16 38t38 16t38 -16t16 -38t-16 -37.5t-38 -15.5z" />
    <glyph glyph-name="Lslash" unicode="&#x141;" horiz-adv-x="510" 
d="M168 81h275q17 0 29 -12t12 -29q0 -16 -12 -28t-29 -12h-321q-43 0 -43 44v264l-29 -19q-8 -6 -19 -6q-13 0 -23 11t-10 25q0 16 16 28l65 43v280q0 18 13 31t31 13q19 0 32 -13t13 -31v-221l34 23q10 7 20 7q14 0 23 -11t9 -25q0 -17 -16 -29l-70 -47v-286z" />
    <glyph glyph-name="lslash" unicode="&#x142;" horiz-adv-x="263" 
d="M177 450l32 21q10 7 20 7q14 0 23 -11t9 -25q0 -17 -16 -29l-68 -45v-329q0 -20 -13 -31.5t-31 -11.5q-17 0 -30.5 11.5t-13.5 31.5v270l-32 -21q-9 -6 -19 -6q-13 0 -23 11t-10 25q0 16 16 28l68 45v320q0 20 13.5 31.5t30.5 11.5q18 0 31 -11.5t13 -31.5v-261z" />
    <glyph glyph-name="Nacute" unicode="&#x143;" horiz-adv-x="728" 
d="M473 868l-58 -83q-14 -20 -35 -20q-12 0 -21 8t-9 20q0 9 6 19l52 94q14 24 41 24q15 0 25 -8.5t10 -22.5q0 -15 -11 -31zM605 714q18 0 31 -13t13 -30v-622q0 -22 -16 -37.5t-38 -15.5q-28 0 -43 22l-391 551q5 -55 5 -530q0 -17 -12.5 -30t-30.5 -13t-31 13t-13 30v622
q0 22 15.5 37.5t37.5 15.5q28 0 43 -22l390 -552q-4 86 -4 531q0 17 13 30t31 13z" />
    <glyph glyph-name="nacute" unicode="&#x144;" horiz-adv-x="596" 
d="M400 673l-58 -83q-14 -20 -34 -20q-12 0 -21.5 8.5t-9.5 20.5q0 9 6 19l52 94q13 24 40 24q15 0 26 -9t11 -23q0 -13 -12 -31zM333 526q89 0 148 -55.5t59 -167.5v-262q0 -21 -13 -33t-31 -12t-31 12t-13 33v250q0 84 -41 121.5t-103 37.5q-72 0 -113.5 -44.5
t-42.5 -123.5v-242q0 -20 -13 -32t-31 -12t-31 12t-13 32v435q0 21 13 32.5t31 11.5t31 -11.5t13 -32.5v-56q52 107 181 107z" />
    <glyph glyph-name="uni0145" unicode="&#x145;" horiz-adv-x="728" 
d="M605 714q18 0 31 -13t13 -30v-622q0 -22 -16 -37.5t-38 -15.5q-28 0 -43 22l-391 551q5 -55 5 -530q0 -17 -12.5 -30t-30.5 -13t-31 13t-13 30v622q0 22 15.5 37.5t37.5 15.5q28 0 43 -22l390 -552q-4 86 -4 531q0 17 13 30t31 13zM363 -53q16 0 27.5 -11t11.5 -30
q0 -11 -4 -22l-42 -121q-7 -21 -31 -21q-14 0 -24.5 9t-10.5 25q0 6 1 9l27 122q9 40 45 40z" />
    <glyph glyph-name="uni0146" unicode="&#x146;" horiz-adv-x="596" 
d="M333 526q89 0 148 -55.5t59 -167.5v-262q0 -21 -13 -33t-31 -12t-31 12t-13 33v250q0 84 -41 121.5t-103 37.5q-72 0 -113.5 -44.5t-42.5 -123.5v-242q0 -20 -13 -32t-31 -12t-31 12t-13 32v435q0 21 13 32.5t31 11.5t31 -11.5t13 -32.5v-56q52 107 181 107zM299 -53
q15 0 26.5 -11t11.5 -30q0 -11 -4 -22l-42 -121q-7 -21 -30 -21q-14 0 -25 9t-11 25q0 6 1 9l27 122q9 40 46 40z" />
    <glyph glyph-name="Ncaron" unicode="&#x147;" horiz-adv-x="728" 
d="M330 791l-67 76q-15 16 -15 32q0 12 9 19.5t21 7.5q18 0 30 -15q39 -47 62 -84q31 46 64 85q14 15 30 15q12 0 21 -7.5t9 -19.5q0 -17 -15 -33l-67 -76q-15 -18 -41 -18q-25 0 -41 18zM605 714q18 0 31 -13t13 -30v-622q0 -22 -16 -37.5t-38 -15.5q-28 0 -43 22l-391 551
q5 -55 5 -530q0 -17 -12.5 -30t-30.5 -13t-31 13t-13 30v622q0 22 15.5 37.5t37.5 15.5q28 0 43 -22l390 -552q-4 86 -4 531q0 17 13 30t31 13z" />
    <glyph glyph-name="ncaron" unicode="&#x148;" horiz-adv-x="596" 
d="M257 596l-67 76q-15 16 -15 32q0 12 9 19.5t22 7.5q18 0 29 -14q49 -60 62 -84q35 51 64 84q13 15 31 15q12 0 20.5 -7.5t8.5 -19.5q0 -14 -15 -32l-67 -77q-15 -17 -41 -17t-41 17zM333 526q89 0 148 -55.5t59 -167.5v-262q0 -21 -13 -33t-31 -12t-31 12t-13 33v250
q0 84 -41 121.5t-103 37.5q-72 0 -113.5 -44.5t-42.5 -123.5v-242q0 -20 -13 -32t-31 -12t-31 12t-13 32v435q0 21 13 32.5t31 11.5t31 -11.5t13 -32.5v-56q52 107 181 107z" />
    <glyph glyph-name="Eng" unicode="&#x14a;" horiz-adv-x="728" 
d="M605 714q18 0 31 -13t13 -30v-860q0 -21 -13 -32.5t-31 -11.5q-17 0 -30.5 12t-13.5 32v197q-8 8 -9 10l-391 551q5 -55 5 -530q0 -17 -12.5 -30t-30.5 -13t-31 13t-13 30v622q0 22 15.5 37.5t37.5 15.5q28 0 43 -22l390 -552q-4 86 -4 531q0 17 13 30t31 13z" />
    <glyph glyph-name="eng" unicode="&#x14b;" horiz-adv-x="596" 
d="M333 526q89 0 148 -55.5t59 -167.5v-492q0 -19 -13 -32t-31 -13t-31 13t-13 32v480q0 84 -41 121.5t-103 37.5q-72 0 -113.5 -44.5t-42.5 -123.5v-242q0 -20 -13 -32t-31 -12t-31 12t-13 32v435q0 21 13 32.5t31 11.5t31 -11.5t13 -32.5v-56q52 107 181 107z" />
    <glyph glyph-name="Omacron" unicode="&#x14c;" horiz-adv-x="801" 
d="M526 795h-251q-14 0 -24.5 10.5t-10.5 24.5t10.5 24.5t24.5 10.5h251q14 0 24.5 -10.5t10.5 -24.5t-10.5 -24.5t-24.5 -10.5zM401 -10q-154 0 -256.5 105t-102.5 260t102.5 260t256.5 105q153 0 255.5 -105t102.5 -260t-102.5 -260t-255.5 -105zM401 73q114 0 191.5 82
t77.5 200t-77.5 200t-191.5 82q-115 0 -192.5 -82t-77.5 -200t77.5 -200t192.5 -82z" />
    <glyph glyph-name="omacron" unicode="&#x14d;" horiz-adv-x="621" 
d="M435 600h-251q-14 0 -24.5 10.5t-10.5 24.5t10.5 24.5t24.5 10.5h251q14 0 24.5 -10.5t10.5 -24.5q0 -15 -10.5 -25t-24.5 -10zM310 -10q-117 0 -195.5 76.5t-78.5 191.5t78.5 191.5t195.5 76.5q118 0 196 -76.5t78 -191.5t-78 -191.5t-196 -76.5zM310 69
q80 0 134.5 54.5t54.5 135.5q0 80 -54 134t-135 54q-80 0 -134.5 -54t-54.5 -134q0 -81 54.5 -135.5t134.5 -54.5z" />
    <glyph glyph-name="Ohungarumlaut" unicode="&#x150;" horiz-adv-x="801" 
d="M445 812l51 95q14 24 40 24q16 0 27 -9t11 -23q0 -13 -12 -31l-58 -83q-14 -20 -34 -20q-12 0 -21 8t-9 20q0 10 5 19zM308 812l51 95q13 23 40 23q15 0 26 -9t11 -23q0 -15 -11 -30l-58 -83q-15 -21 -35 -21q-12 0 -20.5 8t-8.5 21q0 10 5 19zM401 -10
q-154 0 -256.5 105t-102.5 260t102.5 260t256.5 105q153 0 255.5 -105t102.5 -260t-102.5 -260t-255.5 -105zM401 73q114 0 191.5 82t77.5 200t-77.5 200t-191.5 82q-115 0 -192.5 -82t-77.5 -200t77.5 -200t192.5 -82z" />
    <glyph glyph-name="ohungarumlaut" unicode="&#x151;" horiz-adv-x="621" 
d="M216 618l52 94q14 24 40 24q15 0 26 -9t11 -23q0 -13 -12 -31l-58 -83q-14 -20 -34 -20q-12 0 -21.5 8.5t-9.5 20.5q0 9 6 19zM354 618l51 94q13 24 40 24q16 0 27 -9t11 -23q0 -13 -12 -31l-58 -83q-14 -20 -34 -20q-12 0 -21.5 8.5t-9.5 20.5q0 9 6 19zM310 -10
q-117 0 -195.5 76.5t-78.5 191.5t78.5 191.5t195.5 76.5q118 0 196 -76.5t78 -191.5t-78 -191.5t-196 -76.5zM310 69q80 0 134.5 54.5t54.5 135.5q0 80 -54 134t-135 54q-80 0 -134.5 -54t-54.5 -134q0 -81 54.5 -135.5t134.5 -54.5z" />
    <glyph glyph-name="OE" unicode="&#x152;" horiz-adv-x="884" 
d="M809 -3h-392q-177 0 -278 99.5t-101 258.5t101 258.5t278 99.5h392q17 -2 28.5 -14.5t11.5 -28.5q0 -17 -12 -29t-28 -12h-303v-228h238q16 0 27.5 -12t11.5 -28t-11.5 -27.5t-27.5 -11.5h-238v-241h303q16 0 28 -12t12 -29q0 -16 -11.5 -28.5t-28.5 -14.5zM417 79v552
q-138 4 -214 -74.5t-76 -201.5t76 -201.5t214 -74.5z" />
    <glyph glyph-name="oe" unicode="&#x153;" horiz-adv-x="1056" 
d="M1020 279q2 -21 -10.5 -33t-32.5 -12h-392q3 -76 55 -123.5t128 -47.5q97 0 153 82q13 19 31 19q14 0 25 -11.5t11 -27.5q0 -15 -9 -27q-79 -108 -212 -108q-73 0 -133 30.5t-95 86.5q-37 -55 -96.5 -86t-132.5 -31q-117 0 -195.5 76.5t-78.5 191.5t78.5 191.5
t195.5 76.5q73 0 133 -31.5t97 -86.5q34 55 91.5 86.5t127.5 31.5q108 0 179.5 -67t81.5 -180zM759 454q-72 0 -121 -45.5t-53 -113.5h350q-5 68 -53.5 113.5t-122.5 45.5zM310 69q76 0 129 49.5t59 124.5v15v16q-5 75 -58 124t-130 49q-80 0 -134.5 -54t-54.5 -134
q0 -81 54.5 -135.5t134.5 -54.5z" />
    <glyph glyph-name="Racute" unicode="&#x154;" horiz-adv-x="608" 
d="M401 868l-58 -83q-14 -20 -35 -20q-12 0 -21 8t-9 20q0 9 6 19l52 94q14 24 41 24q15 0 25 -8.5t10 -22.5q0 -15 -11 -31zM336 298h-52q56 -46 247 -235q12 -12 12 -26q0 -16 -13.5 -28t-31.5 -12q-17 0 -32 15l-303 302q5 -95 5 -274q0 -18 -13 -31t-31 -13
q-19 0 -32 13t-13 31v626q0 44 44 44h206q109 0 172.5 -56t63.5 -150q0 -99 -67 -152.5t-162 -53.5zM319 629h-151v-266h151q75 0 116 37t41 97q0 59 -41 95.5t-116 36.5z" />
    <glyph glyph-name="racute" unicode="&#x155;" horiz-adv-x="352" 
d="M275 673l-58 -83q-14 -20 -34 -20q-12 0 -21.5 8.5t-9.5 20.5q0 9 6 19l52 94q14 24 40 24q15 0 26 -9t11 -23q0 -13 -12 -31zM294 518q22 0 33 -10.5t11 -25.5q0 -16 -11.5 -29t-38.5 -12q-64 1 -100.5 -31.5t-36.5 -91.5v-279q0 -20 -13 -31.5t-30 -11.5
q-18 0 -31 11.5t-13 31.5v437q0 20 13 31.5t31 11.5q17 0 30 -11.5t13 -31.5v-42q42 84 143 84z" />
    <glyph glyph-name="uni0156" unicode="&#x156;" horiz-adv-x="608" 
d="M336 298h-52q56 -46 247 -235q12 -12 12 -26q0 -16 -13.5 -28t-31.5 -12q-17 0 -32 15l-303 302q5 -95 5 -274q0 -18 -13 -31t-31 -13q-19 0 -32 13t-13 31v626q0 44 44 44h206q109 0 172.5 -56t63.5 -150q0 -99 -67 -152.5t-162 -53.5zM319 629h-151v-266h151
q75 0 116 37t41 97q0 59 -41 95.5t-116 36.5zM291 -53q16 0 27.5 -11t11.5 -30q0 -11 -4 -22l-42 -121q-7 -21 -31 -21q-14 0 -24.5 9t-10.5 25q0 6 1 9l27 122q9 40 45 40z" />
    <glyph glyph-name="uni0157" unicode="&#x157;" horiz-adv-x="352" 
d="M294 518q21 0 33 -10.5t12 -25.5q0 -17 -13 -29.5t-38 -11.5q-63 2 -100 -30.5t-37 -92.5v-279q0 -20 -12.5 -31.5t-30.5 -11.5q-17 0 -30.5 11.5t-13.5 31.5v437q0 20 13.5 31.5t30.5 11.5t30 -11.5t13 -31.5v-43q43 85 143 85zM98 -53q15 0 26.5 -11t11.5 -30
q0 -11 -4 -22l-42 -121q-7 -21 -30 -21q-14 0 -25 9t-11 25q0 6 1 9l27 122q9 40 46 40z" />
    <glyph glyph-name="Rcaron" unicode="&#x158;" horiz-adv-x="608" 
d="M259 791l-67 76q-15 16 -15 32q0 12 9 19.5t21 7.5q18 0 30 -15q39 -47 62 -84q31 46 64 85q13 15 30 15q12 0 21 -7.5t9 -19.5q0 -17 -15 -33l-67 -76q-18 -18 -41 -18q-25 0 -41 18zM336 298h-52q56 -46 247 -235q12 -12 12 -26q0 -16 -13.5 -28t-31.5 -12
q-17 0 -32 15l-303 302q5 -95 5 -274q0 -18 -13 -31t-31 -13q-19 0 -32 13t-13 31v626q0 44 44 44h206q109 0 172.5 -56t63.5 -150q0 -99 -67 -152.5t-162 -53.5zM319 629h-151v-266h151q75 0 116 37t41 97q0 59 -41 95.5t-116 36.5z" />
    <glyph glyph-name="rcaron" unicode="&#x159;" horiz-adv-x="352" 
d="M133 596l-67 76q-15 16 -15 32q0 12 9 19.5t22 7.5q18 0 29 -14q49 -60 62 -84q35 51 64 84q13 15 31 15q12 0 20.5 -7.5t8.5 -19.5q0 -14 -15 -32l-67 -77q-15 -17 -41 -17t-41 17zM294 518q22 0 33 -10.5t11 -25.5q0 -16 -11.5 -29t-38.5 -12q-64 1 -100.5 -31.5
t-36.5 -91.5v-279q0 -20 -13 -31.5t-30 -11.5q-18 0 -31 11.5t-13 31.5v437q0 20 13 31.5t31 11.5q17 0 30 -11.5t13 -31.5v-42q42 84 143 84z" />
    <glyph glyph-name="Sacute" unicode="&#x15a;" horiz-adv-x="560" 
d="M263 812l51 94q13 24 40 24q16 0 26.5 -8.5t10.5 -23.5t-11 -30l-58 -83q-14 -20 -34 -20q-12 0 -21 8t-9 20q0 10 5 19zM283 -10q-86 0 -150 41t-91 122q-3 11 -3 19q0 21 14.5 35.5t32.5 14.5q30 0 39 -37q15 -60 58.5 -89.5t99.5 -29.5q66 0 105 31t39 82
q0 39 -27.5 68.5t-68 46.5t-88.5 39t-88.5 44.5t-68 64t-27.5 95.5q0 82 61 132.5t154 50.5q82 0 139.5 -40t81.5 -110q3 -9 3 -18q0 -20 -14 -33.5t-31 -13.5q-29 0 -40 34q-16 50 -51.5 77.5t-86.5 27.5q-53 0 -89 -28t-36 -76q0 -41 27.5 -71t68.5 -46.5t89.5 -38
t89.5 -43t68.5 -62t27.5 -95.5q0 -89 -66.5 -141.5t-171.5 -52.5z" />
    <glyph glyph-name="sacute" unicode="&#x15b;" horiz-adv-x="482" 
d="M224 618l51 94q13 24 40 24q16 0 27 -9t11 -23q0 -13 -12 -31l-58 -83q-14 -20 -34 -20q-12 0 -21.5 8.5t-9.5 20.5q0 9 6 19zM248 -10q-144 0 -202 100q-8 13 -8 29q0 18 12 30.5t27 12.5q22 0 35 -24q42 -78 137 -78q51 0 81.5 20t30.5 55q0 33 -32 53.5t-78 33
t-92 27.5t-78 47t-32 82q0 67 53 107t134 40q58 0 107 -24.5t73 -64.5q9 -15 9 -29q0 -16 -10 -28t-24 -12q-19 0 -35 22q-48 68 -121 68q-44 0 -72.5 -20t-28.5 -52q0 -27 23.5 -45.5t58.5 -27.5t75.5 -22t75.5 -27.5t58.5 -46t23.5 -75.5q0 -72 -55 -111.5t-146 -39.5z
" />
    <glyph glyph-name="Scedilla" unicode="&#x15e;" horiz-adv-x="560" 
d="M521 184q0 -83 -59.5 -135t-155.5 -58l-20 -55q33 -6 54.5 -28.5t21.5 -54.5q0 -39 -29 -63.5t-80 -24.5q-22 0 -53 10q-17 6 -17 25q0 23 20 23q6 0 9 -1q18 -5 35 -5q50 0 50 38q0 18 -14 30t-36 15q-24 4 -24 28q0 7 3 16l18 48q-73 9 -125.5 49t-76.5 112
q-3 11 -3 19q0 21 14.5 35.5t32.5 14.5q30 0 39 -37q15 -60 58.5 -89.5t99.5 -29.5q66 0 105 31t39 82q0 39 -27.5 68.5t-68 46.5t-88.5 39t-88.5 44.5t-68 64t-27.5 95.5q0 82 61 132.5t154 50.5q82 0 139.5 -40t81.5 -110q3 -9 3 -18q0 -20 -14 -33.5t-31 -13.5
q-29 0 -40 34q-16 50 -51.5 77.5t-86.5 27.5q-53 0 -89 -28t-36 -76q0 -41 27.5 -71t68.5 -46.5t89.5 -38t89.5 -43t68.5 -62t27.5 -95.5z" />
    <glyph glyph-name="scedilla" unicode="&#x15f;" horiz-adv-x="482" 
d="M449 141q0 -68 -50 -107t-133 -44l-20 -54q33 -6 54.5 -28.5t21.5 -55.5q0 -40 -30 -63.5t-79 -23.5q-23 0 -53 10q-17 6 -17 25q0 23 20 23q6 0 9 -1q18 -5 35 -5q50 0 50 38q0 37 -50 45q-24 4 -24 29q0 6 3 15l18 49q-111 15 -158 97q-8 13 -8 29q0 18 12 30.5
t27 12.5q22 0 35 -24q42 -78 137 -78q51 0 81.5 20t30.5 55q0 33 -32 53.5t-78 33t-92 27.5t-78 47t-32 82q0 67 53 107t134 40q58 0 107 -24.5t73 -64.5q9 -15 9 -29q0 -16 -10 -28t-24 -12q-19 0 -35 22q-48 68 -121 68q-44 0 -72.5 -20t-28.5 -52q0 -27 23.5 -45.5
t58.5 -27.5t75.5 -22t75.5 -27.5t58.5 -46t23.5 -75.5z" />
    <glyph glyph-name="Scaron" unicode="&#x160;" horiz-adv-x="560" 
d="M387 867l-67 -76q-15 -18 -41 -18q-28 0 -42 18l-66 76q-15 18 -15 32q0 12 8.5 19.5t21.5 7.5q18 0 30 -15q45 -55 62 -84q34 50 63 84q12 15 32 15q12 0 20.5 -7t8.5 -19q0 -17 -15 -33zM283 -10q-86 0 -150 41t-91 122q-3 11 -3 19q0 21 14.5 35.5t32.5 14.5
q30 0 39 -37q15 -60 58.5 -89.5t99.5 -29.5q66 0 105 31t39 82q0 39 -27.5 68.5t-68 46.5t-88.5 39t-88.5 44.5t-68 64t-27.5 95.5q0 82 61 132.5t154 50.5q82 0 139.5 -40t81.5 -110q3 -9 3 -18q0 -20 -14 -33.5t-31 -13.5q-29 0 -40 34q-16 50 -51.5 77.5t-86.5 27.5
q-53 0 -89 -28t-36 -76q0 -41 27.5 -71t68.5 -46.5t89.5 -38t89.5 -43t68.5 -62t27.5 -95.5q0 -89 -66.5 -141.5t-171.5 -52.5z" />
    <glyph glyph-name="scaron" unicode="&#x161;" horiz-adv-x="482" 
d="M347 672l-67 -76q-15 -17 -41 -17q-27 0 -42 17l-66 76q-15 16 -15 33q0 12 8.5 19.5t20.5 7.5q18 0 31 -16q36 -45 62 -83q28 42 64 85q11 14 29 14q13 0 22 -8t9 -20q0 -16 -15 -32zM248 -10q-144 0 -202 100q-8 13 -8 29q0 18 12 30.5t27 12.5q22 0 35 -24
q42 -78 137 -78q51 0 81.5 20t30.5 55q0 33 -32 53.5t-78 33t-92 27.5t-78 47t-32 82q0 67 53 107t134 40q58 0 107 -24.5t73 -64.5q9 -15 9 -29q0 -16 -10 -28t-24 -12q-19 0 -35 22q-48 68 -121 68q-44 0 -72.5 -20t-28.5 -52q0 -27 23.5 -45.5t58.5 -27.5t75.5 -22
t75.5 -27.5t58.5 -46t23.5 -75.5q0 -72 -55 -111.5t-146 -39.5z" />
    <glyph glyph-name="uni0162" unicode="&#x162;" horiz-adv-x="537" 
d="M61 710h415q16 0 28 -12t12 -28q0 -17 -12 -29t-28 -12h-163v-589q0 -15 -10 -28l-28 -76q33 -6 54.5 -29.5t21.5 -53.5q0 -40 -30 -64t-79 -24q-24 0 -51 9q-21 8 -21 26q0 9 6 16t16 7q6 0 9 -1q18 -5 35 -5q50 0 50 38q0 37 -50 45q-25 4 -25 29q0 7 3 15l24 65
q-14 12 -14 31v589h-163q-16 0 -28 12t-12 29q0 16 12 28t28 12z" />
    <glyph glyph-name="uni0163" unicode="&#x163;" horiz-adv-x="331" 
d="M191 515h79q14 0 24.5 -10.5t10.5 -24.5t-10.5 -24t-24.5 -10h-79v-407q0 -20 -13 -31l-26 -72q35 -7 55.5 -29t20.5 -55q0 -40 -29.5 -63.5t-78.5 -23.5q-24 0 -54 10q-17 6 -17 25q0 23 20 23q6 0 9 -1q18 -5 35 -5q50 0 50 38q0 18 -14 30t-35 15q-25 3 -25 29
q0 7 3 15l24 65q-12 12 -12 30v407h-46q-14 0 -24.5 10t-10.5 24t10.5 24.5t24.5 10.5h46v109q0 20 13.5 31.5t30.5 11.5t30 -11.5t13 -31.5v-109z" />
    <glyph glyph-name="Tcaron" unicode="&#x164;" horiz-adv-x="537" 
d="M377 867l-67 -76q-18 -18 -41 -18q-27 0 -42 18l-67 76q-15 18 -15 32q0 12 8.5 19.5t20.5 7.5q20 0 33 -17q43 -53 61 -82q29 47 63 85q13 14 30 14q12 0 21.5 -7.5t9.5 -19.5q0 -16 -15 -32zM269 -4q-19 0 -32 13t-13 31v589h-163q-16 0 -28 12t-12 29q0 16 12 28
t28 12h415q16 0 28 -12t12 -28q0 -17 -12 -29t-28 -12h-163v-589q0 -18 -13 -31t-31 -13z" />
    <glyph glyph-name="tcaron" unicode="&#x165;" horiz-adv-x="282" 
d="M255 624l28 122q10 41 46 41q17 0 29 -10t12 -27q0 -7 -3 -16l-47 -132q-7 -22 -30 -22q-14 0 -25 9.5t-11 25.5q0 6 1 9zM191 515h79q14 0 24.5 -10.5t10.5 -24.5t-10.5 -24t-24.5 -10h-79v-407q0 -20 -13 -31.5t-30 -11.5q-18 0 -31 11.5t-13 31.5v407h-46
q-14 0 -24.5 10t-10.5 24t10.5 24.5t24.5 10.5h46v109q0 20 13.5 31.5t30.5 11.5t30 -11.5t13 -31.5v-109z" />
    <glyph glyph-name="Tbar" unicode="&#x166;" horiz-adv-x="537" 
d="M61 710h415q16 0 28 -12t12 -28q0 -17 -12 -29t-28 -12h-163v-228h97q14 0 23.5 -9.5t9.5 -22.5t-9.5 -23t-23.5 -10h-97v-296q0 -18 -13 -31t-31 -13q-19 0 -32 13t-13 31v296h-98q-14 0 -23.5 10t-9.5 23t9.5 22.5t23.5 9.5h98v228h-163q-16 0 -28 12t-12 29
q0 16 12 28t28 12z" />
    <glyph glyph-name="tbar" unicode="&#x167;" horiz-adv-x="331" 
d="M192 268h75q14 0 23.5 -9.5t9.5 -22.5q0 -14 -10 -23.5t-23 -9.5h-75v-164q0 -20 -13 -31.5t-31 -11.5q-17 0 -30.5 11.5t-13.5 31.5v164h-49q-13 0 -23 9.5t-10 23.5q0 13 9.5 22.5t23.5 9.5h49v178h-46q-14 0 -24.5 10t-10.5 24q0 15 10.5 25t24.5 10h46v109
q0 20 13.5 31.5t30.5 11.5q18 0 31 -11.5t13 -31.5v-109h78q14 0 24.5 -10.5t10.5 -24.5t-10.5 -24t-24.5 -10h-78v-178z" />
    <glyph glyph-name="Utilde" unicode="&#x168;" horiz-adv-x="695" 
d="M415 789q-31 0 -70.5 22.5t-57.5 22.5q-22 0 -37 -26q-10 -17 -27 -17q-13 0 -23 10t-10 25q0 10 6 22q11 23 33 39t53 16q29 0 68 -23t57 -23q20 0 37 26q10 16 27 16q13 0 23.5 -10.5t10.5 -25.5q0 -8 -5 -20q-27 -54 -85 -54zM348 -10q-129 0 -204.5 77t-75.5 221v382
q0 18 13 31t32 13q18 0 31 -13t13 -31v-384q0 -107 52 -161t139 -54q86 0 138 54t52 161v384q0 18 13 31t32 13q18 0 31 -13t13 -31v-382q0 -144 -75 -221t-204 -77z" />
    <glyph glyph-name="utilde" unicode="&#x169;" horiz-adv-x="596" 
d="M200 612q-8 -15 -25 -15q-13 0 -23.5 10t-10.5 25q0 7 5 19q28 57 87 57q29 0 68 -23t57 -23q20 0 36 25q12 18 28 18q14 0 24 -10.5t10 -26.5q0 -11 -5 -20q-27 -54 -85 -54q-31 0 -70.5 22.5t-57.5 22.5q-22 0 -38 -27zM488 519q18 0 31 -11.5t13 -32.5v-435
q0 -21 -13 -32.5t-31 -11.5t-31 12t-13 32v55q-52 -105 -180 -105q-90 0 -149 55t-59 167v262q0 21 13 33t31 12t31 -12t13 -33v-250q0 -83 41 -121t104 -38q70 0 112 43.5t43 124.5v242q0 21 13.5 32.5t30.5 11.5z" />
    <glyph glyph-name="Umacron" unicode="&#x16a;" horiz-adv-x="695" 
d="M473 795h-251q-14 0 -24 10.5t-10 24.5t10 24.5t24 10.5h251q14 0 24.5 -10.5t10.5 -24.5t-10.5 -24.5t-24.5 -10.5zM348 -10q-129 0 -204.5 77t-75.5 221v382q0 18 13 31t32 13q18 0 31 -13t13 -31v-384q0 -107 52 -161t139 -54q86 0 138 54t52 161v384q0 18 13 31
t32 13q18 0 31 -13t13 -31v-382q0 -144 -75 -221t-204 -77z" />
    <glyph glyph-name="umacron" unicode="&#x16b;" horiz-adv-x="596" 
d="M424 600h-251q-14 0 -24.5 10.5t-10.5 24.5t10.5 24.5t24.5 10.5h251q14 0 24.5 -10.5t10.5 -24.5t-10.5 -24.5t-24.5 -10.5zM488 519q18 0 31 -11.5t13 -32.5v-435q0 -21 -13 -32.5t-31 -11.5t-31 12t-13 32v55q-52 -105 -180 -105q-90 0 -149 55t-59 167v262
q0 21 13 33t31 12t31 -12t13 -33v-250q0 -83 41 -121t104 -38q70 0 112 43.5t43 124.5v242q0 21 13.5 32.5t30.5 11.5z" />
    <glyph glyph-name="Uring" unicode="&#x16e;" horiz-adv-x="695" 
d="M348 770q-41 0 -69.5 28.5t-28.5 68.5q0 41 29 69.5t69 28.5t69 -28.5t29 -69.5q0 -40 -29 -68.5t-69 -28.5zM348 818q20 0 34.5 14.5t14.5 34.5q0 21 -14.5 35t-34.5 14t-34.5 -14t-14.5 -35q0 -20 14.5 -34.5t34.5 -14.5zM348 -10q-129 0 -204.5 77t-75.5 221v382
q0 18 13 31t32 13q18 0 31 -13t13 -31v-384q0 -107 52 -161t139 -54q86 0 138 54t52 161v384q0 18 13 31t32 13q18 0 31 -13t13 -31v-382q0 -144 -75 -221t-204 -77z" />
    <glyph glyph-name="uring" unicode="&#x16f;" horiz-adv-x="596" 
d="M299 575q-41 0 -69.5 28.5t-28.5 68.5t28.5 69t69.5 29q40 0 69 -29t29 -69t-29 -68.5t-69 -28.5zM299 721q-20 0 -34.5 -14t-14.5 -35q0 -20 14.5 -34.5t34.5 -14.5t34.5 14.5t14.5 34.5q0 21 -14.5 35t-34.5 14zM488 519q18 0 31 -11.5t13 -32.5v-435q0 -21 -13 -32.5
t-31 -11.5t-31 12t-13 32v55q-52 -105 -180 -105q-90 0 -149 55t-59 167v262q0 21 13 33t31 12t31 -12t13 -33v-250q0 -83 41 -121t104 -38q70 0 112 43.5t43 124.5v242q0 21 13.5 32.5t30.5 11.5z" />
    <glyph glyph-name="Uhungarumlaut" unicode="&#x170;" horiz-adv-x="695" 
d="M255 812l51 95q14 24 40 24q16 0 27 -9t11 -23q0 -13 -12 -31l-58 -83q-14 -20 -34 -20q-12 0 -21 8t-9 20q0 10 5 19zM392 812l52 95q14 24 40 24q15 0 26 -9t11 -23q0 -13 -12 -31l-58 -83q-14 -20 -34 -20q-12 0 -21 8t-9 20q0 10 5 19zM348 -10q-129 0 -204.5 77
t-75.5 221v382q0 18 13 31t32 13q18 0 31 -13t13 -31v-384q0 -107 52 -161t139 -54q86 0 138 54t52 161v384q0 18 13 31t32 13q18 0 31 -13t13 -31v-382q0 -144 -75 -221t-204 -77z" />
    <glyph glyph-name="uhungarumlaut" unicode="&#x171;" horiz-adv-x="596" 
d="M323 673l-58 -83q-14 -20 -34 -20q-12 0 -21.5 8.5t-9.5 20.5q0 9 6 19l51 94q13 24 40 24q16 0 27 -9t11 -23q0 -13 -12 -31zM460 673l-58 -83q-14 -20 -34 -20q-12 0 -21.5 8.5t-9.5 20.5q0 9 6 19l52 94q13 24 40 24q15 0 26 -9t11 -23q0 -13 -12 -31zM488 519
q18 0 31 -11.5t13 -32.5v-435q0 -21 -13 -32.5t-31 -11.5t-31 12t-13 32v55q-52 -105 -180 -105q-90 0 -149 55t-59 167v262q0 21 13 33t31 12t31 -12t13 -33v-250q0 -83 41 -121t104 -38q70 0 112 43.5t43 124.5v242q0 21 13.5 32.5t30.5 11.5z" />
    <glyph glyph-name="Uogonek" unicode="&#x172;" horiz-adv-x="695" 
d="M583 714q18 0 31 -13t13 -31v-382q0 -119 -52 -193t-145 -96q-53 -69 -53 -112q0 -28 16 -41t40 -13q20 0 38 8q6 2 9 2q10 0 17 -8.5t7 -19.5q0 -16 -16 -25q-36 -19 -77 -19q-47 0 -75 26.5t-28 70.5q0 52 49 122h-9q-129 0 -204.5 77t-75.5 221v382q0 18 13 31t32 13
q18 0 31 -13t13 -31v-384q0 -107 52 -161t139 -54q86 0 138 54t52 161v384q0 18 13 31t32 13z" />
    <glyph glyph-name="uogonek" unicode="&#x173;" horiz-adv-x="596" 
d="M557 -152q6 2 9 2q11 0 18 -8.5t7 -19.5q0 -16 -15 -24q-37 -20 -78 -20q-47 0 -75 26.5t-28 70.5q0 59 59 136q-10 13 -10 29v55q-52 -105 -180 -105q-90 0 -149 55t-59 167v262q0 21 13 33t31 12t31 -12t13 -33v-250q0 -83 41 -121t104 -38q70 0 112 43.5t43 124.5v242
q0 21 13.5 32.5t30.5 11.5q18 0 31 -11.5t13 -32.5v-435q0 -21 -14 -33q-54 -68 -54 -113q0 -28 15.5 -41t39.5 -13q20 0 38 8z" />
    <glyph glyph-name="Wcircumflex" unicode="&#x174;" horiz-adv-x="946" 
d="M411 790q-13 -14 -30 -14q-12 0 -21 7t-9 19q0 15 15 33l67 76q15 18 41 18q27 0 42 -17l66 -77q15 -18 15 -32q0 -12 -8.5 -19.5t-21.5 -7.5q-18 0 -30 15q-45 55 -62 84q-34 -51 -64 -85zM871 715q17 0 31 -11.5t14 -29.5q0 -4 -2 -14l-175 -616q-13 -48 -63 -48
t-63 50q-128 482 -139 553q-16 -96 -143 -555q-13 -48 -62 -48t-63 47l-173 614q-2 10 -2 14q0 19 14.5 31t32.5 12q34 0 44 -37q134 -485 151 -572q17 88 144 562q12 47 59 47t59 -46q126 -464 145 -556q17 86 149 570q9 33 42 33z" />
    <glyph glyph-name="wcircumflex" unicode="&#x175;" horiz-adv-x="818" 
d="M301 640l67 76q18 18 41 18q27 0 42 -18l67 -76q14 -17 14 -32q0 -12 -9 -19.5t-21 -7.5q-18 0 -30 15q-48 62 -62 84q-29 -47 -64 -86q-12 -13 -29 -13q-12 0 -21.5 7.5t-9.5 19.5q0 16 15 32zM233 -5q-19 0 -35 12t-22 31l-140 425q-3 9 -3 16q0 18 13.5 29.5
t32.5 11.5q32 0 41 -34q18 -70 64.5 -215.5t53.5 -172.5q17 67 119 378q14 45 55 45t55 -43q97 -296 116 -374q14 55 119 382q11 33 41 33q17 0 30 -11t13 -28q0 -8 -3 -15l-141 -428q-6 -18 -22 -30t-35 -12q-42 0 -57 44q-101 307 -117 375q-22 -78 -121 -375
q-14 -44 -57 -44z" />
    <glyph glyph-name="Ycircumflex" unicode="&#x176;" horiz-adv-x="588" 
d="M185 835l67 76q16 18 41 18q27 0 42 -17l66 -77q15 -18 15 -32q0 -12 -8.5 -19.5t-21.5 -7.5q-18 0 -30 15q-45 55 -62 84q-33 -50 -64 -85q-11 -14 -30 -14q-13 0 -21.5 7.5t-8.5 19.5q0 16 15 32zM294 -5q-19 0 -32 13.5t-13 31.5v260l-219 347q-7 11 -7 23
q0 18 14 30.5t32 12.5q25 0 39 -23q160 -258 186 -315q25 54 188 314q15 25 40 25q18 0 31 -11.5t13 -29.5q0 -13 -8 -25l-220 -348v-260q0 -18 -13 -31.5t-31 -13.5z" />
    <glyph glyph-name="ycircumflex" unicode="&#x177;" horiz-adv-x="545" 
d="M210 596q-12 -15 -32 -15q-12 0 -20.5 7t-8.5 19q0 17 15 33l67 76q15 18 41 18q28 0 42 -18l66 -76q15 -18 15 -32q0 -12 -8.5 -19.5t-21.5 -7.5q-18 0 -30 15q-45 55 -62 84q-31 -48 -63 -84zM433 491q12 29 41 29q18 0 31.5 -11.5t13.5 -29.5q0 -11 -4 -20l-277 -666
q-12 -28 -41 -28q-17 0 -30 11.5t-13 28.5q0 9 4 18l72 175l-200 460q-4 8 -4 18q0 18 14.5 30.5t33.5 12.5q29 0 40 -28q98 -240 162 -406q54 144 157 406z" />
    <glyph glyph-name="Ydieresis" unicode="&#x178;" horiz-adv-x="588" 
d="M203 794q-21 0 -35.5 14.5t-14.5 35.5t14.5 35.5t35.5 14.5t35.5 -14.5t14.5 -35.5t-14.5 -35.5t-35.5 -14.5zM383 794q-21 0 -35.5 14.5t-14.5 35.5t14.5 35.5t35.5 14.5t35.5 -14.5t14.5 -35.5t-14.5 -35.5t-35.5 -14.5zM294 -5q-19 0 -32 13.5t-13 31.5v260l-219 347
q-7 11 -7 23q0 18 14 30.5t32 12.5q25 0 39 -23q160 -258 186 -315q25 54 188 314q15 25 40 25q18 0 31 -11.5t13 -29.5q0 -13 -8 -25l-220 -348v-260q0 -18 -13 -31.5t-31 -13.5z" />
    <glyph glyph-name="Zacute" unicode="&#x179;" horiz-adv-x="591" 
d="M281 812l51 94q13 24 40 24q16 0 26.5 -8.5t10.5 -23.5t-11 -30l-58 -83q-14 -20 -34 -20q-12 0 -21 8t-9 20q0 10 5 19zM26 671q0 16 11.5 27.5t27.5 11.5h446q18 0 28.5 -8t10.5 -20q0 -10 -9 -24l-381 -579h365q16 0 27.5 -12t11.5 -28t-11.5 -27.5t-27.5 -11.5h-451
q-38 0 -38 28q0 10 9 24l384 579h-364q-16 0 -27.5 12t-11.5 28z" />
    <glyph glyph-name="zacute" unicode="&#x17a;" horiz-adv-x="468" 
d="M223 618l52 94q13 24 40 24q15 0 26 -9t11 -23q0 -13 -12 -31l-58 -83q-14 -20 -34 -20q-12 0 -21.5 8.5t-9.5 20.5q0 9 6 19zM35 478q0 15 11 26t26 11h315q39 0 39 -28q0 -11 -9 -24l-260 -389h242q15 0 26 -11t11 -26t-11 -26t-26 -11h-318q-18 0 -28.5 8t-10.5 21
q0 12 8 23l260 389h-238q-15 0 -26 11t-11 26z" />
    <glyph glyph-name="Zdotaccent" unicode="&#x17b;" horiz-adv-x="591" 
d="M297 787q-23 0 -39.5 16t-16.5 39t16.5 39.5t39.5 16.5t39 -16.5t16 -39.5q0 -22 -16 -38.5t-39 -16.5zM26 671q0 16 11.5 27.5t27.5 11.5h446q18 0 28.5 -8t10.5 -20q0 -10 -9 -24l-381 -579h365q16 0 27.5 -12t11.5 -28t-11.5 -27.5t-27.5 -11.5h-451q-38 0 -38 28
q0 10 9 24l384 579h-364q-16 0 -27.5 12t-11.5 28z" />
    <glyph glyph-name="zdotaccent" unicode="&#x17c;" horiz-adv-x="468" 
d="M239 592q-23 0 -39 16t-16 39t16 39.5t39 16.5t39.5 -16.5t16.5 -39.5t-16.5 -39t-39.5 -16zM35 478q0 15 11 26t26 11h315q39 0 39 -28q0 -11 -9 -24l-260 -389h242q15 0 26 -11t11 -26t-11 -26t-26 -11h-318q-18 0 -28.5 8t-10.5 21q0 12 8 23l260 389h-238
q-15 0 -26 11t-11 26z" />
    <glyph glyph-name="Zcaron" unicode="&#x17d;" horiz-adv-x="591" 
d="M405 867l-67 -76q-15 -18 -41 -18q-28 0 -42 18l-66 76q-15 18 -15 32q0 12 8.5 19.5t21.5 7.5q18 0 30 -15q45 -55 62 -84q34 50 63 84q12 15 32 15q12 0 20.5 -7t8.5 -19q0 -17 -15 -33zM26 671q0 16 11.5 27.5t27.5 11.5h446q18 0 28.5 -8t10.5 -20q0 -10 -9 -24
l-381 -579h365q16 0 27.5 -12t11.5 -28t-11.5 -27.5t-27.5 -11.5h-451q-38 0 -38 28q0 10 9 24l384 579h-364q-16 0 -27.5 12t-11.5 28z" />
    <glyph glyph-name="zcaron" unicode="&#x17e;" horiz-adv-x="468" 
d="M347 673l-67 -77q-15 -17 -41 -17t-41 17l-67 76q-15 16 -15 32q0 12 9 19.5t22 7.5q18 0 29 -14q53 -67 62 -84q37 54 64 84q14 15 31 15q12 0 20.5 -7.5t8.5 -19.5q0 -14 -15 -32zM35 478q0 15 11 26t26 11h315q39 0 39 -28q0 -11 -9 -24l-260 -389h242q15 0 26 -11
t11 -26t-11 -26t-26 -11h-318q-18 0 -28.5 8t-10.5 21q0 12 8 23l260 389h-238q-15 0 -26 11t-11 26z" />
    <glyph glyph-name="uni018F" unicode="&#x18f;" horiz-adv-x="784" 
d="M385 720q157 0 259 -103.5t102 -262.5q0 -158 -100.5 -261t-255.5 -103q-149 0 -249 96.5t-107 261.5q-1 45 44 45h577q-13 108 -87.5 176t-182.5 68q-68 0 -128 -34.5t-95 -89.5q-12 -19 -32 -19q-17 0 -30.5 14t-13.5 32q0 14 9 27q48 69 124 111t166 42zM390 73
q107 0 180.5 69t84.5 178h-530q14 -115 84.5 -181t180.5 -66z" />
    <glyph glyph-name="florin" unicode="&#x192;" horiz-adv-x="464" 
d="M273 497h107q14 0 24.5 -10.5t10.5 -24.5t-10.5 -24.5t-24.5 -10.5h-107v-275q0 -80 -42 -119t-109 -39q-21 0 -49 5q-31 6 -31 36q0 15 11.5 26t26.5 9q18 -2 26 -2q80 0 80 96v263h-90q-14 0 -24.5 10.5t-10.5 24.5t10.5 24.5t24.5 10.5h90v64q0 80 42 119t109 39
q22 0 50 -5q13 -2 21.5 -12.5t8.5 -23.5q0 -15 -12 -26t-25 -9q-18 2 -27 2q-80 0 -80 -96v-52z" />
    <glyph glyph-name="uni019D" unicode="&#x19d;" horiz-adv-x="728" 
d="M605 714q18 0 31 -13t13 -30v-622q0 -22 -16 -37.5t-38 -15.5q-28 0 -43 22l-391 551q5 -55 5 -530v-228q0 -21 -13 -32.5t-30 -11.5q-18 0 -31 11.5t-13 32.5v850q0 22 15.5 37.5t37.5 15.5q28 0 43 -22l390 -552q-4 86 -4 531q0 17 13 30t31 13z" />
    <glyph glyph-name="uni0218" unicode="&#x218;" horiz-adv-x="560" 
d="M283 -10q-86 0 -150 41t-91 122q-3 11 -3 19q0 21 14.5 35.5t32.5 14.5q30 0 39 -37q15 -60 58.5 -89.5t99.5 -29.5q66 0 105 31t39 82q0 39 -27.5 68.5t-68 46.5t-88.5 39t-88.5 44.5t-68 64t-27.5 95.5q0 82 61 132.5t154 50.5q82 0 139.5 -40t81.5 -110q3 -9 3 -18
q0 -20 -14 -33.5t-31 -13.5q-29 0 -40 34q-16 50 -51.5 77.5t-86.5 27.5q-53 0 -89 -28t-36 -76q0 -41 27.5 -71t68.5 -46.5t89.5 -38t89.5 -43t68.5 -62t27.5 -95.5q0 -89 -66.5 -141.5t-171.5 -52.5zM197 -215l28 122q9 40 45 40q15 0 26.5 -11t11.5 -30q0 -11 -4 -22
l-41 -121q-7 -21 -31 -21q-14 0 -25 9.5t-11 24.5q0 6 1 9z" />
    <glyph glyph-name="uni0219" unicode="&#x219;" horiz-adv-x="482" 
d="M248 -10q-144 0 -202 100q-8 13 -8 29q0 18 12 30.5t27 12.5q22 0 35 -24q42 -78 137 -78q51 0 81.5 20t30.5 55q0 33 -32 53.5t-78 33t-92 27.5t-78 47t-32 82q0 67 53 107t134 40q58 0 107 -24.5t73 -64.5q9 -15 9 -29q0 -16 -10 -28t-24 -12q-19 0 -35 22
q-48 68 -121 68q-44 0 -72.5 -20t-28.5 -52q0 -27 23.5 -45.5t58.5 -27.5t75.5 -22t75.5 -27.5t58.5 -46t23.5 -75.5q0 -72 -55 -111.5t-146 -39.5zM157 -215l28 122q9 40 45 40q17 0 28 -10.5t11 -29.5q0 -12 -4 -23l-42 -121q-7 -21 -31 -21q-14 0 -25 9.5t-11 24.5
q0 6 1 9z" />
    <glyph glyph-name="uni021A" unicode="&#x21a;" horiz-adv-x="537" 
d="M269 -4q-19 0 -32 13t-13 31v589h-163q-16 0 -28 12t-12 29q0 16 12 28t28 12h415q16 0 28 -12t12 -28q0 -17 -12 -29t-28 -12h-163v-589q0 -18 -13 -31t-31 -13zM186 -215l27 122q9 40 46 40q16 0 27 -10.5t11 -29.5q0 -12 -4 -23l-42 -121q-7 -21 -30 -21q-14 0 -25 10
t-11 24q0 6 1 9z" />
    <glyph glyph-name="uni021B" unicode="&#x21b;" horiz-adv-x="331" 
d="M191 515h79q14 0 24.5 -10.5t10.5 -24.5t-10.5 -24t-24.5 -10h-79v-407q0 -20 -13 -31.5t-30 -11.5q-18 0 -31 11.5t-13 31.5v407h-46q-14 0 -24.5 10t-10.5 24t10.5 24.5t24.5 10.5h46v109q0 20 13.5 31.5t30.5 11.5t30 -11.5t13 -31.5v-109zM136 -53q16 0 27.5 -11
t11.5 -30q0 -11 -4 -22l-42 -121q-7 -21 -30 -21q-14 0 -25 9t-11 25q0 6 1 9l27 122q9 40 45 40z" />
    <glyph glyph-name="uni0237" unicode="&#x237;" horiz-adv-x="215" 
d="M64 -193v669q0 20 13 31.5t31 11.5q17 0 30 -11.5t13 -31.5v-669q0 -21 -12.5 -32.5t-30.5 -11.5t-31 11.5t-13 32.5z" />
    <glyph glyph-name="uni0259" unicode="&#x259;" horiz-adv-x="595" 
d="M288 525q118 0 194 -74.5t76 -193.5q0 -114 -74.5 -191t-187.5 -77q-106 0 -178 65.5t-82 179.5q-2 22 9 34.5t34 12.5h392q-4 76 -56 123.5t-127 47.5q-98 0 -155 -84q-11 -17 -29 -17q-15 0 -26 11.5t-11 27.5q0 14 10 28q78 107 211 107zM296 61q72 0 121.5 45.5
t53.5 113.5h-351q5 -68 53.5 -113.5t122.5 -45.5z" />
    <glyph glyph-name="uni0272" unicode="&#x272;" horiz-adv-x="596" 
d="M333 526q89 0 148 -55.5t59 -167.5v-262q0 -21 -13 -33t-31 -12t-31 12t-13 33v250q0 84 -41 121.5t-103 37.5q-72 0 -113.5 -44.5t-42.5 -123.5v-471q0 -19 -13 -32t-31 -13t-31 13t-13 32v200q-13 5 -13 13q0 7 13 16v435q0 21 13 32.5t31 11.5t31 -11.5t13 -32.5v-56
q52 107 181 107z" />
    <glyph glyph-name="circumflex" unicode="&#x2c6;" horiz-adv-x="327" 
d="M55 640l67 76q16 18 41 18q26 0 41 -18l67 -76q15 -16 15 -32q0 -12 -8.5 -19.5t-20.5 -7.5q-19 0 -32 16q-39 47 -61 83q-29 -43 -64 -85q-14 -15 -30 -15q-12 0 -21 7.5t-9 19.5q0 17 15 33z" />
    <glyph glyph-name="caron" unicode="&#x2c7;" horiz-adv-x="327" 
d="M271 672l-67 -76q-14 -17 -41 -17t-42 17l-67 76q-15 18 -15 32q0 12 9 19.5t22 7.5q18 0 29 -14q43 -52 63 -84q26 41 64 85q11 14 29 14q13 0 22 -8t9 -20q0 -16 -15 -32z" />
    <glyph glyph-name="breve" unicode="&#x2d8;" horiz-adv-x="388" 
d="M195 574q-54 0 -92 25t-53 69q-3 8 -3 15q0 16 11.5 26.5t26.5 10.5q21 0 27 -22q16 -65 83 -65q66 0 82 64q6 23 28 23q14 0 25.5 -10t11.5 -26q0 -8 -2 -13q-16 -46 -53.5 -71.5t-91.5 -25.5z" />
    <glyph glyph-name="dotaccent" unicode="&#x2d9;" horiz-adv-x="214" 
d="M107 592q-23 0 -39 16t-16 39t16 39.5t39 16.5t39.5 -16.5t16.5 -39.5t-16.5 -39t-39.5 -16z" />
    <glyph glyph-name="ring" unicode="&#x2da;" horiz-adv-x="286" 
d="M143 575q-41 0 -69.5 28.5t-28.5 68.5t28.5 69t69.5 29q40 0 69 -29t29 -69t-29 -68.5t-69 -28.5zM143 623q20 0 34.5 14.5t14.5 34.5q0 21 -14.5 35t-34.5 14t-34.5 -14t-14.5 -35q0 -20 14.5 -34.5t34.5 -14.5z" />
    <glyph glyph-name="ogonek" unicode="&#x2db;" horiz-adv-x="262" 
d="M146 -234q-47 0 -75.5 26.5t-28.5 70.5q0 61 66 144l57 -12q-54 -69 -54 -113q0 -28 16 -41t40 -13q20 0 38 8q6 2 9 2q10 0 17 -8.5t7 -19.5q0 -16 -16 -25q-36 -19 -76 -19z" />
    <glyph glyph-name="tilde" unicode="&#x2dc;" horiz-adv-x="420" 
d="M277 594q-31 0 -70.5 22.5t-57.5 22.5q-22 0 -37 -26q-10 -17 -27 -17q-13 0 -23 10t-10 25q0 10 6 22q11 23 33 39t53 16q29 0 68 -23t57 -23q20 0 37 26q10 16 27 16q13 0 23.5 -10.5t10.5 -25.5q0 -8 -5 -20q-27 -54 -85 -54z" />
    <glyph glyph-name="hungarumlaut" unicode="&#x2dd;" horiz-adv-x="346" 
d="M42 618l52 94q13 24 40 24q15 0 26 -9t11 -23q0 -13 -12 -31l-58 -83q-14 -20 -34 -20q-12 0 -21.5 8.5t-9.5 20.5q0 9 6 19zM179 618l52 94q13 24 40 24q16 0 27 -9t11 -23q0 -13 -12 -31l-58 -83q-14 -20 -34 -20q-13 0 -22.5 8.5t-9.5 20.5q0 9 6 19z" />
    <glyph glyph-name="gravecomb" unicode="&#x300;" 
d="M-97 712l53 -94q5 -9 5 -19q0 -12 -9 -20t-22 -8q-22 0 -34 19l-58 83q-12 18 -12 31q1 14 11.5 22.5t25.5 8.5q27 0 40 -23z" />
    <glyph glyph-name="acutecomb" unicode="&#x301;" 
d="M-172 618l52 94q14 24 39 24q16 0 26.5 -8.5t10.5 -23.5q0 -14 -11 -31l-58 -83q-14 -20 -35 -20q-12 0 -21 8.5t-9 20.5q0 9 6 19z" />
    <glyph glyph-name="uni0302" unicode="&#x302;" 
d="M-272 640l67 76q16 18 41 18q26 0 41 -18l67 -76q14 -17 14 -32q1 -12 -7.5 -19.5t-20.5 -7.5q-19 0 -32 16q-39 47 -61 83q-29 -43 -64 -85q-13 -15 -31 -15q-12 0 -20.5 7.5t-8.5 19.5q0 17 15 33z" />
    <glyph glyph-name="tildecomb" unicode="&#x303;" 
d="M-143 594q-31 0 -70.5 22.5t-57.5 22.5q-22 0 -37 -26q-10 -17 -27 -17q-13 0 -22.5 10t-9.5 25q0 12 5 22q11 23 33 39t53 16q29 0 68 -23t57 -23q20 0 37 26q10 16 27 16q13 0 23.5 -10.5t10.5 -25.5q0 -11 -5 -20q-27 -54 -85 -54z" />
    <glyph glyph-name="uni0304" unicode="&#x304;" 
d="M-95 600h-251q-14 0 -24.5 10.5t-10.5 24.5t10.5 24.5t24.5 10.5h251q14 0 24.5 -10.5t10.5 -24.5t-10.5 -24.5t-24.5 -10.5z" />
    <glyph glyph-name="uni0306" unicode="&#x306;" 
d="M-193 574q-54 0 -92 25t-53 69q-3 8 -3 15q0 16 11.5 26.5t25.5 10.5q22 0 28 -22q16 -65 83 -65q66 0 82 64q6 23 28 23q14 0 25.5 -10t11.5 -26q0 -3 -2 -13q-16 -46 -53.5 -71.5t-91.5 -25.5z" />
    <glyph glyph-name="uni0307" unicode="&#x307;" 
d="M-107 592q-23 0 -39 16t-16 39t16 39.5t39 16.5t39.5 -16.5t16.5 -39.5t-16.5 -39t-39.5 -16z" />
    <glyph glyph-name="uni0308" unicode="&#x308;" 
d="M-286 599q-21 0 -35.5 14.5t-14.5 35.5t14.5 35.5t35.5 14.5q22 0 36.5 -14.5t14.5 -35.5t-15 -35.5t-36 -14.5zM-106 599q-21 0 -35.5 14.5t-14.5 35.5t14.5 35.5t35.5 14.5q22 0 36.5 -14.5t14.5 -35.5t-15 -35.5t-36 -14.5z" />
    <glyph glyph-name="uni030A" unicode="&#x30a;" 
d="M-143 575q-41 0 -69.5 28.5t-28.5 68.5t28.5 69t69.5 29q40 0 69 -29t29 -69t-29 -68.5t-69 -28.5zM-143 623q20 0 34.5 14.5t14.5 34.5q0 21 -14.5 35t-34.5 14t-34.5 -14t-14.5 -35q0 -20 14.5 -34.5t34.5 -14.5z" />
    <glyph glyph-name="uni030B" unicode="&#x30b;" 
d="M-304 618l52 94q14 24 40 24q15 0 26 -9t11 -23q0 -15 -12 -31l-58 -83q-13 -20 -34 -20q-12 0 -21 8.5t-9 20.5q0 7 5 19zM-167 618l52 94q15 24 41 24q15 0 26 -9t11 -23q0 -15 -12 -31l-58 -83q-13 -20 -34 -20q-13 0 -22 8t-9 21q0 7 5 19z" />
    <glyph glyph-name="uni030C" unicode="&#x30c;" 
d="M-56 672l-67 -76q-14 -17 -41 -17t-42 17l-67 76q-15 16 -15 32q0 12 9 19.5t22 7.5q18 0 29 -14q43 -52 63 -84q26 41 64 85q11 14 29 14q12 0 21 -8t9 -20q0 -15 -14 -32z" />
    <glyph glyph-name="uni0312" unicode="&#x312;" 
d="M-56 960l-27 -122q-9 -40 -46 -40q-15 0 -26.5 11t-11.5 30q0 5 4 23l42 120q7 22 30 22q14 0 25 -9.5t11 -25.5q0 -6 -1 -9z" />
    <glyph glyph-name="uni0326" unicode="&#x326;" 
d="M-161 -215l27 122q9 40 46 40q15 0 26.5 -11t11.5 -30q0 -11 -4 -22l-42 -121q-7 -21 -30 -21q-16 0 -27.5 11.5t-7.5 31.5z" />
    <glyph glyph-name="uni0327" unicode="&#x327;" 
d="M-172 -56l27 74l62 -3l-29 -79q33 -6 54.5 -28.5t21.5 -54.5q0 -39 -29 -63.5t-80 -24.5q-22 0 -53 10q-17 6 -17 25q0 23 21 23q5 0 8 -1q20 -5 35 -5q50 0 50 38q0 18 -14 30t-36 15q-24 4 -24 28q0 7 3 16z" />
    <glyph glyph-name="uni0328" unicode="&#x328;" 
d="M-116 -234q-47 0 -75.5 26.5t-28.5 70.5q0 61 66 144l57 -12q-54 -69 -54 -113q0 -54 56 -54q20 0 38 8q6 2 9 2q10 0 17 -8.5t7 -19.5q0 -16 -16 -25q-36 -19 -76 -19z" />
    <glyph glyph-name="uni0394" unicode="&#x394;" horiz-adv-x="619" 
d="M544 0h-471q-26 0 -40 17t-14 39q0 10 3 18l226 603q12 33 47 33h30q35 0 47 -33l224 -598q4 -9 4 -23q0 -23 -14 -39.5t-42 -16.5zM310 619l-201 -539h400z" />
    <glyph glyph-name="uni03A9" unicode="&#x3a9;" horiz-adv-x="820" 
d="M615 78h122q15 0 26.5 -12t11.5 -27q0 -16 -11 -27.5t-27 -11.5h-241q-16 0 -28 12t-12 28q0 29 28 38q89 30 143.5 101.5t54.5 171.5q0 120 -78.5 203t-193.5 83q-114 0 -193 -83t-79 -203q0 -96 52 -168.5t147 -104.5q11 -4 19 -14.5t8 -23.5q0 -16 -12 -28t-28 -12
h-240q-16 0 -27.5 11.5t-11.5 27.5t11.5 27.5t27.5 11.5h121q-70 39 -111.5 112.5t-41.5 168.5q0 151 102.5 256t255.5 105t256 -104.5t103 -256.5q0 -94 -41.5 -167.5t-112.5 -113.5z" />
    <glyph glyph-name="pi" unicode="&#x3c0;" horiz-adv-x="569" 
d="M522 79q12 1 19.5 -10t7.5 -25q0 -33 -37 -41q-17 -4 -40 -4q-54 0 -90 35.5t-36 118.5v281h-159v-395q0 -18 -12.5 -31t-30.5 -13t-31 13t-13 31v395h-55q-17 0 -29 12t-12 28q0 17 12 29t29 12h446q17 0 29 -12t12 -29q0 -16 -12 -28t-29 -12h-57v-269q0 -52 21.5 -70
t66.5 -16z" />
    <glyph glyph-name="uni0400" unicode="&#x400;" horiz-adv-x="545" 
d="M256 907l53 -94q5 -9 5 -19q0 -12 -9 -20t-22 -8q-20 0 -34 19l-58 83q-11 16 -11 31q0 14 10.5 22.5t25.5 8.5q27 0 40 -23zM470 0h-344q-47 0 -47 47v616q0 47 47 47h344q17 0 29 -12t12 -28q0 -17 -12 -29t-29 -12h-302v-228h237q16 0 27.5 -12t11.5 -28t-11.5 -27.5
t-27.5 -11.5h-237v-241h302q17 0 29 -12t12 -29q0 -16 -12 -28t-29 -12z" />
    <glyph glyph-name="uni0401" unicode="&#x401;" horiz-adv-x="545" 
d="M203 794q-22 0 -36.5 14.5t-14.5 35.5t14.5 35.5t36.5 14.5q21 0 35.5 -14.5t14.5 -35.5t-14.5 -35.5t-35.5 -14.5zM383 794q-22 0 -36.5 14.5t-14.5 35.5t14.5 35.5t36.5 14.5q21 0 35.5 -14.5t14.5 -35.5t-14.5 -35.5t-35.5 -14.5zM470 0h-344q-47 0 -47 47v616
q0 47 47 47h344q17 0 29 -12t12 -28q0 -17 -12 -29t-29 -12h-302v-228h237q16 0 27.5 -12t11.5 -28t-11.5 -27.5t-27.5 -11.5h-237v-241h302q17 0 29 -12t12 -29q0 -16 -12 -28t-29 -12z" />
    <glyph glyph-name="uni0402" unicode="&#x402;" horiz-adv-x="756" 
d="M479 -129q-17 -2 -32 9.5t-15 30.5q0 13 8 24.5t21 12.5q42 4 74.5 20.5t50.5 38t29.5 49t15 51t3.5 47.5q0 89 -50 144t-147 55q-63 0 -123 -24v-290q0 -17 -13 -30.5t-32 -13.5q-18 0 -31 13t-13 31v590h-164q-16 0 -28 12t-12 29q0 16 12 28t28 12h416q17 0 29 -12
t12 -28q0 -17 -12 -29t-29 -12h-163v-223q60 26 135 26q129 0 201.5 -75t72.5 -197q0 -30 -4.5 -60.5t-20.5 -70t-41 -70.5t-71.5 -56t-106.5 -32z" />
    <glyph glyph-name="uni0403" unicode="&#x403;" horiz-adv-x="490" 
d="M224 812l52 94q13 24 41 24q15 0 25 -8.5t10 -22.5q0 -15 -11 -31l-58 -83q-14 -20 -35 -20q-12 0 -21 8t-9 20q0 9 6 19zM79 40v625q0 45 45 45h315q17 0 28.5 -12t11.5 -28q0 -17 -12 -29t-28 -12h-271v-589q0 -18 -13 -31t-31 -13q-19 0 -32 13t-13 31z" />
    <glyph glyph-name="uni0404" unicode="&#x404;" horiz-adv-x="653" 
d="M559 108q9 5 19 5q14 0 23 -10.5t9 -25.5q0 -25 -23 -38q-78 -48 -182 -48q-68 0 -131 22.5t-115.5 65.5t-84.5 114.5t-32 161.5q0 91 32 162.5t85 113.5t116 64t131 22q104 0 181 -46q23 -14 23 -41q0 -14 -8 -24t-22 -10q-10 0 -23 6q-68 34 -146 34
q-106 0 -186.5 -62.5t-91.5 -181.5h351q15 0 26 -11t11 -26t-11 -26t-26 -11h-351q12 -118 92 -181.5t186 -63.5q78 0 148 35z" />
    <glyph glyph-name="uni0405" unicode="&#x405;" horiz-adv-x="560" 
d="M283 -10q-86 0 -150 41t-91 122q-3 11 -3 19q0 21 14.5 35.5t32.5 14.5q30 0 39 -37q15 -60 58.5 -89.5t99.5 -29.5q66 0 105 31t39 82q0 39 -27.5 68.5t-68 46.5t-88.5 39t-88.5 44.5t-68 64t-27.5 95.5q0 82 61 132.5t154 50.5q82 0 139.5 -40t81.5 -110q3 -9 3 -18
q0 -20 -14 -33.5t-31 -13.5q-29 0 -40 34q-16 50 -51.5 77.5t-86.5 27.5q-53 0 -89 -28t-36 -76q0 -41 27.5 -71t68.5 -46.5t89.5 -38t89.5 -43t68.5 -62t27.5 -95.5q0 -89 -66.5 -141.5t-171.5 -52.5z" />
    <glyph glyph-name="uni0406" unicode="&#x406;" horiz-adv-x="248" 
d="M79 40v630q0 21 13.5 32.5t31.5 11.5t31 -11.5t13 -32.5v-630q0 -20 -13 -32t-31 -12t-31.5 11.5t-13.5 32.5z" />
    <glyph glyph-name="uni0407" unicode="&#x407;" horiz-adv-x="248" 
d="M33 794q-21 0 -35.5 14.5t-14.5 35.5t14.5 35.5t35.5 14.5q22 0 36.5 -14.5t14.5 -35.5t-15 -35.5t-36 -14.5zM213 794q-21 0 -35.5 14.5t-14.5 35.5t14.5 35.5t35.5 14.5q22 0 36.5 -14.5t14.5 -35.5t-15 -35.5t-36 -14.5zM79 40v630q0 20 13.5 32t30.5 12
q18 0 31.5 -11.5t13.5 -32.5v-630q0 -20 -13.5 -32t-31.5 -12q-17 0 -30.5 12t-13.5 32z" />
    <glyph glyph-name="uni0408" unicode="&#x408;" horiz-adv-x="415" 
d="M161 -10q-62 0 -118 47q-18 15 -18 38q0 16 9.5 28.5t23.5 12.5q10 0 21 -7q6 -3 16.5 -10.5t17 -11t17.5 -7t23 -3.5q100 0 100 131v462q0 21 13.5 32.5t31.5 11.5t31.5 -11.5t13.5 -32.5v-467q0 -106 -52.5 -159.5t-129.5 -53.5z" />
    <glyph glyph-name="uni0409" unicode="&#x409;" horiz-adv-x="1046" 
d="M607 463h151q115 0 186 -62t71 -171q0 -110 -69.5 -170t-182.5 -60h-191q-55 0 -55 54v575h-313v-414q0 -92 -37 -147t-104 -70q-3 -1 -10 -1q-18 0 -31 12.5t-13 30.5q0 13 8 25t19 14q43 10 61.5 43.5t18.5 95.5v438q0 54 54 54h392q19 0 32 -11.5t13 -27.5v-208z
M607 81h156q73 0 118 39t45 112t-45 111t-118 38h-156v-300z" />
    <glyph glyph-name="uni040A" unicode="&#x40a;" horiz-adv-x="1067" 
d="M627 463h152q115 0 186 -62t71 -171q0 -110 -70 -170t-182 -60h-192q-54 0 -54 54v265h-370v-279q0 -20 -13 -31.5t-31 -11.5t-31.5 11.5t-13.5 31.5v630q0 21 13.5 32.5t31.5 11.5t31 -11.5t13 -32.5v-272h370v273q0 18 13 31t32 13q18 0 31 -13t13 -31v-208zM627 81
h157q73 0 117.5 39t44.5 112t-44.5 111t-117.5 38h-157v-300z" />
    <glyph glyph-name="uni040B" unicode="&#x40b;" horiz-adv-x="746" 
d="M258 -5q-18 0 -31 13t-13 31v590h-164q-16 0 -28 12t-12 29q0 16 12 28t28 12h416q17 0 29 -12t12 -28q0 -17 -12 -29t-29 -12h-163v-223q61 26 144 26q261 0 261 -266v-126q0 -18 -13 -31.5t-32 -13.5q-18 0 -31 13.5t-13 31.5v121q0 192 -180 192q-74 0 -136 -25v-289
q0 -17 -13.5 -30.5t-31.5 -13.5z" />
    <glyph glyph-name="uni040C" unicode="&#x40c;" horiz-adv-x="600" 
d="M406 868l-58 -83q-14 -20 -35 -20q-12 0 -21 8t-9 20q0 9 6 19l52 94q13 24 41 24q15 0 25 -8.5t10 -22.5q0 -15 -11 -31zM537 642l-281 -275l281 -300q13 -13 13 -30t-13 -29t-32 -12q-21 0 -39 21l-302 334q4 -85 4 -311q0 -20 -13 -32t-31 -12t-31.5 11.5t-13.5 32.5
v630q0 21 13.5 32.5t31.5 11.5t31 -11.5t13 -32.5q0 -209 -4 -285l306 308q21 21 41 21q17 0 30 -11.5t13 -26.5q0 -18 -17 -34z" />
    <glyph glyph-name="uni040D" unicode="&#x40d;" horiz-adv-x="727" 
d="M327 907l53 -94q5 -9 5 -19q0 -12 -9 -20t-22 -8q-20 0 -34 19l-58 83q-11 16 -11 31q0 14 10.5 22.5t25.5 8.5q27 0 40 -23zM133 -5q-22 0 -38 16t-16 38v622q0 18 13 31t32 13q18 0 31 -13.5t13 -31.5q0 -457 -7 -555q70 109 387 576q17 24 46 24q22 0 38 -16t16 -38
v-622q0 -17 -13 -30.5t-32 -13.5t-32 13.5t-13 31.5q0 453 7 552q-34 -53 -386 -572q-17 -25 -46 -25z" />
    <glyph glyph-name="uni040F" unicode="&#x40f;" horiz-adv-x="705" 
d="M581 715q19 0 32 -13.5t13 -31.5v-616q0 -54 -55 -54h-180v-129q0 -16 -12 -28t-28 -12q-17 0 -28.5 11.5t-11.5 28.5v129h-178q-54 0 -54 54v616q0 18 13 31.5t32 13.5q18 0 31 -13t13 -31v-590h368v589q0 18 13 31.5t32 13.5z" />
    <glyph glyph-name="uni0410" unicode="&#x410;" horiz-adv-x="647" 
d="M389 668l222 -612q3 -9 3 -16q0 -20 -15.5 -32t-33.5 -12q-30 0 -41 32q-44 127 -55 158h-294q-8 -25 -27 -78t-28 -81q-12 -32 -41 -32q-17 0 -31 12t-14 30q0 8 3 17l221 614q7 20 22 33t31 13h23q38 0 55 -46zM200 260h244q-113 330 -123 389q-12 -72 -121 -389z" />
    <glyph glyph-name="uni0411" unicode="&#x411;" horiz-adv-x="603" 
d="M171 433h154q118 0 182.5 -56t64.5 -161q0 -104 -68.5 -160t-178.5 -56h-201q-45 0 -45 45v620q0 45 45 45h355q16 0 28 -12t12 -28q0 -17 -12 -29t-28 -12h-311v-196h3zM168 81h157q71 0 114.5 35t43.5 102t-43.5 101.5t-114.5 34.5h-154h-3v-273z" />
    <glyph glyph-name="uni0412" unicode="&#x412;" horiz-adv-x="631" 
d="M341 0h-215q-47 0 -47 47v616q0 47 47 47h200q110 0 167.5 -46.5t57.5 -128.5q0 -61 -27.5 -100.5t-77.5 -52.5q67 -13 106 -62.5t39 -119.5q0 -93 -64.5 -146.5t-185.5 -53.5zM168 633v-228h158q135 0 135 114q0 54 -34.5 84t-100.5 30h-158zM168 337v-260h173
q77 0 118.5 32.5t41.5 91.5q0 62 -41 99t-114 37h-178z" />
    <glyph glyph-name="uni0413" unicode="&#x413;" horiz-adv-x="490" 
d="M79 40v625q0 45 45 45h315q17 0 28.5 -12t11.5 -28q0 -17 -12 -29t-28 -12h-271v-589q0 -18 -13 -31t-31 -13q-19 0 -32 13t-13 31z" />
    <glyph glyph-name="uni0414" unicode="&#x414;" horiz-adv-x="728" 
d="M48 -174q-16 0 -28 12t-12 28v183q0 16 10 25.5t24 9.5h24q44 0 54 142l33 440q3 44 46 44h368q45 0 45 -45v-584h34q42 0 42 -45v-170q0 -16 -12 -28t-28 -12t-28 12t-12 28v134h-520v-134q0 -16 -12 -28t-28 -12zM171 81h352v548h-284l-29 -397q-4 -45 -12 -81t-15 -52
t-12 -18z" />
    <glyph glyph-name="uni0415" unicode="&#x415;" horiz-adv-x="545" 
d="M470 0h-344q-47 0 -47 47v616q0 47 47 47h344q17 0 29 -12t12 -28q0 -17 -12 -29t-29 -12h-302v-228h237q16 0 27.5 -12t11.5 -28t-11.5 -27.5t-27.5 -11.5h-237v-241h302q17 0 29 -12t12 -29q0 -16 -12 -28t-29 -12z" />
    <glyph glyph-name="uni0416" unicode="&#x416;" horiz-adv-x="837" 
d="M374 39v188q0 70 3 113l-244 -323q-17 -21 -39 -21q-17 0 -31.5 11.5t-14.5 27.5q0 13 9 25l240 307l-241 284q-10 11 -10 24q0 17 14 29t31 12q18 0 35 -20l251 -301q-3 33 -3 108v168q0 18 13 31t32 13q18 0 31 -13t13 -31v-168q0 -76 -3 -108l251 301q16 19 35 19
q18 0 31.5 -11.5t13.5 -26.5q0 -13 -10 -26l-240 -284l240 -307q10 -13 10 -25q0 -16 -14.5 -27.5t-31.5 -11.5q-24 0 -40 22l-245 322q3 -38 3 -113v-188q0 -18 -13 -31t-31 -13q-19 0 -32 13t-13 31z" />
    <glyph glyph-name="uni0417" unicode="&#x417;" horiz-adv-x="619" 
d="M447 373q59 -18 97 -61.5t38 -108.5q0 -89 -72.5 -151t-192.5 -62q-109 0 -186.5 52.5t-91.5 131.5q-1 3 -1 10q0 22 15.5 36.5t33.5 14.5q28 0 32 -30q10 -61 63.5 -97.5t129.5 -36.5q84 0 132.5 38t48.5 96q0 63 -54 92.5t-134 29.5h-37q-17 0 -27 11t-10 26
q0 16 10.5 28t29.5 12h36q71 0 113 34.5t42 84.5q0 52 -44 84t-114 32q-69 0 -114.5 -35t-58.5 -94q-7 -30 -33 -30q-17 0 -31.5 15t-14.5 37q0 8 1 13q16 73 84 124t170 51q109 0 177 -53.5t68 -137.5q0 -102 -105 -156z" />
    <glyph glyph-name="uni0418" unicode="&#x418;" horiz-adv-x="727" 
d="M133 -5q-22 0 -38 16t-16 38v622q0 18 13 31t32 13q18 0 31 -13.5t13 -31.5q0 -457 -7 -555q70 109 387 576q17 24 46 24q22 0 38 -16t16 -38v-622q0 -17 -13 -30.5t-32 -13.5t-32 13.5t-13 31.5q0 453 7 552q-34 -53 -386 -572q-17 -25 -46 -25z" />
    <glyph glyph-name="uni0419" unicode="&#x419;" horiz-adv-x="727" 
d="M364 769q-54 0 -92 25.5t-53 69.5q-2 5 -2 14q0 16 11.5 27t25.5 11q22 0 28 -26q15 -62 82 -62q66 0 82 64q6 23 28 23q14 0 25.5 -10.5t11.5 -26.5q0 -8 -2 -13q-17 -48 -55.5 -72t-89.5 -24zM133 -5q-22 0 -38 16t-16 38v622q0 18 13 31t32 13q18 0 31 -13.5t13 -31.5
q0 -457 -7 -555q70 109 387 576q17 24 46 24q22 0 38 -16t16 -38v-622q0 -17 -13 -30.5t-32 -13.5t-32 13.5t-13 31.5q0 453 7 552q-34 -53 -386 -572q-17 -25 -46 -25z" />
    <glyph glyph-name="uni041A" unicode="&#x41a;" horiz-adv-x="600" 
d="M537 642l-281 -275l281 -300q13 -13 13 -30t-13 -29t-32 -12q-21 0 -39 21l-302 334q4 -85 4 -311q0 -20 -13 -32t-31 -12t-31.5 11.5t-13.5 32.5v630q0 21 13.5 32.5t31.5 11.5t31 -11.5t13 -32.5q0 -209 -4 -285l306 308q21 21 41 21q17 0 30 -11.5t13 -26.5
q0 -18 -17 -34z" />
    <glyph glyph-name="uni041B" unicode="&#x41b;" horiz-adv-x="686" 
d="M205 710h347q55 0 55 -54v-616q0 -18 -13 -31.5t-32 -13.5q-18 0 -31.5 13.5t-13.5 30.5v590h-280l-33 -414q-15 -190 -141 -217q-3 -1 -10 -1q-18 0 -31 12.5t-13 30.5q0 13 8 25t19 14q40 9 57.5 42t22.5 97l35 438q5 54 54 54z" />
    <glyph glyph-name="uni041C" unicode="&#x41c;" horiz-adv-x="860" 
d="M727 714q22 0 38 -16t16 -38v-620q0 -18 -13 -31t-32 -13q-18 0 -31.5 13t-13.5 31q0 457 6 527l-237 -364q-12 -20 -30 -20q-17 0 -31 20l-236 363q5 -59 5 -526q0 -18 -13 -31t-31 -13q-19 0 -32 13t-13 31v620q0 22 16 38t38 16q28 0 43 -22l254 -389l254 389
q14 22 43 22z" />
    <glyph glyph-name="uni041D" unicode="&#x41d;" horiz-adv-x="707" 
d="M79 40v630q0 21 13.5 32.5t31.5 11.5t31 -11.5t13 -32.5v-272h370v272q0 21 13.5 32.5t31.5 11.5t31.5 -11.5t13.5 -32.5v-630q0 -20 -13.5 -31.5t-31.5 -11.5t-31.5 11.5t-13.5 31.5v279h-370v-279q0 -20 -13 -31.5t-31 -11.5t-31.5 11.5t-13.5 31.5z" />
    <glyph glyph-name="uni041E" unicode="&#x41e;" horiz-adv-x="801" 
d="M401 -10q-154 0 -256.5 105t-102.5 260t102.5 260t256.5 105q153 0 255.5 -105t102.5 -260t-102.5 -260t-255.5 -105zM401 73q114 0 191.5 82t77.5 200t-77.5 200t-191.5 82q-115 0 -192.5 -82t-77.5 -200t77.5 -200t192.5 -82z" />
    <glyph glyph-name="uni041F" unicode="&#x41f;" horiz-adv-x="705" 
d="M124 -5q-19 0 -32 13.5t-13 31.5v616q0 54 54 54h438q55 0 55 -54v-616q0 -18 -13 -31.5t-32 -13.5t-32 13.5t-13 30.5v590h-368v-589q0 -18 -13 -31.5t-31 -13.5z" />
    <glyph glyph-name="uni0420" unicode="&#x420;" horiz-adv-x="612" 
d="M79 40v626q0 44 44 44h202q112 0 182 -60t70 -170q0 -109 -71 -171t-186 -62h-152v-207q0 -18 -13 -31t-31 -13q-19 0 -32 13t-13 31zM168 629v-300h157q73 0 117.5 38t44.5 111t-44.5 112t-117.5 39h-157z" />
    <glyph glyph-name="uni0421" unicode="&#x421;" horiz-adv-x="653" 
d="M587 39q-78 -48 -182 -48q-68 0 -131 22.5t-115.5 65.5t-84.5 114.5t-32 161.5q0 91 32 162.5t85 113.5t116 64t131 22q104 0 181 -46q23 -14 23 -41q0 -14 -8 -24t-22 -10q-10 0 -23 6q-68 34 -146 34q-54 0 -103 -17t-89 -50t-64 -88.5t-24 -125.5q0 -135 82 -208.5
t198 -73.5q78 0 148 35q9 5 19 5q14 0 23 -10.5t9 -25.5q0 -25 -23 -38z" />
    <glyph glyph-name="uni0422" unicode="&#x422;" horiz-adv-x="537" 
d="M269 -4q-19 0 -32 13t-13 31v589h-163q-16 0 -28 12t-12 29q0 16 12 28t28 12h415q16 0 28 -12t12 -28q0 -17 -12 -29t-28 -12h-163v-589q0 -18 -13 -31t-31 -13z" />
    <glyph glyph-name="uni0423" unicode="&#x423;" horiz-adv-x="610" 
d="M572 655l-311 -635q-13 -26 -37 -26q-17 0 -30 11t-13 28q0 7 5 19l79 159l-225 441q-5 12 -5 19q0 18 15 31t33 13q26 0 39 -27q43 -91 104 -218t84 -177q14 31 46.5 100t66.5 143t69 152q13 29 41 29q17 0 30.5 -12t13.5 -29q0 -12 -5 -21z" />
    <glyph glyph-name="uni0424" unicode="&#x424;" horiz-adv-x="751" 
d="M420 680v-45q141 0 226 -76t85 -196t-85 -196t-226 -76v-61q0 -21 -13 -32.5t-31 -11.5t-31.5 11.5t-13.5 32.5v61q-140 0 -225 77t-85 195q0 119 84.5 195.5t225.5 76.5v45q0 21 13.5 32.5t31.5 11.5t31 -11.5t13 -32.5zM109 363q0 -84 60 -138.5t162 -54.5v386
q-103 0 -162.5 -54t-59.5 -139zM420 556v-386q103 0 163 53.5t60 139.5q0 85 -60 139t-163 54z" />
    <glyph glyph-name="uni0425" unicode="&#x425;" horiz-adv-x="659" 
d="M605 641l-224 -281l224 -287q13 -16 13 -33q0 -18 -13.5 -31t-31.5 -13q-24 0 -41 22q-114 149 -153.5 204t-47.5 77q-8 -24 -46 -76t-157 -205q-19 -25 -44 -25q-18 0 -30 11t-12 29q0 21 17 42l219 281l-221 284q-13 16 -13 32q0 18 14 30.5t33 12.5q23 0 41 -23
q116 -151 153.5 -203t45.5 -73q11 32 202 275q20 24 44 24q18 0 30 -11t12 -28q0 -18 -14 -35z" />
    <glyph glyph-name="uni0426" unicode="&#x426;" horiz-adv-x="743" 
d="M626 81h35q41 0 41 -42v-173q0 -16 -11.5 -28t-27.5 -12q-17 0 -28.5 12t-11.5 28v134h-490q-54 0 -54 54v616q0 18 13 31.5t32 13.5q18 0 31 -13t13 -31v-590h368v589q0 18 13 31.5t32 13.5t32 -13.5t13 -31.5v-589z" />
    <glyph glyph-name="uni0427" unicode="&#x427;" horiz-adv-x="631" 
d="M317 278q-139 0 -209.5 68t-70.5 198v127q0 18 13 31t32 13q18 0 31 -13t13 -31v-122q0 -98 48 -145t147 -47q77 0 141 25v289q0 18 13 31t32 13q18 0 31 -13t13 -31v-631q0 -18 -13 -31.5t-31 -13.5q-19 0 -32 13.5t-13 31.5v263q-62 -25 -145 -25z" />
    <glyph glyph-name="uni0428" unicode="&#x428;" horiz-adv-x="1013" 
d="M551 81h293v590q0 18 13 31t32 13q18 0 31 -13t13 -31v-617q0 -54 -54 -54h-746q-54 0 -54 54v617q0 18 13 31t32 13q18 0 31 -13t13 -31v-590h294v590q0 18 13 31t31 13t31.5 -13.5t13.5 -30.5v-590z" />
    <glyph glyph-name="uni0429" unicode="&#x429;" horiz-adv-x="1052" 
d="M933 81h37q42 0 42 -42v-173q0 -16 -12 -28t-28 -12t-28 12t-12 28v134h-799q-54 0 -54 54v617q0 18 13 31t32 13q18 0 31 -13t13 -31v-590h294v590q0 18 13 31t31 13t31.5 -13.5t13.5 -30.5v-590h293v590q0 18 13 31t32 13q18 0 31 -13t13 -31v-590z" />
    <glyph glyph-name="uni042A" unicode="&#x42a;" horiz-adv-x="667" 
d="M228 463h152q114 0 185 -62t71 -171q0 -110 -69.5 -170t-182.5 -60h-191q-55 0 -55 54v577h-109q-16 0 -27.5 12t-11.5 28t11.5 27.5t27.5 11.5h154q19 0 32 -11.5t13 -27.5v-208zM228 81h156q73 0 118 39t45 112t-45 111t-118 38h-156v-300z" />
    <glyph glyph-name="uni042B" unicode="&#x42b;" horiz-adv-x="855" 
d="M325 0h-192q-54 0 -54 54v617q0 18 13 31t32 13q18 0 31 -13t13 -31v-208h152q115 0 186 -62t71 -171q0 -110 -70 -170t-182 -60zM687 40v630q0 21 13.5 32.5t31.5 11.5t31 -11.5t13 -32.5v-630q0 -20 -13 -32t-31 -12t-31.5 11.5t-13.5 32.5zM168 381v-300h157
q73 0 117.5 39t44.5 112t-44.5 111t-117.5 38h-157z" />
    <glyph glyph-name="uni042C" unicode="&#x42c;" horiz-adv-x="608" 
d="M325 0h-192q-54 0 -54 54v617q0 18 13 31t32 13q18 0 31 -13t13 -31v-208h152q115 0 186 -62t71 -171q0 -110 -70 -170t-182 -60zM168 381v-300h157q73 0 117.5 39t44.5 112t-44.5 111t-117.5 38h-157z" />
    <glyph glyph-name="uni042D" unicode="&#x42d;" horiz-adv-x="653" 
d="M66 671q78 48 182 48q68 0 131 -22.5t115.5 -65.5t84.5 -114.5t32 -161.5q0 -91 -32 -163t-85.5 -114t-116.5 -63.5t-130 -21.5q-103 0 -179 45q-25 14 -25 41q0 15 8.5 25.5t22.5 10.5q9 0 21 -6q68 -35 149 -35q106 0 185.5 62.5t90.5 181.5h-351q-15 0 -26 11t-11 26
t11 26t26 11h351q-12 118 -92 181.5t-186 63.5q-78 0 -148 -35q-9 -5 -19 -5q-14 0 -22.5 10.5t-8.5 25.5q0 25 22 38z" />
    <glyph glyph-name="uni042E" unicode="&#x42e;" horiz-adv-x="1025" 
d="M629 720q149 0 249 -105t100 -260t-100 -260t-249 -105q-140 0 -237.5 93.5t-109.5 237.5h-114v-281q0 -18 -13 -31.5t-31 -13.5q-19 0 -32 13.5t-13 31.5v631q0 18 13 31t32 13q18 0 31 -13t13 -31v-276h115q14 142 111 233.5t235 91.5zM629 73q111 0 185.5 81t74.5 201
t-74.5 201t-185.5 81q-110 0 -184.5 -80.5t-74.5 -201.5t74.5 -201.5t184.5 -80.5z" />
    <glyph glyph-name="uni042F" unicode="&#x42f;" horiz-adv-x="605" 
d="M276 710h206q44 0 44 -44v-626q0 -18 -13.5 -31t-31.5 -13t-31.5 13t-13.5 31q0 153 5 273l-302 -302q-14 -14 -32 -14q-17 0 -31 11.5t-14 27.5q0 14 12 27q150 156 246 235h-51q-95 0 -162 53.5t-67 152.5q0 94 63 150t173 56zM129 497q0 -60 41 -97t116 -37h150v266
h-150q-75 0 -116 -36t-41 -96z" />
    <glyph glyph-name="uni0430" unicode="&#x430;" horiz-adv-x="656" 
d="M548 517q18 0 31 -11.5t13 -31.5v-436q0 -20 -13 -31.5t-31 -11.5t-31.5 11.5t-13.5 31.5v83q-23 -59 -78 -95t-131 -36q-115 0 -186.5 77t-71.5 192q0 116 72.5 191.5t189.5 75.5q67 0 121.5 -32.5t83.5 -89.5v70q0 20 13.5 31.5t31.5 11.5zM314 68q82 0 135.5 54.5
t53.5 135.5q0 80 -53.5 134.5t-135.5 54.5q-83 0 -136.5 -53.5t-53.5 -135.5t54 -136t136 -54z" />
    <glyph glyph-name="uni0431" unicode="&#x431;" horiz-adv-x="607" 
d="M312 -10q-113 0 -191 73.5t-78 208.5v94q0 144 64.5 229.5t186.5 110.5l184 38q16 3 30 -7.5t14 -28.5q0 -13 -9 -23.5t-22 -13.5l-177 -37q-86 -18 -134.5 -72t-51.5 -172q27 58 80.5 87.5t115.5 29.5q111 0 183 -71.5t72 -184.5q0 -114 -75.5 -187.5t-191.5 -73.5z
M312 69q79 0 130 51.5t51 131.5q0 79 -51 130t-130 51t-130.5 -51t-51.5 -130q0 -80 51 -131.5t131 -51.5z" />
    <glyph glyph-name="uni0432" unicode="&#x432;" horiz-adv-x="526" 
d="M298 0h-189q-45 0 -45 45v425q0 44 45 44h177q87 0 133.5 -33.5t46.5 -93.5q0 -89 -82 -110q54 -8 85 -43t31 -84q0 -67 -52.5 -108.5t-149.5 -41.5zM142 447v-150h147q99 0 99 75q0 36 -26 55.5t-73 19.5h-147zM142 238v-171h163q56 0 86 22.5t30 62.5t-29.5 63
t-82.5 23h-167z" />
    <glyph glyph-name="uni0433" unicode="&#x433;" horiz-adv-x="410" 
d="M64 39v432q0 44 45 44h262q16 0 27.5 -11t11.5 -27t-11.5 -28t-27.5 -12h-221v-398q0 -17 -12.5 -30t-30.5 -13q-17 0 -30 13t-13 30z" />
    <glyph glyph-name="uni0434" unicode="&#x434;" horiz-adv-x="601" 
d="M44 -169q-16 0 -28 11.5t-12 28.5v174q0 36 44 36h20q8 0 16 8.5t14.5 31.5t8.5 57l17 298q3 39 40 39h320q39 0 39 -39v-398h24q40 0 40 -37v-170q0 -16 -12 -28t-28 -12q-17 0 -28.5 11.5t-11.5 28.5v129h-423v-129q0 -17 -12 -28.5t-28 -11.5zM162 78h275v359h-230
l-14 -254q-5 -85 -31 -105z" />
    <glyph glyph-name="uni0435" unicode="&#x435;" horiz-adv-x="594" 
d="M558 280q2 -22 -10 -34t-33 -12h-392q4 -76 55.5 -123.5t127.5 -47.5q98 0 154 83q12 18 30 18q14 0 25.5 -12t11.5 -28q0 -13 -9 -25q-79 -109 -213 -109q-117 0 -193 74t-76 194q0 114 74.5 191t187.5 77q108 0 179 -67t81 -179zM298 454q-72 0 -121.5 -45.5
t-53.5 -113.5h350q-5 68 -53 113.5t-122 45.5z" />
    <glyph glyph-name="uni0436" unicode="&#x436;" horiz-adv-x="744" 
d="M372 -4q-19 0 -31.5 13t-12.5 30q0 90 4 210l-218 -239q-13 -14 -31 -14t-32 11t-14 26q0 13 11 24l207 220l-203 181q-12 10 -12 24q0 15 13.5 26.5t30.5 11.5q16 0 29 -12l218 -204q-2 90 -2 172q0 17 12 30t31 13t31 -13t12 -31q0 -76 -2 -170l218 203q13 12 29 12
q17 0 31 -11.5t14 -26.5q0 -12 -13 -24l-204 -181l206 -220q12 -12 12 -27q0 -14 -12.5 -24t-29.5 -10q-19 0 -34 15l-217 237q3 -189 3 -209q0 -17 -12.5 -30t-31.5 -13z" />
    <glyph glyph-name="uni0437" unicode="&#x437;" horiz-adv-x="518" 
d="M390 272q100 -31 100 -120q0 -70 -60 -116t-169 -46q-160 0 -220 115q-8 16 -8 29q0 19 12 31t28 12q25 0 35 -28q16 -44 56.5 -68t98.5 -24q64 0 102 26.5t38 66.5q0 42 -41 61.5t-102 19.5h-27q-16 0 -24.5 9t-8.5 22t9 23.5t24 10.5h27q50 0 84.5 20t34.5 60
q0 37 -35 59.5t-92 22.5q-103 0 -135 -88q-10 -28 -32 -28q-15 0 -26.5 13.5t-11.5 31.5q0 12 8 28q64 111 202 111q96 0 152 -40.5t56 -105.5q0 -75 -75 -108z" />
    <glyph glyph-name="uni0438" unicode="&#x438;" horiz-adv-x="616" 
d="M509 -5q-18 0 -31 13t-13 31v349l-307 -372q-18 -21 -44 -21q-21 0 -35.5 14t-14.5 38v430q0 17 13 30t30 13q18 0 30.5 -13t12.5 -30v-353l309 376q18 21 43 21q21 0 35.5 -14t14.5 -38v-430q0 -18 -13 -31t-30 -13z" />
    <glyph glyph-name="uni0439" unicode="&#x439;" horiz-adv-x="616" 
d="M309 569q-111 0 -145 96q-2 5 -2 13q0 16 12 26.5t26 10.5q21 0 27 -24q15 -63 82 -63t82 63q6 24 29 24q14 0 25 -10.5t11 -26.5q0 -9 -2 -14q-15 -44 -53 -69.5t-92 -25.5zM509 -5q-18 0 -31 13t-13 31v349l-307 -372q-18 -21 -44 -21q-21 0 -35.5 14t-14.5 38v430
q0 17 13 30t30 13q18 0 30.5 -13t12.5 -30v-353l309 376q18 21 43 21q21 0 35.5 -14t14.5 -38v-430q0 -18 -13 -31t-30 -13z" />
    <glyph glyph-name="uni043A" unicode="&#x43a;" horiz-adv-x="513" 
d="M238 276l236 -216q11 -10 11 -24q0 -15 -13 -27t-30 -12q-18 0 -30 12l-263 243q3 -96 3 -212q0 -17 -12 -30.5t-31 -13.5q-18 0 -31 13t-13 30l-1 438q0 18 13 31t31 13t30.5 -13t12.5 -31v-76q0 -66 -2 -100l260 204q19 15 39 15q16 0 27.5 -9t11.5 -22q0 -16 -18 -30z
" />
    <glyph glyph-name="uni043B" unicode="&#x43b;" horiz-adv-x="581" 
d="M73 -2q-6 -2 -16 -2q-19 0 -30 12t-11 29q0 25 25 35q32 13 48 38.5t23 78.5l35 287q5 39 39 39h292q39 0 39 -39v-436q0 -18 -12.5 -31t-30.5 -13t-30.5 13t-12.5 31v397h-204l-30 -250q-19 -158 -124 -189z" />
    <glyph glyph-name="uni043C" unicode="&#x43c;" horiz-adv-x="661" 
d="M107 -5q-17 0 -30 13t-13 31v427q0 22 16 38t38 16q25 0 38 -19l174 -249l174 249q13 19 39 19q22 0 38 -16t16 -38v-427q0 -18 -13 -31t-30 -13q-18 0 -31 13.5t-13 30.5q0 233 10 372q-84 -138 -156 -235q-15 -20 -33 -20q-20 0 -36 22q-71 95 -154 233q9 -141 9 -372
q0 -18 -12.5 -31t-30.5 -13z" />
    <glyph glyph-name="uni043D" unicode="&#x43d;" horiz-adv-x="600" 
d="M107 -5q-17 0 -30 13t-13 31v438q0 17 13 30t30 13q18 0 30.5 -13t12.5 -30v-181h299v181q0 17 13 30t31 13q17 0 30 -13t13 -30v-438q0 -18 -13 -31t-30 -13q-18 0 -31 13t-13 31v181h-299v-181q0 -18 -12.5 -31t-30.5 -13z" />
    <glyph glyph-name="uni043E" unicode="&#x43e;" horiz-adv-x="621" 
d="M310 -10q-117 0 -195.5 76.5t-78.5 191.5t78.5 191.5t195.5 76.5q118 0 196 -76.5t78 -191.5t-78 -191.5t-196 -76.5zM310 69q80 0 134.5 54.5t54.5 135.5q0 80 -54 134t-135 54q-80 0 -134.5 -54t-54.5 -134q0 -81 54.5 -135.5t134.5 -54.5z" />
    <glyph glyph-name="uni043F" unicode="&#x43f;" horiz-adv-x="597" 
d="M112 515h373q23 0 35.5 -12.5t12.5 -35.5v-428q0 -18 -13 -31t-31 -13q-17 0 -30 13t-13 31v398h-296v-398q0 -18 -12.5 -31t-30.5 -13q-17 0 -30 13t-13 31v428q0 23 13 35.5t35 12.5z" />
    <glyph glyph-name="uni0440" unicode="&#x440;" horiz-adv-x="655" 
d="M361 525q115 0 186.5 -77t71.5 -192q0 -116 -72.5 -191t-189.5 -75q-67 0 -121.5 32t-84.5 90v-305q0 -21 -12.5 -32.5t-30.5 -11.5t-31 11.5t-13 32.5v669q0 20 13 31.5t31 11.5q17 0 30 -11.5t13 -31.5v-81q24 60 79.5 95t130.5 35zM340 68q83 0 137 53.5t54 135.5
q0 83 -54 136.5t-137 53.5q-81 0 -134.5 -54.5t-53.5 -135.5q0 -80 53 -134.5t135 -54.5z" />
    <glyph glyph-name="uni0441" unicode="&#x441;" horiz-adv-x="526" 
d="M461 36q-69 -45 -156 -45q-108 0 -187.5 70.5t-79.5 196.5t79.5 196t187.5 70q87 0 156 -46q23 -16 23 -40q0 -14 -8.5 -24.5t-21.5 -10.5q-9 0 -18 6q-54 36 -120 36q-78 0 -134.5 -50t-56.5 -137q0 -85 56 -136.5t134 -51.5q64 0 119 35q10 6 18 6q13 0 21.5 -11
t8.5 -26q0 -24 -21 -38z" />
    <glyph glyph-name="uni0442" unicode="&#x442;" horiz-adv-x="424" 
d="M38 515h348q16 0 27.5 -11.5t11.5 -27.5t-11.5 -27.5t-27.5 -11.5h-130v-398q0 -17 -13 -30.5t-31 -13.5t-30.5 13t-12.5 31v398h-131q-15 0 -27 11.5t-12 27.5t12 27.5t27 11.5z" />
    <glyph glyph-name="uni0443" unicode="&#x443;" horiz-adv-x="545" 
d="M433 491q12 29 41 29q18 0 31.5 -11.5t13.5 -29.5q0 -11 -4 -20l-277 -666q-12 -28 -41 -28q-17 0 -30 11.5t-13 28.5q0 9 4 18l72 175l-200 460q-4 8 -4 18q0 18 14.5 30.5t33.5 12.5q29 0 40 -28q98 -240 162 -406q54 144 157 406z" />
    <glyph glyph-name="uni0444" unicode="&#x444;" horiz-adv-x="673" 
d="M646 259q0 -114 -75 -188.5t-194 -77.5v-187q0 -16 -12.5 -28.5t-28.5 -12.5t-28.5 12.5t-12.5 28.5v187q-119 3 -193.5 78.5t-74.5 187.5q0 111 74.5 185.5t193.5 77.5v192q0 17 12.5 29t29.5 12q16 0 28 -12.5t12 -28.5v-192q119 -3 194 -77t75 -186zM108 259
q0 -81 51.5 -135t135.5 -58v384q-84 -3 -135.5 -57t-51.5 -134zM377 450v-384q85 4 136.5 57.5t51.5 135.5q0 80 -52 134t-136 57z" />
    <glyph glyph-name="uni0445" unicode="&#x445;" horiz-adv-x="519" 
d="M415 16q-94 109 -156 190q-65 -86 -158 -192q-14 -17 -37 -17q-16 0 -27.5 9.5t-11.5 24.5q0 17 16 36l170 192l-168 190q-14 15 -14 33q0 16 11.5 27t27.5 11q19 0 37 -19q94 -104 154 -184q61 80 159 184q19 19 39 19q15 0 25.5 -10t10.5 -25q0 -19 -15 -35l-164 -188
l168 -198q12 -15 12 -30q0 -16 -12 -27t-28 -11q-22 0 -39 20z" />
    <glyph glyph-name="uni0446" unicode="&#x446;" horiz-adv-x="624" 
d="M533 81h35q42 0 42 -42v-173q0 -16 -12 -28t-28 -12t-28 12t-12 28v134h-418q-22 0 -35 13t-13 35v429q0 17 13 30t30 13q18 0 30.5 -13t12.5 -30v-399h274v3h22v396q0 17 13 30t30 13q18 0 31 -13t13 -30v-396z" />
    <glyph glyph-name="uni0447" unicode="&#x447;" horiz-adv-x="527" 
d="M420 520q17 0 30 -13t13 -30v-438q0 -18 -13 -31t-30 -13q-18 0 -31 13t-13 31v173q-47 -16 -116 -16q-117 0 -177.5 52t-60.5 148v81q0 17 13 30t30 13q18 0 30.5 -13t12.5 -30v-77q0 -127 156 -127q64 0 112 16v188q0 17 13 30t31 13z" />
    <glyph glyph-name="uni0448" unicode="&#x448;" horiz-adv-x="855" 
d="M471 78h234v399q0 17 13 30t30 13q18 0 30.5 -13t12.5 -30v-429q0 -22 -12.5 -35t-35.5 -13h-631q-22 0 -35 13t-13 35v429q0 17 13 30t30 13q18 0 30.5 -13t12.5 -30v-399h234v399q0 17 13 30t30 13q18 0 31 -13t13 -30v-399z" />
    <glyph glyph-name="uni0449" unicode="&#x449;" horiz-adv-x="884" 
d="M791 81h37q42 0 42 -42v-173q0 -16 -12 -28t-28 -12t-28 12t-12 28v134h-678q-22 0 -35 13t-13 35v429q0 17 13 30t30 13q18 0 30.5 -13t12.5 -30v-399h234v399q0 17 13 30t30 13q18 0 31 -13t13 -30v-399h213v3h21v396q0 17 13 30t30 13q18 0 30.5 -13t12.5 -30v-396z
" />
    <glyph glyph-name="uni044A" unicode="&#x44a;" horiz-adv-x="568" 
d="M206 345h137q93 0 149.5 -46t56.5 -127q0 -80 -56.5 -126t-149.5 -46h-186q-38 0 -38 37v399h-89q-16 0 -27.5 12t-11.5 28t11.5 27.5t27.5 11.5h133q18 0 30.5 -11.5t12.5 -27.5v-131zM206 74h128q59 0 94 25.5t35 73.5q0 47 -35 72.5t-94 25.5h-128v-197z" />
    <glyph glyph-name="uni044B" unicode="&#x44b;" horiz-adv-x="728" 
d="M150 345h137q93 0 150 -46t57 -127q0 -80 -57 -126t-150 -46h-186q-37 0 -37 37v439q0 17 12.5 30t30.5 13t30.5 -13t12.5 -30v-131zM621 519q17 0 30 -11.5t13 -31.5v-437q0 -20 -13 -31.5t-30 -11.5q-18 0 -31 11.5t-13 31.5v437q0 20 13 31.5t31 11.5zM150 74h129
q58 0 93.5 25.5t35.5 73.5t-35.5 73t-93.5 25h-129v-197z" />
    <glyph glyph-name="uni044C" unicode="&#x44c;" horiz-adv-x="513" 
d="M150 345h137q93 0 150 -46t57 -127q0 -80 -57 -126t-150 -46h-186q-37 0 -37 37v439q0 17 12.5 30t30.5 13t30.5 -13t12.5 -30v-131zM150 74h129q58 0 93.5 25.5t35.5 73.5t-35.5 73t-93.5 25h-129v-197z" />
    <glyph glyph-name="uni044D" unicode="&#x44d;" horiz-adv-x="496" 
d="M49 479q66 45 153 45q109 0 189 -70.5t80 -196.5t-79.5 -196t-187.5 -70q-87 0 -155 45q-25 17 -25 42q0 14 8.5 24t20.5 10q11 0 21 -7q53 -35 118 -35q71 0 125 41.5t64 116.5h-242q-12 0 -21 8.5t-9 21.5q0 12 9 20.5t21 8.5h242q-10 73 -63.5 115t-124.5 42
q-63 0 -118 -34q-10 -6 -20 -6q-13 0 -21.5 10.5t-8.5 24.5q0 24 24 40z" />
    <glyph glyph-name="uni044E" unicode="&#x44e;" horiz-adv-x="785" 
d="M487 524q113 0 187.5 -75.5t74.5 -190.5t-74.5 -190.5t-187.5 -75.5q-106 0 -178 65.5t-82 169.5h-77v-188q0 -17 -12.5 -30t-30.5 -13q-17 0 -30 13t-13 30v437q0 17 12.5 30t30.5 13t30.5 -13t12.5 -30v-178h78q13 100 84.5 163t174.5 63zM487 71q77 0 127.5 53
t50.5 134t-50.5 134.5t-127.5 53.5q-76 0 -126.5 -53.5t-50.5 -134.5t50.5 -134t126.5 -53z" />
    <glyph glyph-name="uni044F" unicode="&#x44f;" horiz-adv-x="512" 
d="M210 515h183q55 0 55 -55v-424q0 -17 -12.5 -29.5t-28.5 -12.5q-18 0 -30 13t-12 30q0 131 2 177l-247 -206q-14 -11 -31 -11q-16 0 -28 9.5t-12 23.5t14 27q101 91 191 151h-54q-69 0 -119.5 39t-50.5 115q0 71 48 112t132 41zM218 268h147v172h-147q-49 0 -76.5 -23.5
t-27.5 -62.5t27 -62.5t77 -23.5z" />
    <glyph glyph-name="uni0450" unicode="&#x450;" horiz-adv-x="594" 
d="M257 590l-58 83q-11 17 -11 31t10.5 22.5t25.5 8.5q27 0 40 -23l53 -94q5 -9 5 -19q0 -12 -9 -20t-22 -8q-20 0 -34 19zM558 280q2 -22 -10 -34t-33 -12h-392q4 -76 55.5 -123.5t127.5 -47.5q98 0 154 83q12 18 30 18q14 0 25.5 -12t11.5 -28q0 -13 -9 -25
q-79 -109 -213 -109q-117 0 -193 74t-76 194q0 114 74.5 191t187.5 77q108 0 179 -67t81 -179zM298 454q-72 0 -121.5 -45.5t-53.5 -113.5h350q-5 68 -53 113.5t-122 45.5z" />
    <glyph glyph-name="uni0451" unicode="&#x451;" horiz-adv-x="594" 
d="M212 599q-21 0 -36 14.5t-15 35.5t15 35.5t36 14.5t35.5 -14.5t14.5 -35.5t-14.5 -35.5t-35.5 -14.5zM392 599q-21 0 -36 14.5t-15 35.5t15 35.5t36 14.5t35.5 -14.5t14.5 -35.5t-14.5 -35.5t-35.5 -14.5zM558 280q2 -22 -10 -34t-33 -12h-392q4 -76 55.5 -123.5
t127.5 -47.5q98 0 154 83q12 18 30 18q14 0 25.5 -12t11.5 -28q0 -13 -9 -25q-79 -109 -213 -109q-117 0 -193 74t-76 194q0 114 74.5 191t187.5 77q108 0 179 -67t81 -179zM298 454q-72 0 -121.5 -45.5t-53.5 -113.5h350q-5 68 -53 113.5t-122 45.5z" />
    <glyph glyph-name="uni0452" unicode="&#x452;" horiz-adv-x="592" 
d="M332 526q90 0 149 -55.5t59 -167.5v-492q0 -21 -13.5 -32.5t-30.5 -11.5q-18 0 -31 11.5t-13 32.5v480q0 84 -41 121.5t-104 37.5q-71 0 -113 -44.5t-42 -123.5v-243q0 -20 -13 -31.5t-30 -11.5q-18 0 -31.5 11.5t-13.5 31.5v547h-98q-14 0 -23.5 9.5t-9.5 22.5
q0 14 9.5 23.5t23.5 9.5h98v60q0 20 13.5 31.5t30.5 11.5q18 0 31 -11.5t13 -31.5v-60h98q14 0 23.5 -9.5t9.5 -23.5q0 -13 -9.5 -22.5t-23.5 -9.5h-98v-169q48 109 180 109z" />
    <glyph glyph-name="uni0453" unicode="&#x453;" horiz-adv-x="410" 
d="M214 618l52 94q14 24 40 24q15 0 26 -9t11 -23q0 -13 -12 -31l-58 -83q-14 -20 -34 -20q-12 0 -21.5 8.5t-9.5 20.5q0 9 6 19zM64 39v432q0 44 45 44h262q16 0 27.5 -11t11.5 -27t-11.5 -28t-27.5 -12h-221v-398q0 -17 -12.5 -30t-30.5 -13q-17 0 -30 13t-13 30z" />
    <glyph glyph-name="uni0454" unicode="&#x454;" horiz-adv-x="496" 
d="M422 105q10 6 20 6q13 0 21.5 -10t8.5 -25q0 -23 -23 -39q-68 -46 -155 -46q-69 0 -129 29t-99.5 91t-39.5 147q0 126 79.5 196t188.5 70q88 0 154 -45q25 -16 25 -41q0 -14 -8.5 -24.5t-21.5 -10.5q-9 0 -19 6q-54 36 -120 36q-71 0 -125 -42t-64 -116h243q12 0 20.5 -9
t8.5 -21t-8.5 -20.5t-20.5 -8.5h-243q10 -73 64 -115t125 -42q63 0 118 34z" />
    <glyph glyph-name="uni0455" unicode="&#x455;" horiz-adv-x="482" 
d="M248 -10q-144 0 -202 100q-8 13 -8 29q0 18 12 30.5t27 12.5q22 0 35 -24q42 -78 137 -78q51 0 81.5 20t30.5 55q0 33 -32 53.5t-78 33t-92 27.5t-78 47t-32 82q0 67 53 107t134 40q58 0 107 -24.5t73 -64.5q9 -15 9 -29q0 -16 -10 -28t-24 -12q-19 0 -35 22
q-48 68 -121 68q-44 0 -72.5 -20t-28.5 -52q0 -27 23.5 -45.5t58.5 -27.5t75.5 -22t75.5 -27.5t58.5 -46t23.5 -75.5q0 -72 -55 -111.5t-146 -39.5z" />
    <glyph glyph-name="uni0456" unicode="&#x456;" horiz-adv-x="215" 
d="M108 592q-22 0 -38.5 16t-16.5 39t16 39.5t39 16.5t39.5 -16.5t16.5 -39.5t-16.5 -39t-39.5 -16zM64 39v437q0 20 13.5 31.5t30.5 11.5q18 0 31 -11.5t13 -31.5v-437q0 -20 -13 -31.5t-31 -11.5q-17 0 -30.5 11.5t-13.5 31.5z" />
    <glyph glyph-name="uni0457" unicode="&#x457;" horiz-adv-x="215" 
d="M17 599q-21 0 -35.5 14.5t-14.5 35.5t14.5 35.5t35.5 14.5q22 0 36.5 -14.5t14.5 -35.5t-15 -35.5t-36 -14.5zM197 599q-21 0 -35.5 14.5t-14.5 35.5t14.5 35.5t35.5 14.5q22 0 36.5 -14.5t14.5 -35.5t-15 -35.5t-36 -14.5zM64 39v437q0 20 13 31.5t30 11.5
q18 0 31 -11.5t13 -31.5v-437q0 -20 -13 -31.5t-31 -11.5q-17 0 -30 11.5t-13 31.5z" />
    <glyph glyph-name="uni0458" unicode="&#x458;" horiz-adv-x="215" 
d="M108 592q-22 0 -38.5 16t-16.5 39t16 39.5t39 16.5t39.5 -16.5t16.5 -39.5t-16.5 -39t-39.5 -16zM64 -193v669q0 20 13.5 31.5t30.5 11.5q18 0 31 -11.5t13 -31.5v-669q0 -21 -13 -32.5t-31 -11.5q-17 0 -30.5 11.5t-13.5 32.5z" />
    <glyph glyph-name="uni0459" unicode="&#x459;" horiz-adv-x="879" 
d="M517 345h137q93 0 150 -46t57 -127q0 -80 -57 -126t-150 -46h-186q-37 0 -37 37v400h-234v-250q0 -153 -124 -189q-6 -2 -16 -2q-19 0 -30 12t-11 29q0 25 25 35q34 14 52.5 38.5t18.5 78.5v287q0 39 39 39h323q18 0 30.5 -11.5t12.5 -27.5v-131zM517 74h128
q59 0 94.5 25.5t35.5 73.5t-35.5 73t-94.5 25h-128v-197z" />
    <glyph glyph-name="uni045A" unicode="&#x45a;" horiz-adv-x="898" 
d="M536 345h137q93 0 149.5 -46t56.5 -127q0 -80 -56.5 -126t-149.5 -46h-186q-38 0 -38 37v183h-299v-181q0 -18 -12.5 -31t-30.5 -13q-17 0 -30 13t-13 31v438q0 17 13 30t30 13q18 0 30.5 -13t12.5 -30v-181h299v180q0 17 13 30t31 13q17 0 30 -13t13 -30v-131zM536 74
h128q59 0 94 25.5t35 73.5q0 47 -35 72.5t-94 25.5h-128v-197z" />
    <glyph glyph-name="uni045B" unicode="&#x45b;" horiz-adv-x="592" 
d="M332 526q90 0 149 -55.5t59 -167.5v-262q0 -21 -13 -33t-31 -12t-31 12t-13 33v250q0 84 -41 121.5t-104 37.5q-71 0 -112.5 -44.5t-42.5 -123.5v-243q0 -20 -13 -31.5t-31 -11.5q-17 0 -30.5 11.5t-13.5 31.5v547h-98q-14 0 -23.5 9.5t-9.5 22.5q0 14 9.5 23.5t23.5 9.5
h98v60q0 20 13.5 31.5t30.5 11.5q18 0 31 -11.5t13 -31.5v-60h98q14 0 23.5 -9.5t9.5 -23.5q0 -13 -9.5 -22.5t-23.5 -9.5h-98v-165q52 105 180 105z" />
    <glyph glyph-name="uni045C" unicode="&#x45c;" horiz-adv-x="513" 
d="M357 673l-58 -83q-14 -20 -34 -20q-12 0 -21.5 8.5t-9.5 20.5q0 9 6 19l52 94q14 24 40 24q15 0 26 -9t11 -23q0 -13 -12 -31zM238 276l236 -216q11 -10 11 -24q0 -15 -13 -27t-30 -12q-18 0 -30 12l-263 243q3 -96 3 -212q0 -17 -12 -30.5t-31 -13.5q-18 0 -31 13
t-13 30l-1 438q0 18 13 31t31 13t30.5 -13t12.5 -31v-76q0 -66 -2 -100l260 204q19 15 39 15q16 0 27.5 -9t11.5 -22q0 -16 -18 -30z" />
    <glyph glyph-name="uni045D" unicode="&#x45d;" horiz-adv-x="616" 
d="M271 707l53 -94q5 -9 5 -19q0 -12 -9 -20t-22 -8q-20 0 -34 19l-58 83q-11 17 -11 31t10.5 22.5t25.5 8.5q27 0 40 -23zM509 -5q-18 0 -31 13t-13 31v349l-307 -372q-18 -21 -44 -21q-21 0 -35.5 14t-14.5 38v430q0 17 13 30t30 13q18 0 30.5 -13t12.5 -30v-353l309 376
q18 21 43 21q21 0 35.5 -14t14.5 -38v-430q0 -18 -13 -31t-30 -13z" />
    <glyph glyph-name="uni045F" unicode="&#x45f;" horiz-adv-x="597" 
d="M489 520q18 0 31 -13t13 -30v-429q0 -22 -13 -35t-35 -13h-147v-129q0 -16 -12 -28t-28 -12t-28 11.5t-12 28.5v129h-146q-22 0 -35 13t-13 35v429q0 17 13 30t30 13q18 0 30.5 -13t12.5 -30v-399h296v399q0 17 13 30t30 13z" />
    <glyph glyph-name="uni0490" unicode="&#x490;" horiz-adv-x="490" 
d="M437 800q18 0 30 -12.5t12 -29.5v-88q0 -17 -12 -29t-28 -12h-271v-589q0 -18 -13 -31t-31 -13q-19 0 -32 13t-13 31v625q0 45 45 45h271v48q0 17 12.5 29.5t29.5 12.5z" />
    <glyph glyph-name="uni0491" unicode="&#x491;" horiz-adv-x="410" 
d="M368 606q17 0 29.5 -13t12.5 -30v-88q0 -16 -11.5 -27t-27.5 -11h-221v-398q0 -17 -12.5 -30t-30.5 -13q-17 0 -30 13t-13 30v432q0 44 45 44h216v48q0 17 12.5 30t30.5 13z" />
    <glyph glyph-name="Wgrave" unicode="&#x1e80;" horiz-adv-x="946" 
d="M429 785l-58 83q-11 16 -11 31q0 14 11 22.5t26 8.5q27 0 40 -23l52 -94q5 -9 5 -19q0 -12 -9 -20t-22 -8q-20 0 -34 19zM871 715q17 0 31 -11.5t14 -29.5q0 -4 -2 -14l-175 -616q-13 -48 -63 -48t-63 50q-128 482 -139 553q-16 -96 -143 -555q-13 -48 -62 -48t-63 47
l-173 614q-2 10 -2 14q0 19 14.5 31t32.5 12q34 0 44 -37q134 -485 151 -572q17 88 144 562q12 47 59 47t59 -46q126 -464 145 -556q17 86 149 570q9 33 42 33z" />
    <glyph glyph-name="wgrave" unicode="&#x1e81;" horiz-adv-x="818" 
d="M373 712l52 -94q5 -9 5 -19q0 -12 -9 -20t-22 -8q-20 0 -34 19l-58 83q-11 17 -11 31t11 22.5t26 8.5q27 0 40 -23zM233 -5q-19 0 -35 12t-22 31l-140 425q-3 9 -3 16q0 18 13.5 29.5t32.5 11.5q32 0 41 -34q18 -70 64.5 -215.5t53.5 -172.5q17 67 119 378q14 45 55 45
t55 -43q97 -296 116 -374q14 55 119 382q11 33 41 33q17 0 30 -11t13 -28q0 -8 -3 -15l-141 -428q-6 -18 -22 -30t-35 -12q-42 0 -57 44q-101 307 -117 375q-22 -78 -121 -375q-14 -44 -57 -44z" />
    <glyph glyph-name="Wacute" unicode="&#x1e82;" horiz-adv-x="946" 
d="M576 868l-58 -83q-14 -20 -34 -20q-12 0 -21 8t-9 20q0 10 5 19l51 94q13 24 40 24q16 0 26.5 -8.5t10.5 -23.5t-11 -30zM871 715q17 0 31 -11.5t14 -29.5q0 -4 -2 -14l-175 -616q-13 -48 -63 -48t-63 50q-128 482 -139 553q-16 -96 -143 -555q-13 -48 -62 -48t-63 47
l-173 614q-2 10 -2 14q0 19 14.5 31t32.5 12q34 0 44 -37q134 -485 151 -572q17 88 144 562q12 47 59 47t59 -46q126 -464 145 -556q17 86 149 570q9 33 42 33z" />
    <glyph glyph-name="wacute" unicode="&#x1e83;" horiz-adv-x="818" 
d="M394 618l51 94q14 24 40 24q16 0 27 -9t11 -23q0 -13 -12 -31l-58 -83q-14 -20 -34 -20q-12 0 -21.5 8.5t-9.5 20.5q0 9 6 19zM233 -5q-19 0 -35 12t-22 31l-140 425q-3 9 -3 16q0 18 13.5 29.5t32.5 11.5q32 0 41 -34q18 -70 64.5 -215.5t53.5 -172.5q17 67 119 378
q14 45 55 45t55 -43q97 -296 116 -374q14 55 119 382q11 33 41 33q17 0 30 -11t13 -28q0 -8 -3 -15l-141 -428q-6 -18 -22 -30t-35 -12q-42 0 -57 44q-101 307 -117 375q-22 -78 -121 -375q-14 -44 -57 -44z" />
    <glyph glyph-name="Wdieresis" unicode="&#x1e84;" horiz-adv-x="946" 
d="M383 794q-21 0 -35.5 14.5t-14.5 35.5t14.5 35.5t35.5 14.5t35.5 -14.5t14.5 -35.5t-14.5 -35.5t-35.5 -14.5zM563 794q-21 0 -35.5 14.5t-14.5 35.5t14.5 35.5t35.5 14.5t35.5 -14.5t14.5 -35.5t-14.5 -35.5t-35.5 -14.5zM871 715q17 0 31 -11.5t14 -29.5q0 -4 -2 -14
l-175 -616q-13 -48 -63 -48t-63 50q-128 482 -139 553q-16 -96 -143 -555q-13 -48 -62 -48t-63 47l-173 614q-2 10 -2 14q0 19 14.5 31t32.5 12q34 0 44 -37q134 -485 151 -572q17 88 144 562q12 47 59 47t59 -46q126 -464 145 -556q17 86 149 570q9 33 42 33z" />
    <glyph glyph-name="wdieresis" unicode="&#x1e85;" horiz-adv-x="818" 
d="M319 599q-21 0 -35.5 14.5t-14.5 35.5t14.5 35.5t35.5 14.5t36 -14.5t15 -35.5t-15 -35.5t-36 -14.5zM499 599q-21 0 -35.5 14.5t-14.5 35.5t14.5 35.5t35.5 14.5t36 -14.5t15 -35.5t-15 -35.5t-36 -14.5zM233 -5q-19 0 -35 12t-22 31l-140 425q-3 9 -3 16
q0 18 13.5 29.5t32.5 11.5q32 0 41 -34q18 -70 64.5 -215.5t53.5 -172.5q17 67 119 378q14 45 55 45t55 -43q97 -296 116 -374q14 55 119 382q11 33 41 33q17 0 30 -11t13 -28q0 -8 -3 -15l-141 -428q-6 -18 -22 -30t-35 -12q-42 0 -57 44q-101 307 -117 375
q-22 -78 -121 -375q-14 -44 -57 -44z" />
    <glyph glyph-name="uni1E9E" unicode="&#x1e9e;" horiz-adv-x="661" 
d="M267 35q-19 11 -19 35q0 15 8 26.5t20 11.5q7 0 15 -5q50 -31 104 -31q59 0 100 36t41 102q0 71 -50 108t-138 33q-14 -1 -23 7t-9 18q0 6 3 10l165 249h-316v-595q0 -18 -13 -31t-31 -13q-19 0 -32 13t-13 31v626q0 44 44 44h438q18 0 28.5 -8t10.5 -20t-8 -23
l-162 -242q94 -10 145.5 -65t51.5 -140q0 -100 -64.5 -159t-155.5 -59q-76 0 -140 41z" />
    <glyph glyph-name="uni1EBC" unicode="&#x1ebc;" horiz-adv-x="545" 
d="M359 789q-31 0 -70.5 22.5t-57.5 22.5q-21 0 -37 -26q-10 -16 -26 -16q-13 0 -23 10t-10 25q0 11 5 20q27 56 86 56q29 0 68 -23t57 -23q21 0 37 25q12 18 28 18q13 0 23 -11t10 -26q0 -12 -5 -21q-26 -53 -85 -53zM470 0h-344q-47 0 -47 47v616q0 47 47 47h344
q17 0 29 -12t12 -28q0 -17 -12 -29t-29 -12h-302v-228h237q16 0 27.5 -12t11.5 -28t-11.5 -27.5t-27.5 -11.5h-237v-241h302q17 0 29 -12t12 -29q0 -16 -12 -28t-29 -12z" />
    <glyph glyph-name="uni1EBD" unicode="&#x1ebd;" horiz-adv-x="594" 
d="M204 614q-10 -17 -27 -17q-13 0 -23 9.5t-10 24.5q0 8 5 20q28 57 86 57q29 0 68 -23t57 -23q21 0 37 25q11 17 28 17q14 0 24 -10.5t10 -25.5q0 -11 -5 -20q-27 -54 -86 -54q-31 0 -70.5 22.5t-56.5 22.5q-22 0 -37 -25zM558 280q2 -22 -10 -34t-33 -12h-392
q4 -76 55.5 -123.5t127.5 -47.5q98 0 154 83q12 18 30 18q14 0 25.5 -12t11.5 -28q0 -13 -9 -25q-79 -109 -213 -109q-117 0 -193 74t-76 194q0 114 74.5 191t187.5 77q108 0 179 -67t81 -179zM298 454q-72 0 -121.5 -45.5t-53.5 -113.5h350q-5 68 -53 113.5t-122 45.5z" />
    <glyph glyph-name="Ygrave" unicode="&#x1ef2;" horiz-adv-x="588" 
d="M257 907l52 -94q5 -9 5 -19q0 -12 -9 -20t-22 -8q-20 0 -34 19l-58 83q-11 16 -11 31q0 14 11 22.5t26 8.5q27 0 40 -23zM294 -5q-19 0 -32 13.5t-13 31.5v260l-219 347q-7 11 -7 23q0 18 14 30.5t32 12.5q25 0 39 -23q160 -258 186 -315q25 54 188 314q15 25 40 25
q18 0 31 -11.5t13 -29.5q0 -13 -8 -25l-220 -348v-260q0 -18 -13 -31.5t-31 -13.5z" />
    <glyph glyph-name="ygrave" unicode="&#x1ef3;" horiz-adv-x="545" 
d="M227 590l-58 83q-11 17 -11 31t11 22.5t26 8.5q27 0 40 -23l52 -94q5 -9 5 -19q0 -12 -9 -20t-22 -8q-20 0 -34 19zM433 491q12 29 41 29q18 0 31.5 -11.5t13.5 -29.5q0 -11 -4 -20l-277 -666q-12 -28 -41 -28q-17 0 -30 11.5t-13 28.5q0 9 4 18l72 175l-200 460
q-4 8 -4 18q0 18 14.5 30.5t33.5 12.5q29 0 40 -28q98 -240 162 -406q54 144 157 406z" />
    <glyph glyph-name="uni1EF8" unicode="&#x1ef8;" horiz-adv-x="588" 
d="M361 789q-31 0 -70.5 22.5t-57.5 22.5q-21 0 -38 -27q-9 -15 -25 -15q-13 0 -23 9.5t-10 24.5q0 12 5 22q26 55 86 55q29 0 68 -23t57 -23q21 0 37 26q10 16 27 16q14 0 24 -10.5t10 -25.5q0 -11 -5 -20q-27 -54 -85 -54zM294 -5q-19 0 -32 13.5t-13 31.5v260l-219 347
q-7 11 -7 23q0 18 14 30.5t32 12.5q25 0 39 -23q160 -258 186 -315q25 54 188 314q15 25 40 25q18 0 31 -11.5t13 -29.5q0 -13 -8 -25l-220 -348v-260q0 -18 -13 -31.5t-31 -13.5z" />
    <glyph glyph-name="uni1EF9" unicode="&#x1ef9;" horiz-adv-x="545" 
d="M173 612q-9 -15 -25 -15q-13 0 -23 9.5t-10 24.5q0 12 5 22q26 55 86 55q29 0 68 -23t57 -23q21 0 37 26q10 16 27 16q14 0 24 -10.5t10 -25.5q0 -11 -5 -20q-27 -54 -85 -54q-31 0 -70.5 22.5t-57.5 22.5q-21 0 -38 -27zM433 491q12 29 41 29q18 0 31.5 -11.5
t13.5 -29.5q0 -11 -4 -20l-277 -666q-12 -28 -41 -28q-17 0 -30 11.5t-13 28.5q0 9 4 18l72 175l-200 460q-4 8 -4 18q0 18 14.5 30.5t33.5 12.5q29 0 40 -28q98 -240 162 -406q54 144 157 406z" />
    <glyph glyph-name="endash" unicode="&#x2013;" horiz-adv-x="585" 
d="M0 270q0 16 12 28t28 12h505q17 0 28.5 -12t11.5 -28t-12 -27.5t-28 -11.5h-505q-16 0 -28 11.5t-12 27.5z" />
    <glyph glyph-name="emdash" unicode="&#x2014;" horiz-adv-x="729" 
d="M0 270q0 16 12 28t28 12h649q16 0 28 -12t12 -28t-12 -27.5t-28 -11.5h-649q-16 0 -28 11.5t-12 27.5z" />
    <glyph glyph-name="quoteleft" unicode="&#x2018;" horiz-adv-x="261" 
d="M184 670l-27 -123q-9 -40 -46 -40q-16 0 -27 11t-11 30q0 12 4 23l42 120q7 22 30 22q14 0 25 -9.5t11 -24.5q0 -6 -1 -9z" />
    <glyph glyph-name="quoteright" unicode="&#x2019;" horiz-adv-x="261" 
d="M77 556l27 123q9 40 46 40q16 0 27 -11t11 -30q0 -12 -4 -23l-42 -120q-7 -22 -30 -22q-14 0 -25 9.5t-11 24.5q0 6 1 9z" />
    <glyph glyph-name="quotesinglbase" unicode="&#x201a;" horiz-adv-x="261" 
d="M77 -67l27 123q9 40 46 40q16 0 27 -11t11 -30q0 -12 -4 -23l-42 -120q-7 -22 -30 -22q-14 0 -25 9.5t-11 24.5q0 6 1 9z" />
    <glyph glyph-name="quotedblleft" unicode="&#x201c;" horiz-adv-x="410" 
d="M184 670l-27 -123q-9 -40 -46 -40q-16 0 -27 11t-11 30q0 12 4 23l42 120q7 22 30 22q14 0 25 -9.5t11 -24.5q0 -6 -1 -9zM333 670l-27 -123q-9 -40 -46 -40q-16 0 -27 11t-11 29q0 12 4 24l42 120q7 22 30 22q14 0 25 -9.5t11 -24.5q0 -6 -1 -9z" />
    <glyph glyph-name="quotedblright" unicode="&#x201d;" horiz-adv-x="410" 
d="M77 556l27 123q9 40 46 40q16 0 27 -11t11 -30q0 -12 -4 -23l-42 -120q-7 -22 -30 -22q-14 0 -25 9.5t-11 24.5q0 6 1 9zM226 556l27 123q9 40 46 40q16 0 27 -11t11 -30q0 -12 -4 -23l-42 -120q-7 -22 -30 -22q-14 0 -25 9.5t-11 24.5q0 6 1 9z" />
    <glyph glyph-name="quotedblbase" unicode="&#x201e;" horiz-adv-x="410" 
d="M77 -67l27 123q9 40 46 40q16 0 27 -11t11 -30q0 -12 -4 -23l-42 -120q-7 -22 -30 -22q-14 0 -25 9.5t-11 24.5q0 6 1 9zM226 -67l27 123q9 40 46 40q16 0 27 -11t11 -30q0 -12 -4 -23l-42 -120q-7 -22 -30 -22q-14 0 -25 9.5t-11 24.5q0 6 1 9z" />
    <glyph glyph-name="dagger" unicode="&#x2020;" horiz-adv-x="434" 
d="M259 531h109q15 0 26.5 -11t11.5 -27q0 -15 -11.5 -26t-26.5 -11h-109v-498q0 -17 -12.5 -29.5t-29.5 -12.5t-29.5 12.5t-12.5 29.5v498h-109q-15 0 -26.5 11t-11.5 26q0 16 11 27t27 11h109v178q0 17 12.5 29.5t29.5 12.5t29.5 -12.5t12.5 -29.5v-178z" />
    <glyph glyph-name="daggerdbl" unicode="&#x2021;" horiz-adv-x="461" 
d="M273 205h109q15 0 26.5 -11t11.5 -27t-11.5 -27t-26.5 -11h-109v-171q0 -17 -12.5 -29.5t-29.5 -12.5t-29.5 12.5t-12.5 29.5v171h-109q-15 0 -26.5 11t-11.5 27t11.5 27t26.5 11h109v253h-109q-15 0 -26.5 11t-11.5 26q0 16 11.5 27t26.5 11h109v176q0 17 12.5 29.5
t29.5 12.5t29.5 -12.5t12.5 -29.5v-176h109q15 0 26.5 -11t11.5 -27q0 -15 -11.5 -26t-26.5 -11h-109v-253z" />
    <glyph glyph-name="bullet" unicode="&#x2022;" horiz-adv-x="340" 
d="M170 266q-33 0 -56.5 23t-23.5 57q0 33 23.5 56.5t56.5 23.5q34 0 57.5 -23.5t23.5 -56.5t-24 -56.5t-57 -23.5z" />
    <glyph glyph-name="perthousand" unicode="&#x2030;" horiz-adv-x="1400" 
d="M235 341q-83 0 -138 53.5t-55 134.5t55 134.5t138 53.5t137.5 -53.5t54.5 -134.5t-55 -134.5t-137 -53.5zM670 667l-306 -651q-10 -20 -31 -20q-13 0 -24 9t-11 22q0 8 4 16l307 651q9 20 31 20q13 0 23.5 -8.5t10.5 -22.5q0 -8 -4 -16zM235 405q53 0 89 36t36 89
t-35.5 88.5t-89.5 35.5q-53 0 -89 -35.5t-36 -88.5q0 -54 36 -89.5t89 -35.5zM739 -10q-83 0 -138 53.5t-55 134.5q0 80 55.5 134t137.5 54t137 -54t55 -134q0 -81 -54.5 -134.5t-137.5 -53.5zM1164 -10q-83 0 -138 53.5t-55 134.5q0 80 55.5 134t137.5 54q83 0 138 -54
t55 -134q0 -81 -55 -134.5t-138 -53.5zM739 53q53 0 89 36t36 89t-36 89t-89 36t-89 -36t-36 -89t36 -89t89 -36zM1164 53q53 0 89.5 36t36.5 89t-36 89t-90 36q-53 0 -89 -36t-36 -89t36 -89t89 -36z" />
    <glyph glyph-name="guilsinglleft" unicode="&#x2039;" horiz-adv-x="266" 
d="M205 358l-86 -118l85 -118q8 -11 8 -23q0 -15 -12 -25.5t-27 -10.5q-19 0 -31 16l-95 129q-11 14 -11 30t12 33l94 129q11 15 30 15q15 0 27.5 -10.5t12.5 -25.5q0 -11 -7 -21z" />
    <glyph glyph-name="guilsinglright" unicode="&#x203a;" horiz-adv-x="266" 
d="M123 400l95 -129q11 -16 11 -32q0 -17 -11 -31l-95 -128q-12 -16 -30 -16q-15 0 -27.5 10.5t-12.5 24.5q0 9 8 22l85 119l-85 117q-8 11 -8 22q0 15 12.5 26t27.5 11q18 0 30 -16z" />
    <glyph glyph-name="fraction" unicode="&#x2044;" horiz-adv-x="168" 
d="M268 667l-307 -651q-9 -20 -33 -20q-13 0 -22.5 8t-9.5 22q0 9 4 17l306 651q9 19 31 19q14 0 24.5 -8.5t10.5 -22.5q0 -8 -4 -15z" />
    <glyph glyph-name="uni2070" unicode="&#x2070;" horiz-adv-x="419" 
d="M209 348q-69 0 -118.5 43.5t-49.5 116.5v139q0 73 50 117t118 44q69 0 118.5 -44t49.5 -117v-139q0 -73 -49.5 -116.5t-118.5 -43.5zM209 411q42 0 71.5 27.5t29.5 69.5v139q0 42 -29.5 69.5t-71.5 27.5t-71.5 -27.5t-29.5 -69.5v-139q0 -42 30 -69.5t71 -27.5z" />
    <glyph glyph-name="uni2074" unicode="&#x2074;" horiz-adv-x="391" 
d="M263 350q-13 0 -23 10t-10 23v63h-182q-14 0 -22.5 9.5t-8.5 22.5q0 11 5 17l203 293q11 17 32 17q16 0 27.5 -11.5t11.5 -27.5v-266h44q11 0 19 -8t8 -19t-8 -19t-19 -8h-44v-63q0 -13 -10 -23t-23 -10zM91 500h139q0 137 5 221q-53 -86 -144 -221z" />
    <glyph glyph-name="uni2075" unicode="&#x2075;" horiz-adv-x="391" 
d="M197 348q-103 0 -145 97q-3 7 -3 17q0 15 8 26t24 11q21 0 25 -16q8 -34 32 -54t59 -20q38 0 66 27t28 68q0 43 -27 69t-67 26q-25 0 -48.5 -12t-35.5 -35q-7 -13 -28 -13q-19 0 -29.5 13.5t-8.5 30.5l28 180q6 38 44 38h182q11 0 20 -8.5t9 -21.5q0 -12 -9 -21t-20 -9
h-167l-18 -120q33 36 95 36q63 0 105 -42t42 -109q0 -66 -46 -112t-115 -46z" />
    <glyph glyph-name="uni2076" unicode="&#x2076;" horiz-adv-x="373" 
d="M188 348q-70 0 -115.5 44.5t-45.5 108.5q0 50 31 101l113 186q9 17 29 17q15 0 23 -9.5t8 -22.5q0 -11 -4 -16l-74 -118q25 14 54 14q60 0 100.5 -42t40.5 -106q0 -67 -45 -112t-115 -45zM94 505q0 -41 26.5 -67.5t67.5 -26.5t67.5 26.5t26.5 67.5t-26.5 67.5t-67.5 26.5
t-67.5 -26.5t-26.5 -67.5z" />
    <glyph glyph-name="uni2077" unicode="&#x2077;" horiz-adv-x="341" 
d="M320 754l-157 -384q-8 -20 -30 -20q-15 0 -23.5 10t-8.5 23q0 8 2 12l144 346h-202q-12 0 -21 9t-9 21q0 13 9 21.5t21 8.5h244q15 0 24 -10.5t9 -23.5q0 -9 -2 -13z" />
    <glyph glyph-name="uni2078" unicode="&#x2078;" horiz-adv-x="383" 
d="M278 593q70 -33 70 -109q0 -59 -44.5 -97t-113.5 -38q-68 0 -112 38.5t-44 96.5q0 74 69 109q-51 32 -51 92q0 53 40 86.5t99 33.5q58 0 98 -33.5t40 -86.5q0 -62 -51 -92zM191 750q-30 0 -52 -18t-22 -48t22 -48t52 -18t52.5 18t22.5 48t-22.5 48t-52.5 18zM191 409
q39 0 65 22t26 56t-26 56t-65 22q-38 0 -64 -22t-26 -56t26 -56t64 -22z" />
    <glyph glyph-name="uni2079" unicode="&#x2079;" horiz-adv-x="373" 
d="M185 805q70 0 115.5 -44.5t45.5 -108.5q0 -53 -30 -101l-114 -186q-11 -17 -29 -17q-15 0 -23 10t-8 23q0 10 4 15l74 118q-23 -14 -53 -14q-60 0 -101 42.5t-41 105.5q0 67 45 112t115 45zM279 648q0 41 -26.5 67.5t-67.5 26.5t-67.5 -27t-26.5 -67q0 -41 26.5 -67.5
t67.5 -26.5t67.5 26t26.5 68z" />
    <glyph glyph-name="uni207D" unicode="&#x207d;" horiz-adv-x="235" 
d="M179 172q-51 9 -82.5 45t-31.5 99v329q0 125 116 145q14 3 24 -7.5t10 -23.5q0 -24 -23 -29q-65 -13 -65 -85v-329q0 -72 66 -85q22 -4 22 -28q0 -15 -10.5 -24.5t-25.5 -6.5z" />
    <glyph glyph-name="uni207E" unicode="&#x207e;" horiz-adv-x="235" 
d="M54 790q58 -10 86.5 -48t28.5 -96v-329q0 -64 -31.5 -100t-82.5 -45q-16 -3 -25.5 7t-9.5 24q0 25 23 29q27 5 45.5 26t18.5 59v329q0 36 -18 57.5t-45 26.5q-25 5 -25 28q0 14 10 24.5t25 7.5z" />
    <glyph glyph-name="uni2080" unicode="&#x2080;" horiz-adv-x="419" 
d="M209 -236q-69 0 -118.5 43.5t-49.5 116.5v139q0 73 50 117t118 44q69 0 118.5 -44t49.5 -117v-139q0 -73 -49.5 -116.5t-118.5 -43.5zM209 -173q42 0 71.5 27.5t29.5 69.5v139q0 42 -29.5 69.5t-71.5 27.5t-71.5 -27.5t-29.5 -69.5v-139q0 -42 30 -69.5t71 -27.5z" />
    <glyph glyph-name="uni2081" unicode="&#x2081;" horiz-adv-x="333" 
d="M201 -171h76q11 0 20 -8.5t9 -20.5t-9 -21t-20 -9h-217q-12 0 -21 9t-9 21t9 20.5t21 8.5h74v321l-62 -19q-3 -1 -9 -1q-12 0 -19 8.5t-7 20.5q0 23 22 29l94 27q5 2 15 2q33 0 33 -40v-348z" />
    <glyph glyph-name="uni2082" unicode="&#x2082;" horiz-adv-x="379" 
d="M316 -230h-221q-27 0 -43 12t-16 34q0 41 24.5 74t59 54.5t69 41.5t59 45t24.5 55q0 33 -22.5 54.5t-58.5 21.5q-34 0 -56.5 -20.5t-28.5 -53.5q-1 -9 -10 -14.5t-19 -5.5q-15 0 -23.5 10.5t-8.5 25.5q0 6 2 14q15 46 52.5 76t91.5 30q63 0 105.5 -37.5t42.5 -99.5
q0 -43 -22 -76t-55 -54t-66 -38.5t-58.5 -39t-30.5 -46.5h209q12 0 21.5 -9t9.5 -22t-9.5 -22.5t-21.5 -9.5z" />
    <glyph glyph-name="uni2083" unicode="&#x2083;" horiz-adv-x="385" 
d="M197 -236q-58 0 -100.5 29.5t-56.5 77.5q-2 10 -2 14q0 15 9 24.5t22 9.5q25 0 28 -19q7 -35 33.5 -56t62.5 -21q40 0 65 22t25 55q0 36 -28 54.5t-63 18.5h-20q-13 0 -20 8.5t-7 19.5t8 19t21 8h18q33 0 53.5 19.5t20.5 49.5q0 29 -22 48t-57 19q-34 0 -55.5 -20.5
t-27.5 -50.5q-3 -21 -28 -21q-14 0 -23 9.5t-9 24.5q0 7 3 16q15 47 53.5 74.5t91.5 27.5q63 0 102 -33t39 -87q0 -66 -57 -100q74 -30 74 -106q0 -57 -41 -95.5t-112 -38.5z" />
    <glyph glyph-name="uni2084" unicode="&#x2084;" horiz-adv-x="391" 
d="M263 -234q-13 0 -23 10t-10 23v63h-182q-14 0 -22.5 9.5t-8.5 22.5q0 11 5 17l203 293q11 17 32 17q16 0 27.5 -11.5t11.5 -27.5v-266h44q11 0 19 -8t8 -19t-8 -19t-19 -8h-44v-63q0 -13 -10 -23t-23 -10zM91 -84h139q0 137 5 221q-53 -86 -144 -221z" />
    <glyph glyph-name="uni2085" unicode="&#x2085;" horiz-adv-x="391" 
d="M197 -236q-103 0 -145 97q-3 7 -3 17q0 15 8 26t24 11q21 0 25 -16q8 -34 32 -54t59 -20q38 0 66 27t28 68q0 43 -27 69t-67 26q-25 0 -48.5 -12t-35.5 -35q-7 -13 -28 -13q-19 0 -29.5 13.5t-8.5 30.5l28 180q6 38 44 38h182q11 0 20 -8.5t9 -21.5q0 -12 -9 -21t-20 -9
h-167l-18 -120q33 36 95 36q63 0 105 -42t42 -109q0 -66 -46 -112t-115 -46z" />
    <glyph glyph-name="uni2086" unicode="&#x2086;" horiz-adv-x="373" 
d="M188 -236q-70 0 -115.5 44.5t-45.5 108.5q0 50 31 101l113 186q9 17 29 17q15 0 23 -9.5t8 -22.5q0 -11 -4 -16l-74 -118q25 14 54 14q60 0 100.5 -42t40.5 -106q0 -67 -45 -112t-115 -45zM94 -79q0 -41 26.5 -67.5t67.5 -26.5t67.5 26.5t26.5 67.5t-26.5 67.5
t-67.5 26.5t-67.5 -26.5t-26.5 -67.5z" />
    <glyph glyph-name="uni2087" unicode="&#x2087;" horiz-adv-x="341" 
d="M320 170l-157 -384q-8 -20 -30 -20q-15 0 -23.5 10t-8.5 23q0 8 2 12l144 346h-202q-12 0 -21 9t-9 21q0 13 9 21.5t21 8.5h244q15 0 24 -10.5t9 -23.5q0 -9 -2 -13z" />
    <glyph glyph-name="uni2088" unicode="&#x2088;" horiz-adv-x="383" 
d="M278 9q70 -33 70 -109q0 -59 -44.5 -97t-113.5 -38q-68 0 -112 38.5t-44 96.5q0 74 69 109q-51 32 -51 92q0 53 40 86.5t99 33.5q58 0 98 -33.5t40 -86.5q0 -62 -51 -92zM191 166q-30 0 -52 -18t-22 -48t22 -48t52 -18t52.5 18t22.5 48t-22.5 48t-52.5 18zM191 -175
q39 0 65 22t26 56t-26 56t-65 22q-38 0 -64 -22t-26 -56t26 -56t64 -22z" />
    <glyph glyph-name="uni2089" unicode="&#x2089;" horiz-adv-x="373" 
d="M185 221q70 0 115.5 -44.5t45.5 -108.5q0 -53 -30 -101l-114 -186q-11 -17 -29 -17q-15 0 -23 10t-8 23q0 10 4 15l74 118q-23 -14 -53 -14q-60 0 -101 42.5t-41 105.5q0 67 45 112t115 45zM279 64q0 41 -26.5 67.5t-67.5 26.5t-67.5 -27t-26.5 -67q0 -41 26.5 -67.5
t67.5 -26.5t67.5 26t26.5 68z" />
    <glyph glyph-name="uni208D" unicode="&#x208d;" horiz-adv-x="235" 
d="M178 -90q-52 9 -82.5 45.5t-30.5 98.5v328q0 63 30.5 99.5t81.5 45.5q2 0 4.5 0.5t3.5 0.5q15 0 22.5 -10t7.5 -21q0 -24 -26 -30q-27 -5 -44.5 -26.5t-17.5 -57.5v-329q0 -72 65 -85q23 -4 23 -28q0 -15 -10 -24.5t-27 -6.5z" />
    <glyph glyph-name="uni208E" unicode="&#x208e;" horiz-adv-x="235" 
d="M58 527q50 -9 80.5 -46t30.5 -98v-328q0 -63 -30 -99.5t-83 -45.5q-16 -3 -26 6.5t-10 24.5q0 24 23 29q64 13 64 84v329q0 72 -65 85q-23 5 -23 28q0 14 9.5 24t29.5 7z" />
    <glyph glyph-name="Euro" unicode="&#x20ac;" horiz-adv-x="756" 
d="M656 108q12 5 19 5q14 0 23 -10.5t9 -24.5q0 -26 -24 -40q-77 -47 -180 -47q-124 0 -225.5 71t-129.5 204h-68q-11 0 -19.5 8t-8.5 20q0 11 8.5 19.5t19.5 8.5h60q-1 11 -1 33q0 17 2 45h-61q-11 0 -19.5 8t-8.5 19q0 12 8.5 20t19.5 8h70q30 127 130.5 194.5t222.5 67.5
q104 0 183 -47q22 -13 22 -39q0 -14 -8.5 -24.5t-22.5 -10.5q-11 0 -21 5q-68 35 -149 35q-90 0 -163 -46t-101 -135h336q11 0 19.5 -8t8.5 -20q0 -11 -8.5 -19t-19.5 -8h-347q-3 -21 -3 -45q0 -22 1 -33h319q11 0 19 -8.5t8 -19.5q0 -12 -8 -20t-19 -8h-309
q26 -93 100.5 -143t167.5 -50q78 0 148 35z" />
    <glyph glyph-name="uni20B4" unicode="&#x20b4;" horiz-adv-x="705" 
d="M622 394h-542q-11 0 -19.5 9t-8.5 20q0 12 8.5 22t19.5 10h329q34 2 54.5 26.5t20.5 60.5q0 45 -35.5 72.5t-88.5 27.5q-98 0 -133 -94q-10 -28 -34 -28q-17 0 -31 14.5t-14 34.5q0 16 6 27q29 58 82.5 91t127.5 33q92 0 151 -46.5t59 -116.5q0 -63 -52 -106h100
q11 0 20 -8.5t9 -19.5q0 -12 -9 -20.5t-20 -8.5zM353 -10q-108 0 -172 48.5t-64 124.5q0 50 36 91h-73q-11 0 -19.5 8.5t-8.5 19.5t8.5 20t19.5 9h542q11 0 20 -9t9 -20q0 -12 -9 -22t-20 -10h-343q-32 -2 -50 -23.5t-18 -52.5q0 -48 39 -77t107 -29q54 0 95.5 26t59.5 75
q10 27 31 27q16 0 29.5 -16.5t13.5 -38.5q0 -14 -7 -27q-32 -60 -90 -92t-136 -32z" />
    <glyph glyph-name="uni20B8" unicode="&#x20b8;" horiz-adv-x="587" 
d="M512 650h-436q-12 0 -21 8.5t-9 21.5q0 12 9 21t21 9h436q12 0 21 -9t9 -21q0 -13 -9 -21.5t-21 -8.5zM294 -5q-19 0 -32 13.5t-13 31.5v472h-173q-12 0 -21 9t-9 21q0 13 9 22t21 9h436q12 0 21 -9t9 -22q0 -12 -9 -21t-21 -9h-174v-472q0 -18 -13 -31.5t-31 -13.5z" />
    <glyph glyph-name="uni20BD" unicode="&#x20bd;" horiz-adv-x="612" 
d="M123 710h211q108 0 175.5 -58t67.5 -165q0 -105 -68.5 -164t-179.5 -59h-161v-77h116q13 0 22 -9t9 -21t-9 -21t-22 -9h-116v-87q0 -18 -13 -31t-31 -13q-19 0 -32 13t-13 31v87h-95q-13 0 -22 9t-9 21t9 21t22 9h95v77h-96q-12 0 -21 8.5t-9 21.5q0 12 9 21t21 9h96v342
q0 44 44 44zM168 345h161q71 0 114.5 35.5t43.5 104.5q0 70 -43.5 107t-114.5 37h-161v-284z" />
    <glyph glyph-name="uni20BF" unicode="&#x20bf;" horiz-adv-x="631" 
d="M591 200q0 -80 -49 -131.5t-141 -64.5v-3v-65q0 -11 -8.5 -19.5t-19.5 -8.5q-12 0 -20.5 8.5t-8.5 19.5v64h-3h-79v-64q0 -11 -8.5 -19.5t-20.5 -8.5t-20 8.5t-8 19.5v64h-79q-47 0 -47 47v616q0 47 47 47h79v64q0 11 8 19.5t20 8.5t20.5 -8.5t8.5 -19.5v-64h64h18v64
q0 11 8.5 19.5t20.5 8.5q11 0 19.5 -8.5t8.5 -19.5v-67v-4q74 -14 112 -58t38 -110q0 -61 -27.5 -100.5t-77.5 -52.5q67 -13 106 -62.5t39 -119.5zM326 633h-158v-228h158q135 0 135 114q0 54 -34.5 84t-100.5 30zM168 77h173q77 0 118.5 32.5t41.5 91.5q0 62 -41 99
t-114 37h-178v-260z" />
    <glyph glyph-name="uni2116" unicode="&#x2116;" horiz-adv-x="1177" 
d="M953 341q-83 0 -138 54t-55 134t55 134t138 54q82 0 137 -54t55 -134q0 -81 -55 -134.5t-137 -53.5zM605 714q18 0 31 -13t13 -30v-622q0 -22 -16 -37.5t-38 -15.5q-28 0 -43 22l-391 551q5 -55 5 -530q0 -17 -12.5 -30t-30.5 -13t-31 13t-13 30v622q0 22 15.5 37.5
t37.5 15.5q28 0 43 -22l390 -552q-4 86 -4 531q0 17 13 30t31 13zM953 654q-53 0 -89 -35.5t-36 -88.5t36 -89t89 -36t89 36t36 89t-36 88.5t-89 35.5zM810 280h285q13 0 23 -9.5t10 -22.5t-10 -23t-23 -10h-285q-13 0 -22.5 10t-9.5 23t9.5 22.5t22.5 9.5z" />
    <glyph glyph-name="trademark" unicode="&#x2122;" horiz-adv-x="834" 
d="M700 715q16 0 27 -11.5t11 -27.5v-307q0 -13 -9 -22.5t-22 -9.5t-22.5 9.5t-9.5 22.5q0 223 5 256q-64 -100 -103 -155q-12 -17 -30 -17q-15 0 -27 14q-21 25 -105 159q5 -38 5 -257q0 -13 -9.5 -22.5t-22.5 -9.5t-22 9.5t-9 22.5v307q0 16 11 27.5t27 11.5q20 0 29 -14
l123 -175l125 175q10 14 28 14zM67 710h220q12 0 20.5 -8.5t8.5 -20.5q0 -11 -8.5 -20t-20.5 -9h-78v-283q0 -13 -9 -22.5t-22 -9.5t-23 9.5t-10 22.5v283h-78q-11 0 -20 8.5t-9 20.5t8.5 20.5t20.5 8.5z" />
    <glyph glyph-name="uni2153" unicode="&#x2153;" horiz-adv-x="886" 
d="M570 713q14 0 25 -8.5t11 -22.5q0 -8 -4 -15l-308 -651q-10 -20 -32 -20q-13 0 -23 8t-10 22q0 9 4 17l307 651q9 19 30 19zM306 293q0 -13 -9 -21.5t-20 -8.5h-217q-12 0 -21 9t-9 21t9 20.5t21 8.5h74v321l-62 -19q-3 -1 -9 -1q-12 0 -19 8.5t-7 20.5q0 23 22 29l94 27
q5 2 15 2q33 0 33 -40v-348h76q11 0 20 -8.5t9 -20.5zM777 234q74 -30 74 -106q0 -57 -41 -95.5t-112 -38.5q-58 0 -100.5 29.5t-56.5 77.5q-2 10 -2 14q0 15 9 24.5t22 9.5q25 0 28 -19q7 -35 33.5 -56t62.5 -21q40 0 65 22t25 55q0 36 -28 54.5t-63 18.5h-20
q-13 0 -20 8.5t-7 19.5t8 19t21 8h18q33 0 53.5 19.5t20.5 49.5q0 29 -22 48t-57 19q-34 0 -55.5 -20.5t-27.5 -50.5q-3 -21 -28 -21q-14 0 -23 9.5t-9 24.5q0 7 3 16q15 47 53.5 74.5t91.5 27.5q63 0 102 -33t39 -87q0 -66 -57 -100z" />
    <glyph glyph-name="uni2154" unicode="&#x2154;" horiz-adv-x="932" 
d="M316 263h-221q-27 0 -43 12t-16 34q0 41 24.5 74t59 54.5t69 41.5t59 45t24.5 55q0 33 -22.5 54.5t-58.5 21.5q-34 0 -56.5 -20.5t-28.5 -53.5q-1 -9 -10 -14.5t-19 -5.5q-15 0 -23.5 10.5t-8.5 25.5q0 6 2 14q15 46 52.5 76t91.5 30q63 0 105.5 -37.5t42.5 -99.5
q0 -43 -22 -76t-55 -54t-66 -38.5t-58.5 -39t-30.5 -46.5h209q12 0 21.5 -9t9.5 -22t-9.5 -22.5t-21.5 -9.5zM648 667l-308 -651q-10 -20 -32 -20q-13 0 -23 8t-10 22q0 9 4 17l307 651q9 19 30 19q14 0 25 -8.5t11 -22.5q0 -8 -4 -15zM744 -6q-58 0 -100.5 29.5t-56.5 77.5
q-2 10 -2 14q0 15 9 24.5t22 9.5q25 0 28 -19q7 -35 33.5 -56t62.5 -21q40 0 65 22t25 55q0 36 -28 54.5t-63 18.5h-20q-13 0 -20 8.5t-7 19.5t8 19t21 8h18q33 0 53.5 19.5t20.5 49.5q0 29 -22 48t-57 19q-34 0 -55.5 -20.5t-27.5 -50.5q-3 -21 -28 -21q-14 0 -23 9.5
t-9 24.5q0 7 3 16q15 47 53.5 74.5t91.5 27.5q63 0 102 -33t39 -87q0 -66 -57 -100q74 -30 74 -106q0 -57 -41 -95.5t-112 -38.5z" />
    <glyph glyph-name="oneeighth" unicode="&#x215b;" horiz-adv-x="884" 
d="M570 713q14 0 25 -8.5t11 -22.5q0 -8 -4 -15l-308 -651q-10 -20 -32 -20q-13 0 -23 8t-10 22q0 9 4 17l307 651q9 19 30 19zM306 293q0 -13 -9 -21.5t-20 -8.5h-217q-12 0 -21 9t-9 21t9 20.5t21 8.5h74v321l-62 -19q-3 -1 -9 -1q-12 0 -19 8.5t-7 20.5q0 23 22 29l94 27
q5 2 15 2q33 0 33 -40v-348h76q11 0 20 -8.5t9 -20.5zM780 239q70 -34 70 -109q0 -59 -44.5 -97t-113.5 -38q-68 0 -112 38t-44 97q0 75 68 109q-50 31 -50 92q0 53 40 86.5t99 33.5q58 0 98 -33.5t40 -86.5q0 -61 -51 -92zM693 396q-30 0 -52.5 -18t-22.5 -48t22.5 -48
t52.5 -18t52.5 18t22.5 48q0 29 -22.5 47.5t-52.5 18.5zM693 55q39 0 65 22t26 56t-26 56t-65 22t-64.5 -22t-25.5 -56t25.5 -56t64.5 -22z" />
    <glyph glyph-name="threeeighths" unicode="&#x215c;" horiz-adv-x="936" 
d="M350 391q0 -57 -41 -95.5t-112 -38.5q-58 0 -100.5 29.5t-56.5 77.5q-2 10 -2 14q0 15 9 24.5t22 9.5q25 0 28 -19q7 -35 33.5 -56t62.5 -21q40 0 65 22t25 55q0 36 -28 54.5t-63 18.5h-20q-13 0 -20 8.5t-7 19.5t8 19t21 8h18q33 0 53.5 19.5t20.5 49.5q0 29 -22 48
t-57 19q-34 0 -55.5 -20.5t-27.5 -50.5q-3 -21 -28 -21q-14 0 -23 9.5t-9 24.5q0 7 3 16q15 47 53.5 74.5t91.5 27.5q63 0 102 -33t39 -87q0 -66 -57 -100q74 -30 74 -106zM622 713q14 0 25 -8.5t11 -22.5q0 -8 -4 -15l-308 -651q-10 -20 -32 -20q-13 0 -23 8t-10 22
q0 9 4 17l307 651q9 19 30 19zM832 239q70 -34 70 -109q0 -59 -44.5 -97t-113.5 -38q-68 0 -112 38t-44 97q0 75 68 109q-50 31 -50 92q0 53 40 86.5t99 33.5q58 0 98 -33.5t40 -86.5q0 -61 -51 -92zM745 396q-30 0 -52.5 -18t-22.5 -48t22.5 -48t52.5 -18t52.5 18t22.5 48
q0 29 -22.5 47.5t-52.5 18.5zM745 55q39 0 65 22t26 56t-26 56t-65 22t-64.5 -22t-25.5 -56t25.5 -56t64.5 -22z" />
    <glyph glyph-name="fiveeighths" unicode="&#x215d;" horiz-adv-x="942" 
d="M628 713q13 0 24 -8.5t11 -21.5q0 -8 -4 -16l-307 -651q-9 -20 -32 -20q-13 0 -23 8t-10 22q0 9 4 17l307 651q10 19 30 19zM358 415q0 -66 -46 -112t-115 -46q-103 0 -145 97q-3 8 -3 17q0 15 8 26t24 11q21 0 25 -16q8 -34 32 -54t59 -20q38 0 66 27t28 68q0 43 -27 69
t-67 26q-25 0 -48.5 -12t-35.5 -35q-7 -13 -28 -13q-19 0 -29.5 13.5t-8.5 30.5l28 180q6 38 44 38h182q11 0 20 -9t9 -21t-9 -21t-20 -9h-167l-18 -120q33 36 95 36q63 0 105 -42t42 -109zM837 239q70 -34 70 -109q0 -59 -44.5 -97t-112.5 -38t-112.5 38t-44.5 97
q0 74 69 109q-50 32 -50 92q0 53 40 86.5t98 33.5t98.5 -33.5t40.5 -86.5q0 -61 -52 -92zM750 396q-29 0 -51.5 -18t-22.5 -48t22 -48t52 -18t52.5 18t22.5 48t-22 48t-53 18zM750 55q39 0 65 22t26 56t-26 56t-65 22q-38 0 -64 -22t-26 -56t26 -56t64 -22z" />
    <glyph glyph-name="seveneighths" unicode="&#x215e;" horiz-adv-x="851" 
d="M537 713q14 0 24.5 -8.5t10.5 -22.5q0 -8 -4 -15l-307 -651q-9 -20 -33 -20q-13 0 -23 8t-10 22q0 9 4 17l307 651q9 19 31 19zM45 710h244q16 0 25 -10t9 -24q0 -7 -3 -13l-157 -384q-8 -20 -30 -20q-15 0 -23.5 10t-8.5 23q0 8 2 12l144 346h-202q-12 0 -21 9t-9 21
q0 13 9 21.5t21 8.5zM746 239q70 -33 70 -109q0 -59 -44.5 -97t-113.5 -38q-68 0 -112 38.5t-44 96.5q0 74 69 109q-51 32 -51 92q0 53 40 86.5t99 33.5q58 0 98 -33.5t40 -86.5q0 -62 -51 -92zM659 396q-30 0 -52 -18t-22 -48t22 -48t52 -18t52.5 18t22.5 48t-22.5 48
t-52.5 18zM659 55q39 0 65 22t26 56t-26 56t-65 22q-38 0 -64 -22t-26 -56t26 -56t64 -22z" />
    <glyph glyph-name="arrowleft" unicode="&#x2190;" horiz-adv-x="782" 
d="M348 486l-182 -181q80 6 542 6q16 0 28 -12t12 -28t-11.5 -27.5t-27.5 -11.5q-482 0 -543 4l183 -181q12 -12 12 -26t-11.5 -25t-25.5 -11t-25 11l-227 226q-20 20 -20 41q0 20 20 40l226 225q11 11 25 11q15 0 26 -10.5t11 -25.5q0 -14 -12 -25z" />
    <glyph glyph-name="arrowup" unicode="&#x2191;" horiz-adv-x="659" 
d="M329 -4q-16 0 -28 12t-12 28q0 467 5 546l-202 -203q-10 -10 -24 -10t-25.5 10.5t-11.5 24.5t11 25l250 251q16 18 36 18q18 0 36 -18l250 -250q10 -10 10 -24q0 -15 -9.5 -26t-23.5 -11t-26 12l-201 201q5 -76 5 -546q0 -16 -11.5 -28t-28.5 -12z" />
    <glyph glyph-name="arrowright" unicode="&#x2192;" horiz-adv-x="782" 
d="M433 55l182 181q-69 -5 -542 -5q-16 0 -27.5 11.5t-11.5 27.5t11.5 27.5t27.5 11.5q482 0 543 -4l-183 181q-12 12 -12 26t11.5 25t25.5 11t25 -11l227 -226q20 -20 20 -40q0 -21 -20 -41l-226 -225q-11 -11 -25 -11t-25.5 11t-11.5 25t11 25z" />
    <glyph glyph-name="arrowdown" unicode="&#x2193;" horiz-adv-x="659" 
d="M329 716q16 0 28 -12t12 -28q0 -468 -5 -546l202 203q10 10 24 10t25.5 -10.5t11.5 -24.5t-11 -25l-250 -251q-16 -18 -35 -18t-37 18l-250 250q-10 10 -10 24q0 15 9.5 26t23.5 11t26 -12l201 -201q-5 76 -5 546q0 16 11.5 28t28.5 12z" />
    <glyph glyph-name="arrowboth" unicode="&#x2194;" horiz-adv-x="945" 
d="M347 487l-180 -180q61 4 306 4t302 -4l-179 180q-11 11 -11 25t11.5 24.5t25.5 10.5t24 -10l226 -226q20 -20 20 -40q0 -21 -20 -41l-227 -225q-11 -11 -24 -11q-15 0 -26.5 11t-11.5 25q0 13 12 25l182 180q-58 -3 -328 -3q-232 0 -283 3l182 -180q10 -10 10 -24
t-10.5 -26t-23.5 -12q-14 0 -26 12l-227 225q-19 20 -19 41t19 40l226 226q10 10 24 10t25.5 -10.5t11.5 -24.5t-11 -25z" />
    <glyph glyph-name="arrowupdn" unicode="&#x2195;" horiz-adv-x="561" 
d="M318 97l144 129q10 9 21 9q13 0 22.5 -11.5t9.5 -26.5t-11 -25l-183 -162q-19 -17 -39 -17q-21 0 -40 17l-184 162q-13 12 -13 26t11 25t24 11q9 0 19 -8l145 -129q-3 81 -3 260q0 180 3 261l-145 -130q-11 -9 -21 -9q-13 0 -23 11.5t-10 25.5q0 15 13 27l184 161
q19 17 39 17t40 -17l183 -161q12 -10 12 -26q0 -15 -9.5 -26t-22.5 -11q-12 0 -22 9l-145 128q4 -71 4 -278q0 -171 -3 -242z" />
    <glyph glyph-name="uni2196" unicode="&#x2196;" horiz-adv-x="648" 
d="M537 100q-309 308 -383 390v-287q0 -14 -10 -24.5t-25 -10.5q-14 0 -24.5 10.5t-10.5 24.5v350q0 56 57 56h350q14 0 24.5 -10.5t10.5 -24.5q0 -15 -10.5 -25.5t-24.5 -10.5l-288 1q59 -51 390 -382q12 -12 12 -27q0 -16 -12.5 -29t-28.5 -13q-15 0 -27 12z" />
    <glyph glyph-name="uni2197" unicode="&#x2197;" horiz-adv-x="648" 
d="M111 100q-8 -8 -16 -8q-11 0 -21.5 15.5t-15.5 31.5t-3 18q347 347 389 382h-286q-14 0 -24.5 10t-10.5 25q0 14 10.5 24.5t24.5 10.5l357 1q49 0 49 -49v-354q0 -16 -10.5 -27t-25.5 -11q-14 0 -24.5 11t-10.5 25v285q-44 -52 -382 -390z" />
    <glyph glyph-name="uni2198" unicode="&#x2198;" horiz-adv-x="648" 
d="M111 629q309 -308 383 -390v287q0 14 10 24.5t25 10.5q14 0 24.5 -10.5t10.5 -24.5v-350q0 -56 -57 -56h-350q-14 0 -24.5 10.5t-10.5 24.5q0 15 10.5 25.5t24.5 10.5l288 -1q-59 51 -390 382q-12 12 -12 27q0 16 12.5 29t28.5 13q15 0 27 -12z" />
    <glyph glyph-name="uni2199" unicode="&#x2199;" horiz-adv-x="648" 
d="M536 627q9 9 18 9q12 0 22 -16t14 -32t3 -17q-334 -334 -390 -382h286q14 0 24.5 -10t10.5 -25q0 -14 -10.5 -24.5t-24.5 -10.5l-356 -1q-49 0 -49 49v354q0 16 10.5 27t24.5 11t24.5 -10.5t10.5 -25.5v-285q60 66 382 389z" />
    <glyph glyph-name="partialdiff" unicode="&#x2202;" horiz-adv-x="597" 
d="M298 -10q-110 0 -180.5 70.5t-70.5 176.5q0 102 65.5 168.5t162.5 66.5q52 0 94 -24l-129 204q-7 10 -7 22q0 17 12 29t30 12q24 0 39 -23l185 -297q52 -84 52 -162q0 -103 -71 -173t-182 -70zM136 237q0 -71 46 -117.5t116 -46.5t116.5 46.5t46.5 117.5q0 72 -45.5 118
t-117.5 46q-70 0 -116 -46.5t-46 -117.5z" />
    <glyph glyph-name="emptyset" unicode="&#x2205;" horiz-adv-x="801" 
d="M683 673l-36 -48q112 -106 112 -270q0 -155 -102.5 -260t-255.5 -105q-105 0 -188 51l-37 -50q-11 -15 -30 -15q-18 0 -28.5 11.5t-10.5 27.5q0 14 7 22l38 51q-110 105 -110 267q0 155 102.5 260t256.5 105q101 0 185 -49l36 48q11 15 30 15q18 0 28.5 -11.5t10.5 -26.5
q0 -12 -8 -23zM131 355q0 -114 74 -196l329 442q-61 36 -133 36q-115 0 -192.5 -82t-77.5 -200zM401 73q114 0 191.5 82t77.5 200q0 116 -76 198l-329 -443q63 -37 136 -37z" />
    <glyph glyph-name="product" unicode="&#x220f;" horiz-adv-x="575" 
d="M63 710h451q14 0 24.5 -10.5t10.5 -25.5q0 -14 -10.5 -25t-24.5 -11h-57v-599q0 -17 -12.5 -30.5t-29.5 -13.5t-29.5 13.5t-12.5 30.5v599h-170v-599q0 -18 -12.5 -31t-30.5 -13q-17 0 -29.5 13.5t-12.5 30.5v599h-55q-15 0 -25.5 11t-10.5 25q0 15 10.5 25.5t25.5 10.5z
" />
    <glyph glyph-name="summation" unicode="&#x2211;" horiz-adv-x="514" 
d="M440 0h-353q-20 0 -32 14t-12 33q0 15 7 26l183 295l-183 268q-8 11 -8 27q0 19 12 33t33 14h353q15 0 26.5 -11t11.5 -27t-11.5 -27t-26.5 -11h-296q22 -33 80.5 -116.5t80.5 -116.5q12 -17 12 -32t-12 -34q-45 -69 -161 -259h296q15 0 26.5 -11t11.5 -27t-11.5 -27
t-26.5 -11z" />
    <glyph glyph-name="minus" unicode="&#x2212;" horiz-adv-x="560" 
d="M84 271q0 16 11.5 27.5t27.5 11.5h299q16 0 28 -11.5t12 -27.5t-12 -28t-28 -12h-299q-16 0 -27.5 12t-11.5 28z" />
    <glyph glyph-name="radical" unicode="&#x221a;" horiz-adv-x="648" 
d="M233 -6q-20 0 -36.5 12.5t-21.5 31.5l-124 429q-2 8 -2 11q0 18 13 30.5t30 12.5q16 0 27 -9.5t15 -24.5q80 -301 100 -388q10 58 148 596q14 55 67 55h140q14 0 24.5 -10.5t10.5 -25.5q0 -14 -10.5 -25t-24.5 -11h-126l-171 -638q-6 -20 -21.5 -33t-37.5 -13z" />
    <glyph glyph-name="infinity" unicode="&#x221e;" horiz-adv-x="818" 
d="M575 498q78 0 127.5 -50.5t49.5 -125.5q0 -72 -49.5 -121.5t-127.5 -49.5q-111 0 -167 101q-57 -101 -164 -101q-77 0 -127 50.5t-50 124.5q0 73 50 122.5t127 49.5q60 0 104 -28.5t67 -76.5q30 51 67 78t93 27zM364 300l11 20l-10 20q-20 41 -47 64.5t-73 23.5
q-48 0 -77.5 -29.5t-29.5 -72.5q0 -45 29.5 -75.5t77.5 -30.5q32 0 57 13.5t37 28.5t25 38zM574 220q48 0 77.5 29.5t29.5 72.5q0 45 -29.5 75.5t-77.5 30.5q-44 0 -70.5 -23.5t-49.5 -66.5l-7 -13l9 -18q41 -87 118 -87z" />
    <glyph glyph-name="integral" unicode="&#x222b;" horiz-adv-x="363" 
d="M57 -232q-17 2 -26 13t-9 24q0 15 9.5 24t25.5 7q4 -1 13 -1q67 0 67 89v673q0 46 14 78.5t37.5 48t47.5 22t50 6.5q15 0 22 -1q20 -2 30.5 -12.5t10.5 -24.5t-10.5 -23.5t-28.5 -8.5q-2 0 -6 0.5t-7 0.5q-72 0 -72 -88v-674q0 -85 -43.5 -119.5t-101.5 -34.5
q-16 0 -23 1z" />
    <glyph glyph-name="approxequal" unicode="&#x2248;" horiz-adv-x="571" 
d="M83 397q30 74 106 74q41 0 101.5 -34.5t84.5 -34.5q35 0 51 33q8 18 29 18q14 0 25 -9.5t11 -24.5q0 -8 -4 -16q-31 -71 -105 -71q-40 0 -102 34t-86 34q-35 0 -52 -33q-9 -16 -27 -16q-13 0 -24 9t-11 23q0 7 3 14zM83 199q30 74 106 74q41 0 101.5 -34.5t84.5 -34.5
q35 0 52 35q9 16 27 16q14 0 25.5 -9.5t11.5 -24.5q0 -8 -4 -16q-31 -71 -105 -71q-40 0 -102 34.5t-86 34.5q-34 0 -52 -34q-9 -16 -27 -16q-13 0 -24 9t-11 23q0 7 3 14z" />
    <glyph glyph-name="notequal" unicode="&#x2260;" horiz-adv-x="560" 
d="M297 218h135q14 0 25.5 -11t11.5 -26t-11.5 -26.5t-25.5 -11.5h-163l-25 -67q-8 -22 -32 -22q-14 0 -24 10.5t-10 23.5q0 4 2 12l16 43h-68q-15 0 -26 11t-11 27q0 15 11 26t26 11h96l41 108h-137q-15 0 -26 11t-11 26t11 26t26 11h165l25 68q8 22 31 22q15 0 25 -10
t10 -24q0 -4 -2 -12l-16 -44h66q15 0 26 -11t11 -26t-11 -26t-26 -11h-94z" />
    <glyph glyph-name="lessequal" unicode="&#x2264;" horiz-adv-x="481" 
d="M82 424l293 119q7 3 14 3q14 0 23.5 -11.5t9.5 -25.5q0 -25 -23 -35q-228 -92 -260 -102q20 -6 110.5 -43t150.5 -59q25 -10 25 -32q0 -15 -10.5 -26.5t-25.5 -11.5q-9 0 -13 2l-294 118q-15 6 -26 21t-11 31q0 17 10.5 31.5t26.5 20.5zM45 97q0 16 11.5 28t27.5 12h300
q16 0 28 -12t12 -28t-12 -27.5t-28 -11.5h-300q-16 0 -27.5 11.5t-11.5 27.5z" />
    <glyph glyph-name="greaterequal" unicode="&#x2265;" horiz-adv-x="480" 
d="M400 321l-294 -119q-8 -3 -14 -3q-14 0 -23.5 11.5t-9.5 26.5q0 24 23 34q226 91 260 102q-20 6 -109 42.5t-150 59.5q-27 10 -27 33q0 14 11 25.5t26 11.5q9 0 13 -2l294 -118q15 -6 25.5 -20.5t10.5 -31.5t-10.5 -31.5t-25.5 -20.5zM56 97q0 16 11.5 28t27.5 12h299
q16 0 28 -12t12 -28t-12 -27.5t-28 -11.5h-299q-16 0 -27.5 11.5t-11.5 27.5z" />
    </font>
</defs>
</svg>
