<svg width="12" height="12" viewBox="0 0 12 12" fill="none" xmlns="http://www.w3.org/2000/svg">
<g id="Map/North star">
<path id="Vector" fill-rule="evenodd" clip-rule="evenodd" d="M6 1C6.27614 1 6.5 1.22386 6.5 1.5V4.79289L7.89645 3.39645C8.09171 3.20118 8.40829 3.20118 8.60355 3.39645C8.79882 3.59171 8.79882 3.90829 8.60355 4.10355L7.20711 5.5H10.5C10.7761 5.5 11 5.72386 11 6C11 6.27614 10.7761 6.5 10.5 6.5H7.20711L8.60355 7.89645C8.79882 8.09171 8.79882 8.40829 8.60355 8.60355C8.40829 8.79882 8.09171 8.79882 7.89645 8.60355L6.5 7.20711V10.5C6.5 10.7761 6.27614 11 6 11C5.72386 11 5.5 10.7761 5.5 10.5V7.20711L4.10355 8.60355C3.90829 8.79882 3.59171 8.79882 3.39645 8.60355C3.20118 8.40829 3.20118 8.09171 3.39645 7.89645L4.79289 6.5H1.5C1.22386 6.5 1 6.27614 1 6C1 5.72386 1.22386 5.5 1.5 5.5H4.79289L3.39645 4.10355C3.20118 3.90829 3.20118 3.59171 3.39645 3.39645C3.59171 3.20118 3.90829 3.20118 4.10355 3.39645L5.5 4.79289V1.5C5.5 1.22386 5.72386 1 6 1Z" fill="black"/>
</g>
</svg>
